SplineFontDB: 3.0
FontName: CosmicSansNeueMonoBold
FullName: Cosmic Sans Neue Mono Bold
FamilyName: CosmicSansNeueMono
Weight: Bold
Copyright: Created by Jany Belluz with FontForge 2.0 (http://fontforge.sf.net)
UComments: "2013-9-13: Created." 
Version: 1.3
ItalicAngle: 0
UnderlinePosition: -192
UnderlineWidth: 96
Ascent: 1650
Descent: 398
LayerCount: 2
Layer: 0 0 "Back"  1
Layer: 1 0 "Fore"  0
XUID: [1021 607 50037791 3178130]
FSType: 8
OS2Version: 3
OS2_WeightWidthSlopeOnly: 0
OS2_UseTypoMetrics: 1
CreationTime: 1379052706
ModificationTime: 1385323156
PfmFamily: 49
TTFWeight: 700
TTFWidth: 5
LineGap: 0
VLineGap: 0
Panose: 2 11 8 9 2 2 4 3 2 4
OS2TypoAscent: 1650
OS2TypoAOffset: 0
OS2TypoDescent: -398
OS2TypoDOffset: 0
OS2TypoLinegap: 410
OS2WinAscent: 1901
OS2WinAOffset: 0
OS2WinDescent: 483
OS2WinDOffset: 0
HheadAscent: 1901
HheadAOffset: 0
HheadDescent: -483
HheadDOffset: 0
OS2Vendor: 'PfEd'
MarkAttachClasses: 1
DEI: 91125

StartChar: a
Encoding: 97 97 0
Width: 1060
VWidth: 6
Flags: HW
HStem: -11 200<334.777 563.837> 470 200<361.793 616.784> 820 208<332.171 596.221>
VStem: 56 253<217.581 419.927> 652 244<275.679 431.841 623 758.896>
LayerCount: 2
Fore
SplineSet
896 316 m 2
 896 224 915 172 972 127 c 1
 859 -22 l 1
 807 18 773 29 731 101 c 1
 655 23 573 -11 391 -11 c 0
 220 -11 56 120 56 302 c 0
 56 392 86 479 145 540 c 0
 240 637 342 670 484 670 c 0
 548 670 614 649 652 623 c 1
 652 789 536 820 476 820 c 0
 361 820 302 760 248 683 c 1
 52 793 l 1
 148 975 306 1025 484 1028 c 1
 709 1028 896 893 896 655 c 2
 896 316 l 2
309 317 m 0
 309 219 378 189 442 189 c 0
 552 189 634 291 652 347 c 1
 652 394 l 1
 616 436 548 470 484 470 c 0
 418 470 309 427 309 317 c 0
EndSplineSet
Validated: 1
EndChar

StartChar: b
Encoding: 98 98 1
Width: 1060
VWidth: -2
Flags: HW
HStem: -7 180<461.995 640.895> 813 200<436.383 630.479>
VStem: 122 245<274.508 742.95 933.594 1399.8> 698 255<235.51 731.081>
LayerCount: 2
Fore
SplineSet
953 459 m 0
 953 152 835 -7 584 -7 c 0
 460 -7 381 40 343 93 c 1
 343 51 299 -13 299 -13 c 1
 103 7 l 1
 113 73 122 160 122 243 c 0
 122 251 122 259 122 267 c 0
 122 516 121 877 121 1157 c 0
 121 1251 113 1335 106 1403 c 1
 353 1412 l 1
 362 1339 367 1243 367 1152 c 0
 367 1062 361 1007 343 930 c 1
 380 958 454 1013 568 1013 c 0
 840 1013 953 831 953 459 c 0
698 478 m 0
 698 741 625 813 533 813 c 0
 461 813 400 738 367 683 c 1
 367 349 l 1
 418 247 489 173 550 173 c 0
 658 173 698 288 698 478 c 0
EndSplineSet
EndChar

StartChar: c
Encoding: 99 99 2
Width: 1060
VWidth: 4
Flags: HW
HStem: -7 210<426.875 678.896> 807 211<433.703 701.653>
VStem: 81 256<305.761 702.322>
LayerCount: 2
Fore
SplineSet
337 528 m 0
 337 209 505 203 552 203 c 2
 564 203 l 2
 664 203 718 269 766 350 c 1
 992 216 l 1
 924 66 792 -7 574 -7 c 0
 470 -7 347 1 251 73 c 1
 121 174 81 328 81 527 c 0
 81 867 259 1018 574 1018 c 0
 669 1018 766 999 829 957 c 0
 889 917 935 858 957 806 c 1
 737 704 l 1
 727 742 696 807 556 807 c 0
 409 807 337 671 337 528 c 0
EndSplineSet
Validated: 1
EndChar

StartChar: d
Encoding: 100 100 3
Width: 1060
VWidth: -2
Flags: HW
HStem: -7 180<414.613 593.278> 813 200<426.098 618.902>
VStem: 103 255<235.51 735.573> 688 245<274.508 742.95 933.594 1399.8>
LayerCount: 2
Fore
SplineSet
103 459 m 0
 103 840 225 1013 488 1013 c 0
 602 1013 675 958 712 930 c 1
 694 1007 688 1062 688 1152 c 0
 688 1243 693 1339 702 1412 c 1
 950 1403 l 1
 943 1335 935 1251 935 1157 c 0
 935 877 933 516 933 267 c 0
 933 259 933 251 933 243 c 0
 933 160 943 73 953 7 c 1
 757 -13 l 1
 757 -13 712 51 712 93 c 1
 674 40 595 -7 471 -7 c 0
 220 -7 103 152 103 459 c 0
358 478 m 0
 358 288 398 173 506 173 c 0
 567 173 637 247 688 349 c 1
 688 683 l 1
 655 738 594 813 522 813 c 0
 430 813 358 741 358 478 c 0
EndSplineSet
Validated: 1
EndChar

StartChar: e
Encoding: 101 101 4
Width: 1060
VWidth: 32
Flags: HW
HStem: -10 206<420.251 674.808> 434 196<414.825 686> 818 203<417.494 631.802>
VStem: 88 258<278.151 403.211 606 738.031> 686 261<630 763.58>
LayerCount: 2
Fore
SplineSet
519 1021 m 0
 838 1021 947 813 947 477 c 0
 947 457 946 434 946 434 c 1
 661 430 448 416 346 396 c 1
 362 285 426 196 518 196 c 0
 624 196 659 205 720 294 c 1
 920 166 l 1
 853 60 750 -10 511 -10 c 0
 225 -10 88 203 88 516 c 0
 88 802 236 1021 519 1021 c 0
346 606 m 1
 459 626 553 630 686 630 c 1
 681 761 609 818 521 818 c 0
 419 818 352 722 346 606 c 1
EndSplineSet
Validated: 1
EndChar

StartChar: f
Encoding: 102 102 5
Width: 1060
VWidth: -2
Flags: HW
HStem: 807 205<109 252 509 824.016> 1217 201<534.522 799.055>
VStem: 252 257<0 807 1012 1188.92>
LayerCount: 2
Fore
SplineSet
651 1217 m 0
 519 1217 508 1143 508 1083 c 0
 508 1056 509 1012 509 1012 c 1
 577 1012 620 1012 693 1012 c 0
 798 1012 839 1000 869 991 c 1
 825 794 l 1
 804 801 783 807 727 807 c 2
 508 807 l 1
 509 0 l 1
 252 0 l 1
 252 807 l 1
 109 807 l 1
 109 1012 l 1
 252 1012 l 1
 252 1028 252 1045 252 1064 c 0
 252 1194 318 1418 634 1418 c 0
 830 1418 959 1376 1037 1221 c 1
 825 1124 l 1
 799 1206 741 1217 651 1217 c 0
EndSplineSet
Validated: 1
EndChar

StartChar: g
Encoding: 103 103 6
Width: 1060
VWidth: 14
Flags: HW
HStem: -374 200<332.534 702.663> 18 202<348.696 718.022> 351 200<368.319 613.891> 838 204<372.408 624.152 880.701 974>
VStem: 90 247<237.136 368.246 583.407 800.345> 90 228<-159.13 15.8658> 655 246<586.44 806.444> 728 250<-151.059 3.3258>
LayerCount: 2
Fore
SplineSet
884 793.7 m 1xf8
 884 793.7 901 761 901 680 c 0
 901 463 797 351 517 351 c 2
 514 351 l 2
 439 351 394 359 364 369 c 1
 345 347 337 334 337 304 c 0xfa
 337 269 360 220 466 220 c 2
 629 220 l 2
 782 220 978 174 978 -27 c 0
 978 -250 888 -374 636 -374 c 0
 575 -374 532 -374 450 -374 c 0
 246 -374 90 -282 90 -67 c 0xf5
 90 34 124 88 177 135 c 1
 130 170 90 228 90 314 c 0
 90 415 129 455 166 496 c 1
 127 546 90 584 90 658 c 0
 90 893 255 1014.7 509 1014.7 c 0
 609 1014.7 705 1000.7 781 953.7 c 1
 830 999.7 862 1014.7 978 1014.7 c 1
 978 810.7 l 1
 966 812.7 955 813.7 945 813.7 c 0
 911 813.7 899 808.7 884 793.7 c 1xf8
655 690 m 0
 655 786 584 810.7 498 810.7 c 0
 410 810.7 337 773 337 681 c 0
 337 561 405 551 495 551 c 0
 613 551 655 590 655 690 c 0
505 -174 m 0
 521 -174 536 -174 551 -174 c 0
 648 -174 728 -167 728 -55 c 0
 728 -14 706 19 592 19 c 2
 341 18 l 1
 318 -12 318 -43 318 -87 c 0xf5
 318 -167 392 -174 461 -174 c 0
 476 -174 491 -174 505 -174 c 0
EndSplineSet
EndChar

StartChar: p
Encoding: 112 112 7
Width: 1060
VWidth: -2
Flags: HW
HStem: -8 201<411.543 624.96> 811 200<426.354 646.024> 1002 20G<134.615 314.5>
VStem: 104 246<-398 58.1271 255.451 734.217> 691 256<261.255 768.3>
LayerCount: 2
Fore
SplineSet
104 739 m 1xd8
 104 765 l 2
 104 848 92 931 82 996 c 1
 310 1022 l 1xb8
 319 998 326 960 330 921 c 1
 386 983 470 1011 582 1011 c 0
 857 1011 947 819 947 551 c 0
 947 215 874 -8 512 -8 c 0
 412 -8 365 29 336 60 c 1
 340 20 347 -17 350 -61 c 1
 350 -152 l 2
 350 -246 357 -330 364 -398 c 1
 116 -405 l 1
 107 -332 102 -237 102 -146 c 2
 104 739 l 1xd8
691 531 m 0
 691 724 654 811 566 811 c 0xd8
 437 811 393 744 348 656 c 1
 350 311 l 1
 388 253 442 193 517 193 c 0
 632 193 691 264 691 531 c 0
EndSplineSet
Validated: 1
EndChar

StartChar: h
Encoding: 104 104 8
Width: 1060
VWidth: -2
Flags: HW
HStem: 812 200<412.848 626.689>
VStem: 97 246<0 741.95 932.594 1398.8> 685 244<23.8544 749.663>
LayerCount: 2
Fore
SplineSet
929 566 m 2
 929 218 l 2
 929 136 936 61 957 22 c 1
 728 -32 l 1
 705 0 685 66 685 176 c 2
 684 491 l 2
 684 800 602 812 510 812 c 0
 438 812 376 737 343 682 c 1
 343 0 l 1
 97 0 l 1
 98 1156 l 2
 98 1250 89 1334 82 1402 c 1
 330 1411 l 1
 339 1338 344 1242 344 1151 c 0
 344 1061 338 1006 320 929 c 1
 357 957 430 1012 544 1012 c 0
 794 1012 929 888 929 566 c 2
EndSplineSet
Validated: 1
EndChar

StartChar: i
Encoding: 105 105 9
Width: 1060
VWidth: 0
Flags: HW
HStem: -18 200<545.905 804.717> 813 200<54.449 284> 1184 225<262 553>
VStem: 262 291<1184 1409> 284 256<191.813 813>
LayerCount: 2
Fore
SplineSet
297 1409 m 1xf0
 588 1409 l 1
 588 1184 l 1
 297 1184 l 1
 297 1409 l 1xf0
EndSplineSet
Refer: 177 305 N 1 0 0 1 -35 0 2
Validated: 1
EndChar

StartChar: j
Encoding: 106 106 10
Width: 1060
VWidth: 0
Flags: HW
HStem: -389 201<483.489 699.649> -28 20<349.838 415> 813 200<495.45 726> 1181 225<684 975>
VStem: 684 291<1181 1406> 726 254<-163.515 813>
LayerCount: 2
Fore
SplineSet
615 1406 m 1xf8
 906 1406 l 1
 906 1181 l 1
 615 1181 l 1
 615 1406 l 1xf8
EndSplineSet
Refer: 319 567 N 1 0 0 1 69 0 2
Validated: 1
EndChar

StartChar: k
Encoding: 107 107 11
Width: 1060
VWidth: -2
Flags: HW
HStem: 398 199<393.84 560.435> 813 204<506.154 679.449>
VStem: 144 249<0 398 617.945 719.977 898.492 1381.07> 689 255<609.816 804.907>
LayerCount: 2
Fore
SplineSet
393 0 m 1
 144 0 l 1
 144 1228 l 2
 144 1289 134 1342 121 1383 c 1
 365 1427 l 1
 374 1404 393 1359 393 1293 c 2
 393 1070 l 2
 393 1012 382 949 363 896 c 1
 363 896 480 1017 623 1017 c 0
 823 1017 944 929 944 734 c 0
 944 611 917 527 773 458 c 1
 876 422 905 348 937 242 c 0
 950 198 1000 161 1033 137 c 1
 841 -27 l 1
 711 23 677 129 641 255 c 0
 601 394 414 398 395 398 c 2
 393 398 l 1
 393 0 l 1
588 597 m 0
 678 597 689 657 689 730 c 0
 689 766 671 813 614 813 c 0
 541 813 393 685 393 685 c 1
 393 626 l 1
 409 623 549 597 588 597 c 0
EndSplineSet
Validated: 1
EndChar

StartChar: l
Encoding: 108 108 12
Width: 1060
VWidth: -2
Flags: HW
HStem: -18 200<617.352 873.717> 1230 200<123.45 354>
VStem: 354 256<191.813 1230>
LayerCount: 2
Fore
SplineSet
354 1430 m 2
 608 1430 l 1
 608 1157 610 274 610 274 c 2
 610 210 626 182 718 182 c 0
 811 182 871 215 931 273 c 1
 1028 83 l 1
 942 12 791 -18 667 -18 c 0
 582 -18 491 -4 447 20 c 0
 362 67 354 147 354 206 c 2
 354 1230 l 1
 305 1230 214 1224 119 1202 c 1
 90 1388 l 1
 184 1416 274 1430 354 1430 c 2
EndSplineSet
Validated: 1
EndChar

StartChar: m
Encoding: 109 109 13
Width: 1060
VWidth: 4
Flags: W
HStem: 810.7 204<345.517 426.413 658.222 747.292>
VStem: 83 217<0 764.896> 426 190<0 769.7> 746 207<146.36 806.971>
LayerCount: 2
Fore
SplineSet
950 -32 m 1
 879 -18 746 -7 746 189 c 2
 746 191 l 1
 748 755.7 l 1
 746 797.7 739 809.7 710 809.7 c 0
 688 809.7 630 743.7 616 687.7 c 1
 616 0 l 1
 426 0 l 1
 427 758.7 l 2
 427 795.7 425 810.7 398 810.7 c 0
 374 810.7 321 756 300 650 c 1
 300 0 l 1
 83 0 l 1
 81 800.7 l 2
 81 893.7 64 936.7 47 985.7 c 1
 241 1052.7 l 1
 256 1020.7 264 987.7 271 950.7 c 1
 300 988.7 357 1014.7 419 1014.7 c 0
 493 1014.7 545 981.7 575 919.7 c 1
 600 960.7 649 1014.7 740 1014.7 c 2
 748 1014.7 l 2
 791 1014.7 856 1005.7 899 945.7 c 0
 942 885.7 954 825.7 954 730.7 c 2
 953 215 l 2
 952.901 163.999 1003 135 1044 119 c 1
 950 -32 l 1
EndSplineSet
EndChar

StartChar: o
Encoding: 111 111 14
Width: 1060
VWidth: 6
Flags: HW
HStem: -6 203<410.251 620.825> 830 202<413 633.518>
VStem: 82 252<282.644 737.435> 695 256<277.821 760.797>
LayerCount: 2
Fore
SplineSet
517 -6 m 2
 207 -6 82 184 82 464 c 0
 82 835 223 1032 515 1032 c 0
 712 1032 822 963 892 831 c 0
 933 752 951 639 951 543 c 0
 951 258 855 -6 519 -6 c 2
 517 -6 l 2
635 247 m 1
 682 299 695 403 695 530 c 0
 695 536 695 540 695 546 c 0
 693 703 658 830 530 830 c 0
 379 830 334 690 334 482 c 0
 334 316 397 197 518 197 c 1
 573 198 599 211 635 247 c 1
EndSplineSet
Validated: 1
EndChar

StartChar: n
Encoding: 110 110 15
Width: 1060
VWidth: 6
Flags: HW
HStem: 819 207<449.788 640.643>
VStem: 110 252<0 737.647> 650 252<196.088 811.089>
LayerCount: 2
Fore
SplineSet
348 915.7 m 1
 404 965.7 500 1014.7 610 1014.7 c 0
 774 1014.7 902 948.7 902 784.7 c 2
 902 278 l 2
 902 212 952 190 1008 160 c 1
 892 -40 l 1
 770 -14 650.632 34.001 650 191 c 2
 648 687.7 l 2
 648 761.7 641 807.7 574 807.7 c 0
 511 807.7 446 769.7 361 695.7 c 1
 362 0 l 1
 110 0 l 1
 110 694.7 l 2
 110 872.7 102 898.7 78 992.7 c 1
 310 1040.7 l 1
 320 1016.7 341 964.7 348 915.7 c 1
EndSplineSet
EndChar

StartChar: q
Encoding: 113 113 16
Width: 1060
VWidth: -2
Flags: HW
HStem: -8 201<404.04 617.743> 811 200<383.786 603.396> 1002 20G<714.5 894.385>
VStem: 82 256<261.255 768.3> 680 247<-391.314 58.1272 255.451 730.944> 700 247<-394.792 47.5938 923.319 997.635>
LayerCount: 2
Fore
SplineSet
926 739 m 1xb4
 927 -146 l 1
 927 -175 l 2
 927 -260 928 -358 943 -393 c 1
 707 -423 l 1
 688 -371 680 -246 680 -152 c 2
 680 -61 l 1
 683 -17 689 20 693 60 c 1
 664 29 617 -8 517 -8 c 0
 155 -8 82 215 82 551 c 0
 82 819 173 1011 448 1011 c 0xd8
 560 1011 644 983 700 921 c 1
 704 960 710 998 719 1022 c 1
 947 996 l 1
 937 931 926 848 926 765 c 2
 926 739 l 1xb4
338 531 m 0
 338 264 397 193 512 193 c 0
 587 193 642 253 680 311 c 1
 681 656 l 1
 636 744 593 811 464 811 c 0
 376 811 338 724 338 531 c 0
EndSplineSet
Validated: 1
EndChar

StartChar: r
Encoding: 114 114 17
Width: 1060
VWidth: 4
Flags: HW
HStem: 836 203<582.571 729.445>
VStem: 184 252<0 657.599> 735 250<717 829.564>
LayerCount: 2
Fore
SplineSet
373 869 m 1
 448 967 551 1026 712 1026 c 0
 879 1026 985 924 985 734 c 2
 985 704 l 1
 732 702 l 1
 733 713 735 729 735 746 c 0
 735 783 725 823 669 823 c 0
 613 823 532 764 436 579 c 1
 436 0 l 1
 184 0 l 1
 184 709 l 2
 184 766 136 808 74 863 c 1
 222 1049 l 1
 283 1000 339 972 373 869 c 1
EndSplineSet
EndChar

StartChar: s
Encoding: 115 115 18
Width: 1060
VWidth: 6
Flags: HW
HStem: -20 202<359.399 627.558> 829 200<379.317 646.781>
VStem: 74 253<211.251 330> 122 254<700.474 817.573> 656 254<213.604 394.387>
LayerCount: 2
Fore
SplineSet
259 549 m 0xe8
 177 589 122 670 122 781 c 0
 122 967 312 1029 487 1029 c 0
 626 1029 779 1014 890 893 c 1
 713 730 l 1
 659 788 586 829 490 829 c 0
 408 829 376 807 376 768 c 0xd8
 376 739 382 719 410 701 c 1
 666 597 910 562 910 278 c 0
 910 116 766 28 659 0 c 1
 603 -13 543 -20 486 -20 c 0
 230 -20 74 115 74 330 c 1
 327 330 l 1
 327 222 375 182 484 182 c 0
 543 182 656 202 656 290 c 0
 656 349 635 382 586 415 c 1
 517 459 352 504 259 549 c 0xe8
EndSplineSet
Validated: 1
EndChar

StartChar: t
Encoding: 116 116 19
Width: 1060
VWidth: 0
Flags: HW
HStem: -6 202<482.235 770.078> 812 204<449 877>
VStem: 188 252<236.379 812 1020 1254>
LayerCount: 2
Fore
SplineSet
440 436 m 1
 440 396 l 2
 440 262 479 214 563 200 c 0
 581 198 615 196 628 196 c 0
 693 196 723 210 748 224 c 0
 800 252 811 320 818 340 c 1
 1026 240 l 1
 1016 212 962 100 850 36 c 0
 792 2 715 -6 630 -6 c 0
 446 -6 298 16 227 164 c 0
 192 236 188 312 188 398 c 2
 188 440 l 1
 190 530 192 648 197 812 c 1
 183 812 l 2
 155 812 127 808 101 800 c 1
 84 1004 l 1
 108 1012 153 1016 186 1016 c 2
 201 1016 l 1
 201 1086 202 1190 202 1260 c 1
 453 1254 l 1
 453 1188 452 1088 451 1020 c 1
 560 1020 872 1016 880 1016 c 1
 877 812 l 1
 740 812 582 814 449 814 c 1
 443 648 444 536 440 436 c 1
EndSplineSet
Validated: 1
EndChar

StartChar: u
Encoding: 117 117 20
Width: 1060
VWidth: 6
Flags: HW
HStem: -17 21G<859 906.628> 2 204<370.099 575.724> 1000 20G<154.857 343>
VStem: 105 245<220.841 876.355> 659 257<292.317 1000>
LayerCount: 2
Fore
SplineSet
891 -17 m 1xb8
 827 12 785 58 764 108 c 1
 689 31 562 5.48438 412 2.48438 c 5
 403 2.48438 l 6
 251 2.48438 65 53.4844 65 229.484 c 4
 65 311.484 66 408.484 66 504.484 c 4
 66 720.484 63 950.185 44 1007.18 c 5
 292 1035.18 l 5
 314 943.185 308 664.484 310 298.484 c 5
 322 231.484 341 206.484 426 206.484 c 5x78
 642 206.484 658.92 369.989 659 418 c 2
 660 1014.7 l 1
 917 1014.7 l 1
 916 306 l 1
 918 254 983 187 1034 166 c 1
 891 -17 l 1xb8
EndSplineSet
EndChar

StartChar: v
Encoding: 118 118 21
Width: 1060
VWidth: 6
Flags: HW
HStem: -8 21G<352 456> 996 20G<697 949.5>
VStem: 700 254<481.986 1016>
LayerCount: 2
Fore
SplineSet
226 1076 m 1
 396 793 480 508 548 251 c 1
 672 394 693 609 699 816 c 0
 700 835 700 860 700 885 c 0
 700 931 699 982 697 1016 c 1
 948 1016 l 1
 951 1000 954 880 954 822 c 0
 954 505 850 212 668 66 c 0
 597 9 560 -8 352 -8 c 1
 352 250 140 763 14 946 c 1
 226 1076 l 1
EndSplineSet
Validated: 1
EndChar

StartChar: w
Encoding: 119 119 22
Width: 1060
VWidth: 4
Flags: W
HStem: 0 214<309.5 419.471 656.5 753.164>
VStem: 114 214.5<211.568 826.722> 475 188.5<268.813 835> 816.5 198.5<287.858 1014.7>
LayerCount: 2
Fore
SplineSet
27 984 m 1
 258 1079 l 1
 322 911 327.5 664 328.5 492 c 0
 328.5 481 328.5 471 328.5 461 c 0
 328.5 367 320.5 242 309.5 210 c 5
 429.5 214 475 299 475 463 c 2
 475 835 l 1
 658.5 836 l 1
 658.5 836 663.5 758 663.5 593 c 0
 663.5 497 661.5 371 656.5 214 c 1
 658.5 214 659.5 214 661.5 214 c 0
 800.5 214 816.5 352 816.5 797.7 c 0
 816.5 869.7 803.5 1014.7 803.5 1014.7 c 1
 1013 1014.7 l 1
 1015 982.7 1015 938.7 1015 894.7 c 0
 1015 864.7 1015 834.7 1015 807.7 c 0
 1015 654.7 1014 468 973 279 c 0
 937 115 809 0 590 0 c 2
 556 0 l 1
 556 0 538 66 532 153 c 1
 498 81 402 -12 205 -12 c 2
 199 -12 l 1
 153 -11 129 3 115 9 c 1
 113 23 113 47 113 78 c 0
 113 128 114 198 114 278 c 0
 114 445 108 659 73 835 c 0
 62 889 50 943 27 984 c 1
EndSplineSet
EndChar

StartChar: x
Encoding: 120 120 23
Width: 1060
VWidth: 4
Flags: HW
HStem: -4 229<867.491 990>
VStem: 746 238<908.169 1038>
LayerCount: 2
Fore
SplineSet
936.5 839.7 m 0
 896.5 751.7 758 600 668 514 c 1
 748 411 872 256 894 243 c 0
 898 240 906 225 940 225 c 0
 958 225 976 228 992 231 c 1
 990 2 l 1
 972 -1 948 -4 930 -4 c 0
 888 -4 830 6 790 34 c 1
 718 81 612 213 526 331 c 1
 194 -42 l 1
 24 119 l 1
 388 523 l 1
 62 929 l 1
 244 1070 l 1
 534 683 l 1
 594 751 634.5 777.7 704.5 900.7 c 0
 724.5 935.7 734.5 997.7 738.5 1014.7 c 1
 976.5 1013.7 l 1
 970.5 964.7 960.5 893.7 936.5 839.7 c 0
EndSplineSet
EndChar

StartChar: y
Encoding: 121 121 24
Width: 1060
VWidth: 14
Flags: HW
HStem: -376 202<178.108 383.529> 727 315<32.4717 149.269>
VStem: 16 251<-163.866 0> 691 253<535.75 1043>
LayerCount: 2
Fore
SplineSet
327 -174 m 0
 381 -174 470 6 490 100 c 1
 488 250 180.5 698.7 75.5 698.7 c 0
 55.5 698.7 41.5 698.7 31.5 697.7 c 1
 29.5 1012.7 l 1
 29.5 1012.7 89.5 1013.7 123.5 1013.7 c 0
 244.5 1013.7 598 535 620 406 c 1
 694 623 682.5 787.7 690.5 1014.7 c 1
 946.5 1014.7 l 1
 946.5 954.7 946.5 892.7 943.5 840.7 c 0
 925.5 460.7 793 112 621 -174 c 0
 546 -298 445 -376 286 -376 c 0
 73 -376 21 -173 16 0 c 1
 267 0 l 1
 270 -85 278 -174 327 -174 c 0
EndSplineSet
EndChar

StartChar: z
Encoding: 122 122 25
Width: 1060
VWidth: 6
Flags: HW
HStem: -9 21G<848.5 875.56> -9 21G<848.5 875.56> 13 203<412 868.911> 803 208<134 610>
LayerCount: 2
Fore
SplineSet
103 815 m 1xb0
 134 1017 l 1
 180 1012 291 1011 415 1011 c 0
 601 1011 817 1014 887 1016 c 1
 964 826 l 1
 931 793 464 397 412 210 c 1
 746 216 l 2
 748 216 750 216 752 216 c 0
 806 216 856 203 915 184 c 1
 871 -9 l 1
 826 4 809 13 744 13 c 2
 81 13 l 1
 81 33 l 2
 81 106 86 156 103 202 c 0
 182 416 410 642 610 806 c 1
 542 805 509 803 408 803 c 0
 283 803 160 806 103 815 c 1xb0
EndSplineSet
Validated: 1
EndChar

StartChar: A
Encoding: 65 65 26
Width: 1060
VWidth: 0
Flags: HW
HStem: -10 21G<151.471 261.246> -5 21G<151.471 261.246 785.341 897.667> 306 243<400.988 659>
LayerCount: 2
Fore
SplineSet
430 1444 m 1xa0
 665 1444 l 1
 1063 46 l 1
 791 -5 l 1x60
 703 306 l 1
 543 303 470 308 344 275 c 1
 255 -10 l 1
 -9 41 l 1
 430 1444 l 1xa0
659 549 m 1
 632 705 543 920 542 1088 c 1
 536 905 438 682 398 530 c 1
 461 544 572 544 659 549 c 1
EndSplineSet
Validated: 1
EndChar

StartChar: B
Encoding: 66 66 27
Width: 1060
VWidth: 0
Flags: HW
HStem: 0 216<319 653.254> 693 216<325 505.208> 1224 220<324.666 523.065>
VStem: 60 266<212.905 693 909 1217.22> 549 271<955.769 1198> 738 271<306.217 614.669>
LayerCount: 2
Fore
SplineSet
494 695 m 0xf4
 443 695 446 693 369 693 c 2
 322 693 l 1
 320 429 320 301 319 216 c 1
 370 213 411 210 451 210 c 0
 483 210 514 212 551 216 c 0
 585 220 738 260 738 458 c 0
 738 645 620 695 494 695 c 0xf4
549 1103 m 2xf8
 549 1221 458 1224 434 1224 c 2
 430 1224 l 1
 413 1224 l 2
 372 1224 354 1222 322 1219 c 1
 325 1181 326 1139 326 1094 c 0
 326 1035 325 972 325 909 c 1
 337 909 350 909 365 909 c 0
 442 909 549 922 549 1094 c 2
 549 1103 l 2xf8
60 912 m 0
 60 1105 57 1284 48 1426 c 1
 133 1433 281 1444 400 1444 c 0
 406 1444 413 1444 419 1444 c 0
 652 1444 820 1345 820 1105 c 0xf8
 820 948 765 898 686 853 c 1
 857 804 1009 691 1009 445 c 0xf4
 1009 116 823 25 648 3 c 0
 607 -2 564 -5 523 -5 c 0
 445 -5 385 0 296 0 c 0
 283 0 271 0 256 0 c 2
 52 0 l 1
 52 216 60 450 60 912 c 0
EndSplineSet
Validated: 1
EndChar

StartChar: C
Encoding: 67 67 28
Width: 1060
VWidth: 0
Flags: HW
HStem: -3 219<460.508 703.585> 1230 222<476.995 707.171>
VStem: 50 275<408.633 1010.91>
LayerCount: 2
Fore
SplineSet
585 1230 m 0
 464 1230 325 1082 325 685 c 0
 325 386 447 216 558 216 c 2
 573 216 l 2
 703 216 743 285 793 427 c 1
 1052 278 l 1
 974 106 795 -3 595 -3 c 2
 592 -3 l 2
 475 -3 337 24 238 126 c 1
 112 262 50 444 50 693 c 0
 50 975 134 1149 189 1234 c 0
 265 1352 408 1452 592 1452 c 0
 739 1452 922 1384 1014 1207 c 1
 770 1070 l 1
 718 1205 675 1230 585 1230 c 0
EndSplineSet
Validated: 1
EndChar

StartChar: D
Encoding: 68 68 29
Width: 1060
VWidth: 0
Flags: HW
HStem: -11 223<331 595.657> 1228 222<336 547.506>
VStem: 71 265<216 1225.18> 728 280<352.904 951.789>
LayerCount: 2
Fore
SplineSet
64 140 m 1
 64 200 71 632 71 982 c 2
 71 1065 l 2
 71 1206 66 1340 57 1436 c 1
 142 1445 189 1450 293 1450 c 0
 578 1450 742 1361 871 1162 c 1
 959 1024 1008 829 1008 632 c 0
 1008 557 1000 482 986 410 c 0
 936 147 767 16 578 -3 c 0
 520 -8 467 -11 409 -11 c 0
 321 -11 181 -3 61 -3 c 1
 61 34 61 33 64 140 c 1
414 1228 m 2
 383 1228 l 2
 366 1228 354 1228 336 1225 c 1
 336 1216 336 1205 336 1195 c 0
 336 1174 336 1153 336 1130 c 0
 336 1061 336 1039 336 964 c 0
 336 630 332 323 331 216 c 1
 423 213 372 212 435 212 c 2
 438 212 l 2
 480 212 631 215 700 385 c 0
 720 434 728 533 728 593 c 0
 728 1008 617 1228 414 1228 c 2
EndSplineSet
Validated: 1
EndChar

StartChar: E
Encoding: 69 69 30
Width: 1060
VWidth: 0
Flags: HW
HStem: -3 222<367 934.948> 704 221<369 724> 1219 223<369 924>
VStem: 98 271<219 704 925 1219>
LayerCount: 2
Fore
SplineSet
98 1438 m 1
 157 1442 230 1442 312 1442 c 0
 345 1442 379 1442 415 1442 c 2
 531 1442 l 2
 687 1442 830 1439 908 1439 c 2
 924 1439 l 1
 924 1219 l 1
 369 1219 l 1
 369 925 l 1
 724 925 l 1
 724 704 l 1
 369 704 l 1
 369 670 l 2
 369 444 367 305 367 219 c 1
 804 221 l 2
 863 221 935 251 935 251 c 1
 1011 34 l 1
 961 20 917 -3 814 -3 c 2
 98 -3 l 1
 98 1438 l 1
EndSplineSet
Validated: 1
EndChar

StartChar: F
Encoding: 70 70 31
Width: 1060
VWidth: 0
Flags: HW
HStem: 700 235<387 734.162> 1215 228<387 938.737>
VStem: 113 274<3 698 933 1214>
LayerCount: 2
Fore
SplineSet
392 0 m 1
 113 3 l 1
 113 1443 l 1
 832 1443 l 2
 939 1443 986 1425 1022 1406 c 1
 940 1185 l 1
 913 1200 890 1214 787 1215 c 1
 713 1215 l 2
 604 1215 579 1215 387 1214 c 1
 387 933 l 1
 513 933 473 935 601 935 c 0
 695 935 766 916 808 896 c 1
 736 676 l 1
 697 695 645 700 598 700 c 0
 554 700 530 700 509 700 c 0
 477 700 455 700 387 698 c 1
 387 564 392 104 392 0 c 1
EndSplineSet
Validated: 1
EndChar

StartChar: G
Encoding: 71 71 32
Width: 1060
VWidth: 0
Flags: HW
HStem: -9 225<421.726 667.482> 618 226<451.39 755> 1222 226<438.283 709.422>
VStem: 12 274<389.112 1004.99> 755 277<328.141 619>
LayerCount: 2
Fore
SplineSet
895 841 m 0
 943 841 988 845 1032 849 c 1
 1032 639 l 2
 1032 155 904 54 717 3 c 1
 670 -8 602 -9 558 -9 c 0
 176 -9 12 312 12 699 c 0
 12 963 67 1177 205 1319 c 1
 310 1417 430 1448 551 1448 c 2
 572 1448 l 1
 797 1443 951 1348 1030 1167 c 1
 785 1041 l 1
 747 1170 697 1222 558 1222 c 0
 382 1222 286 1002 286 687 c 0
 286 399 367 216 548 216 c 0
 729 216 755 408 755 619 c 1
 688 618 l 1
 613 618 541 613 447 576 c 1
 405 797 l 1
 506 837 615 844 721 844 c 0
 780 844 838 841 895 841 c 0
EndSplineSet
Validated: 1
EndChar

StartChar: H
Encoding: 72 72 33
Width: 1060
VWidth: 0
Flags: HW
HStem: 653 234<328.771 700>
VStem: 54 269<0 630.414 856 1439> 700 268<0 653 887 1436>
LayerCount: 2
Fore
SplineSet
324 1441 m 1
 323 856 l 1
 420 879 482 887 608 887 c 2
 700 887 l 1
 700 1192 699 1256 699 1436 c 1
 968 1436 l 1
 968 0 l 1
 700 0 l 1
 700 653 l 1
 666 653 l 2
 513 653 447 649 323 621 c 1
 323 239 325 202 325 0 c 1
 54 0 l 1
 54 1439 l 1
 324 1441 l 1
EndSplineSet
Validated: 1
EndChar

StartChar: K
Encoding: 75 75 34
Width: 1060
VWidth: 0
Flags: HW
HStem: -5 21G<79 350> 1435 20G<79 350>
VStem: 79 271<-5 563.372 949 1455>
LayerCount: 2
Fore
SplineSet
608 852 m 1
 734 722 1035 252 1089 102 c 1
 842 -35 l 1
 794 86 577 485 440 626 c 1
 440 626 382 558 350 480 c 1
 350 -5 l 1
 79 -5 l 1
 79 1455 l 1
 350 1455 l 1
 350 949 l 1
 458 1107 798 1460 837 1500 c 1
 1043 1307 l 1
 852 1160 671 933 608 852 c 1
EndSplineSet
Validated: 1
EndChar

StartChar: L
Encoding: 76 76 35
Width: 1060
VWidth: 0
Flags: HW
HStem: -3 229<423 989.868>
VStem: 156 267<226 1444>
LayerCount: 2
Fore
SplineSet
156 -3 m 1
 156 1444 l 1
 423 1444 l 1
 423 226 l 1
 872 226 l 1
 934 229 946 233 992 249 c 1
 1067 34 l 1
 1018 17 953 -3 874 -3 c 2
 156 -3 l 1
EndSplineSet
Validated: 1
EndChar

StartChar: M
Encoding: 77 77 36
Width: 1060
VWidth: 32
Flags: HW
HStem: -5 21G<56 318 726.939 986>
VStem: 56 262<-5 951.87> 727 259<-5 951.863>
LayerCount: 2
Fore
SplineSet
56 1409 m 1
 270 1437 l 1
 350 1313 453 1112 518 909 c 1
 575 1107 673 1294 758 1439 c 1
 984 1417 l 1
 984 983 986 -5 986 -5 c 1
 727 -5 l 1
 725 650 l 2
 725 763 751 952 751 952 c 1
 685 818 612 641 600 601 c 1
 442 598 l 1
 442 598 335 864 285 952 c 1
 285 952 318 773 318 650 c 2
 318 -7 l 1
 56 -5 l 1
 56 1409 l 1
EndSplineSet
Validated: 1
EndChar

StartChar: N
Encoding: 78 78 37
Width: 1060
VWidth: 0
Flags: HW
HStem: -3 21G<70 328> 1429 20G<722.5 983>
VStem: 70 257<-3 848> 722 257<0 107.6 549 1448>
LayerCount: 2
Fore
SplineSet
717 0 m 1
 623 282 468 609 327 848 c 1
 327 621 l 2
 327 295 328 166 328 -3 c 1
 70 -3 l 1
 70 1444 l 1
 291 1437 l 1
 423 1232 670 804 722 549 c 1
 714 848 l 1
 714 1055 718 1259 727 1449 c 1
 983 1448 l 1
 977 1323 975 1157 975 976 c 0
 975 724 979 441 979 185 c 0
 979 122 978 59 978 0 c 1
 717 0 l 1
EndSplineSet
Validated: 1
EndChar

StartChar: O
Encoding: 79 79 38
Width: 1060
VWidth: 0
Flags: HW
HStem: -17 221<401.248 637.167> 1250 221<421.447 638.273>
VStem: 12 273<360.807 1033.6> 763 270<385.869 1052.82>
LayerCount: 2
Fore
SplineSet
351 310 m 0
 390 245 443 204 527 204 c 0
 617 204 672 271 707 355 c 1
 738 419 762 590 763 698 c 1
 763 716 l 2
 763 833 748 987 707 1092 c 0
 662 1208 607 1250 539 1250 c 0
 465 1250 422 1223 377 1146 c 0
 324 1056 285 910 285 645 c 0
 285 539 308 383 351 310 c 0
539 1471 m 1
 708 1471 1028 1392 1033 705 c 1
 1033 693 l 2
 1033 511 986 341 936 237 c 1
 857 77 699 -17 526 -17 c 0
 398 -17 242 27 157 138 c 0
 63 260 12 430 12 631 c 0
 12 1015 91 1188 165 1294 c 0
 234 1394 375 1468 539 1471 c 1
EndSplineSet
Validated: 1
EndChar

StartChar: P
Encoding: 80 80 39
Width: 1060
VWidth: 0
Flags: HW
HStem: -11 21G<100 362> -11 21G<100 362> 479 227<362 647.331> 1218 230<365 680.936>
VStem: 100 262<-10 482 707 1212> 741 275<803.54 1159.38>
LayerCount: 2
Fore
SplineSet
362 -11 m 1xbc
 100 -10 l 1
 100 1439 l 1
 224 1439 264 1448 404 1448 c 0
 640 1448 819 1434 940 1280 c 0
 997 1208 1016 1107 1016 1007 c 0
 1016 654 885 479 524 479 c 0
 474 479 419 480 362 482 c 1
 362 190 362 162 362 -11 c 1xbc
741 991 m 0
 741 1213 618 1218 532 1218 c 2
 522 1218 l 2
 458 1218 412 1213 365 1212 c 1
 365 1135 l 2
 365 931 362 707 362 707 c 1
 400 706 437 706 472 706 c 0
 594 706 741 737 741 991 c 0
EndSplineSet
Validated: 1
EndChar

StartChar: Q
Encoding: 81 81 40
Width: 1060
VWidth: 0
Flags: HW
HStem: -199 235<810.726 1013> -3 219<405.903 584.152> 348 217<391.561 563.883> 1215 235<405.38 620.023>
VStem: 44 256<453.189 1070.27> 729 251<434.7 1070.98>
LayerCount: 2
Fore
SplineSet
585 230 m 1x7c
 585 230 585 233 585 234 c 0
 585 271 562 348 488 348 c 0
 454 348 412 335 384 294 c 1
 400 237 466 216 506 216 c 0
 513 216 518 216 523 216 c 0
 543 216 567 220 585 230 c 1x7c
503 565 m 0
 613 565 668 479 703 427 c 1
 719 471 729 586 729 744 c 0
 729 753 729 761 729 770 c 0
 729 871 727 983 678 1091 c 0
 643 1166 584 1215 508 1215 c 0
 373 1215 300 1052 300 770 c 0
 300 748 300 723 300 698 c 0
 300 609 302 506 325 447 c 1
 354 519 432 565 503 565 c 0
926 -199 m 0xbc
 805 -199 637 -133 610 9 c 1
 580 0 559 -3 517 -3 c 0x7c
 395 -3 282 44 199 134 c 1
 94 250 44 454 44 700 c 0
 44 930 74 1143 174 1279 c 0
 272 1412 375 1450 504 1450 c 0
 679 1450 802 1379 885 1222 c 0
 975 1052 980 878 980 755 c 0
 980 515 941 235 800 126 c 1
 812 45 829 37 913 36 c 1
 924 36 l 2
 963 36 988 41 1013 48 c 1
 1014 -193 l 1
 991 -198 973 -199 926 -199 c 0xbc
EndSplineSet
Validated: 1
EndChar

StartChar: R
Encoding: 82 82 41
Width: 1060
VWidth: 0
Flags: HW
HStem: 1225 223<341 629.46>
VStem: 86 257<0 608 819.744 1224> 732 275<844.508 1135.56>
LayerCount: 2
Fore
SplineSet
732 988 m 0
 732 1173 611 1225 407 1225 c 0
 380 1225 371 1225 341 1224 c 1
 343 837 l 1
 410 808 470 791 515 791 c 0
 518 791 520 791 523 791 c 0
 701 791 732 877 732 988 c 0
724 589 m 1
 806 454 910 298 969 226 c 1
 988 209 1038 169 1082 157 c 1
 951 -61 l 1
 890 -51 827 3 791 50 c 1
 689 169 523 473 464 578 c 1
 426 581 389 588 343 608 c 1
 344 0 l 1
 86 0 l 1
 86 1238 l 2
 86 1312 84 1364 80 1432 c 1
 124 1436 245 1448 309 1448 c 0
 572 1448 802 1440 930 1273 c 0
 980 1208 1007 1106 1007 1012 c 0
 1007 768 909 622 724 589 c 1
EndSplineSet
Validated: 1
EndChar

StartChar: S
Encoding: 83 83 42
Width: 1060
VWidth: 0
Flags: HW
HStem: -10 228<375.581 675.597> 1219 229<365.762 619.287>
VStem: 19 279<293.283 458> 45 281<990.329 1182.54> 744 271<280.731 550.051>
LayerCount: 2
Fore
SplineSet
234 765 m 0xe8
 119 819 45 920 45 1097 c 0
 45 1337 216 1448 484 1448 c 0
 487 1448 491 1448 494 1448 c 0
 746 1448 952 1358 999 1175 c 1
 712 1064 l 1
 664 1174 574 1219 500 1219 c 0
 410 1219 326 1179 326 1105 c 0xd8
 326 998 385 972 446 948 c 0
 575 896 649 886 788 820 c 1
 901 762 1015 648 1015 432 c 0
 1015 105 790 -10 538 -10 c 2
 518 -10 l 1
 147 0 19 211 19 460 c 1
 298 458 l 1
 298 302 363 218 523 218 c 0
 636 218 744 257 744 416 c 0
 744 535 669 596 586 634 c 0
 464 690 374 699 234 765 c 0xe8
EndSplineSet
Validated: 1
EndChar

StartChar: T
Encoding: 84 84 43
Width: 1060
VWidth: 0
Flags: HW
HStem: -10 21G<364 637> -10 21G<364 637> 1219 226<32 364 637 945.961>
VStem: 364 273<-10 1219>
LayerCount: 2
Fore
SplineSet
364 -10 m 1xb0
 364 1219 l 1
 156 1219 112 1218 32 1218 c 1
 32 1443 l 1
 160 1443 637 1445 834 1445 c 0
 911 1445 985 1435 1010 1427 c 1
 946 1206 l 1
 946 1206 892 1219 829 1219 c 2
 637 1219 l 1
 637 -10 l 1
 364 -10 l 1xb0
EndSplineSet
Validated: 1
EndChar

StartChar: U
Encoding: 85 85 44
Width: 1060
VWidth: 0
Flags: HW
HStem: -11 229<406.729 621.589> 1449 3G<61 335 722 898.613>
VStem: 62 265<317.26 1449> 719 269<342.441 1442.11>
LayerCount: 2
Fore
SplineSet
727 1472 m 1
 993 1441 l 1
 986 1387 984 1349 984 1303 c 0
 984 1293 984 1282 984 1271 c 0
 984 1110 988 968 988 845 c 2
 988 780 l 2
 988 522 983 276 865 132 c 0
 779 26 643 -6 508 -11 c 1
 185 -11 81 173 62 497 c 0
 57 581 55 717 55 867 c 0
 55 1058 58 1274 64 1449 c 1
 335 1449 l 1
 331 1266 327 1016 327 810 c 0
 327 756 327 703 327 656 c 0
 327 586 328 528 333 488 c 0
 348 386 359 222 506 218 c 1
 716 228 719 470 719 783 c 0
 719 920 713 1082 713 1271 c 0
 713 1349 717 1403 727 1472 c 1
EndSplineSet
Validated: 1
EndChar

StartChar: V
Encoding: 86 86 45
Width: 1060
VWidth: 0
Flags: HW
HStem: -4 21G<367.5 694> 1449 20G<771 879.349>
VStem: 380 314<0 202.361>
LayerCount: 2
Fore
SplineSet
380 -4 m 1
 355 210 94 1131 -5 1380 c 1
 243 1477 l 1
 349 1197 438 771 541 361 c 1
 619 710 718 1193 824 1469 c 1
 1062 1383 l 1
 959 1126 713 222 694 0 c 1
 380 -4 l 1
EndSplineSet
Validated: 1
EndChar

StartChar: W
Encoding: 87 87 46
Width: 1060
VWidth: 0
Flags: HW
HStem: 1442 20G<96.625 264.5 796.5 928.381>
VStem: 423 206<779.966 1077> 625 268<0 266.484>
LayerCount: 2
Fore
SplineSet
406 0 m 1xa0
 140 0 l 1
 95 189 52 1151 4 1430 c 1
 251 1462 l 1
 278 1252 284 1145 284 1075 c 0
 284 1034 282 1005 282 974 c 0
 282 503 284 472 316 343 c 1
 316 343 417 999 423 1077 c 1
 445 1077 478 1074 513 1074 c 0
 554 1074 599 1078 629 1094 c 1xc0
 667 881 723 348 723 348 c 1
 756 447 761 527 761 982 c 0
 761 1100 777 1258 816 1464 c 1
 1052 1422 l 1
 997 1143 928 198 893 0 c 1
 625 0 l 1
 625 0 558 433 524 638 c 1
 475 387 411 13 406 0 c 1xa0
EndSplineSet
Validated: 1
EndChar

StartChar: X
Encoding: 88 88 47
Width: 1060
VWidth: 0
Flags: HW
LayerCount: 2
Fore
SplineSet
825 1490 m 1
 1026 1364 l 1
 674 756 l 1
 854 460 903 281 1052 128 c 1
 875 -49 l 1
 715 114 691 226 531 495 c 1
 232 -59 l 1
 12 85 l 1
 375 730 l 1
 249 957 138 1155 -9 1328 c 1
 195 1500 l 1
 332 1338 418 1165 526 974 c 1
 825 1490 l 1
EndSplineSet
Validated: 1
EndChar

StartChar: Y
Encoding: 89 89 48
Width: 1060
VWidth: 0
Flags: HW
HStem: -7 21G<377 639>
VStem: 377 262<-7 710.005>
LayerCount: 2
Fore
SplineSet
377 -7 m 1
 377 150 l 2
 377 250 385 536 385 668 c 1
 302 791 60 1214 6 1332 c 1
 236 1486 l 1
 278 1400 437 1082 528 929 c 1
 631 1084 753 1403 793 1500 c 1
 1033 1352 l 1
 984 1247 721 765 647 656 c 1
 647 604 645 550 645 490 c 1
 642 343 639 187 639 140 c 2
 639 -7 l 1
 377 -7 l 1
EndSplineSet
Validated: 1
EndChar

StartChar: Z
Encoding: 90 90 49
Width: 1060
VWidth: 0
Flags: HW
HStem: -3 240<407 960.841> 1220 228<84 697>
LayerCount: 2
Fore
SplineSet
120 -5 m 1
 20 148 l 1
 697 1220 l 1
 472 1220 204 1214 84 1214 c 1
 83 1443 l 1
 209 1443 653 1448 850 1448 c 0
 929 1448 977 1433 997 1430 c 1
 997 1428 997 1425 997 1422 c 0
 997 1379 1014 1264 1014 1227 c 0
 1014 1224 1014 1221 1014 1219 c 1
 407 237 l 1
 778 235 l 2
 867 235 896 241 964 264 c 1
 1039 29 l 1
 992 12 919 -3 840 -3 c 2
 585 -3 l 2
 362 -3 178 -5 128 -5 c 2
 120 -5 l 1
EndSplineSet
Validated: 1
EndChar

StartChar: I
Encoding: 73 73 50
Width: 1060
VWidth: 0
Flags: HW
HStem: 5 234<132 375 644 881> 1212 231<136 375 644 886>
VStem: 375 269<239 1220>
LayerCount: 2
Fore
SplineSet
130 1443 m 1
 294 1447 399 1449 500 1449 c 0
 610 1449 716 1447 887 1445 c 1
 886 1215 l 1
 757 1215 744 1221 644 1221 c 1
 644 239 l 1
 692 239 676 239 730 239 c 0
 777 239 826 238 881 235 c 1
 882 -1 l 1
 793 4 728 5 662 5 c 0
 613 5 561 4 499 4 c 0
 421 4 295 -3 132 -3 c 1
 132 232 l 1
 221 236 261 238 321 238 c 2
 375 238 l 1
 375 1220 l 1
 306 1219 247 1219 136 1212 c 1
 130 1443 l 1
EndSplineSet
Validated: 1
EndChar

StartChar: J
Encoding: 74 74 51
Width: 1060
VWidth: 0
Flags: HW
HStem: -9 231<345.058 508.304> 1208 235<303.302 564.127 840 992>
VStem: 14 273<286.725 473> 592 273<329.991 1199.77>
LayerCount: 2
Fore
SplineSet
426 -9 m 0
 137 -9 16 234 14 474 c 1
 287 473 l 1
 293 306 350 222 419 222 c 0
 543 222 592 362 592 732 c 0
 592 838 574 1053 561 1206 c 1
 510 1206 491 1208 452 1208 c 1
 343 1205 330 1195 302 1188 c 1
 263 1419 l 1
 295 1427 327 1440 451 1443 c 1
 603 1443 831 1442 995 1442 c 1
 992 1206 l 1
 942 1206 892 1210 840 1210 c 1
 857 1012 865 854 865 717 c 0
 865 324 772 -9 426 -9 c 0
EndSplineSet
Validated: 1
EndChar

StartChar: zero
Encoding: 48 48 52
Width: 1060
VWidth: 0
Flags: HW
HStem: -18 223<436.832 605.12> 1182 221<469.971 618.141>
VStem: 89 273<622.588 994.676> 704 272<361.245 776.746>
LayerCount: 2
Fore
SplineSet
189 1164 m 1
 251 1300 356 1403 542 1403 c 0
 719 1403 807 1312 872 1186 c 1
 938 1064 976 898 976 706 c 0
 976 514 940 341 877 210 c 1
 812 81 728 -18 539 -18 c 0
 356 -18 259 60 193 181 c 0
 127 302 89 466 89 659 c 0
 89 855 124 1030 189 1164 c 1
703 777 m 1
 395 355 l 1
 423 253 447 205 525 205 c 0
 659 205 704 473 704 724 c 0
 704 754 703 777 703 777 c 1
364 622 m 1
 664 1038 l 1
 631 1145 589 1182 540 1182 c 0
 424 1182 362 871 362 675 c 0
 362 650 364 622 364 622 c 1
EndSplineSet
Validated: 1
EndChar

StartChar: period
Encoding: 46 46 53
Width: 1060
VWidth: 26
Flags: HW
HStem: 0 313<354 669>
VStem: 354 315<0 313>
LayerCount: 2
Fore
SplineSet
354 313 m 1
 669 313 l 1
 669 0 l 1
 354 0 l 1
 354 313 l 1
EndSplineSet
Validated: 1
EndChar

StartChar: comma
Encoding: 44 44 54
Width: 1060
VWidth: 26
Flags: HW
VStem: 346 323<5 309> 459 210<-166.501 6>
LayerCount: 2
Fore
SplineSet
342 309 m 1x80
 668 311 l 1
 669 11 l 1
 669 8 l 2x80
 669 -189 582 -358 415 -434 c 1
 317 -253 l 1
 409 -202 459 -132 459 6 c 1x40
 346 5 l 1
 342 309 l 1x80
EndSplineSet
Validated: 1
EndChar

StartChar: ae
Encoding: 230 230 65
Width: 1060
VWidth: 6
Flags: HW
HStem: 0 208<665.512 803.522> 4 158<283.037 399.008> 447 207<658 799.924> 508 153<289.122 426.124> 808 210<233.801 406.892 668.059 780.841>
VStem: 33 233<170.1 501.996> 428 230<213.337 447 654 789.913> 802 206<212.611 223.376 656.086 792.79>
LayerCount: 2
Fore
SplineSet
732 0 m 0xaf
 574 0 536 75 515 97 c 1
 485 63 425 4 322 4 c 0
 259 4 194 19 140 57 c 0
 59 114 33 211 33 309 c 0
 33 476 97 661 301 661 c 0x5f
 378 661 390 645 428 629 c 1
 428 726 423 808 317 808 c 2
 308 808 l 2
 255 808 237 788 208 702 c 1
 10 784 l 1
 80 970 192 1018 310 1018 c 0
 366 1018 412 1015 473 968 c 1
 492 952 511 928 523 909 c 1
 540 935 599 1018 701 1018 c 0
 902 1018 1000 796 1008 570 c 1
 1008 454 l 1
 910 450 772 447 690 447 c 0
 678 447 667 447 658 447 c 1
 656 274 l 1
 672 232 683 208 722 208 c 0
 797 208 810 244 816 290 c 1
 1006 218 l 1
 1006 218 957 0 732 0 c 0xaf
266 322 m 0
 266 214 294 162 332 162 c 0
 422 162 417 299 428 327 c 1
 428 474 l 1
 385 499 378 508 324 508 c 0
 291 508 266 423 266 322 c 0
658 675 m 2
 658 654 l 1x2f
 696 654 758 654 802 660 c 1
 796 764 771 808 712 808 c 0
 672 808 658 760 658 675 c 2
EndSplineSet
Validated: 1
EndChar

StartChar: exclam
Encoding: 33 33 68
Width: 1060
VWidth: 0
Flags: HW
HStem: 0 270<370 720>
VStem: 370 350<0 270> 387 315<558.848 1376> 403 283<464 1280.94>
LayerCount: 2
Fore
SplineSet
370 270 m 1xc0
 720 270 l 1
 720 0 l 1
 370 0 l 1
 370 270 l 1xc0
702 1376 m 1xa0
 686 464 l 1
 403 462 l 1x90
 387 1376 l 1
 702 1376 l 1xa0
EndSplineSet
Validated: 1
EndChar

StartChar: quotesingle
Encoding: 39 39 70
Width: 1060
VWidth: -25
Flags: HW
HStem: 1449 20G<548 720.5>
VStem: 559 323<1245.05 1430.78>
LayerCount: 2
Fore
SplineSet
559 1469 m 1
 882 1429 l 1
 857 1076 641 844 473 742 c 1
 341 915 l 1
 445 1033 537 1222 559 1469 c 1
EndSplineSet
Validated: 1
EndChar

StartChar: Aring
Encoding: 197 197 76
Width: 1060
VWidth: -8
Flags: HW
HStem: 306 243<400.988 659> 1607 142<465.983 628.971>
VStem: 272 189<1490.24 1598.35> 633 190<1489.66 1598.35>
LayerCount: 2
Fore
SplineSet
547 1607 m 0
 494 1607 461 1576 461 1545 c 0
 461 1514 495 1482 547 1482 c 0
 599 1482 633 1514 633 1545 c 0
 633 1576 600 1607 547 1607 c 0
272 1545 m 0
 272 1661 400 1749 548 1749 c 0
 696 1749 823 1661 823 1545 c 0
 823 1467 769 1405 685 1373 c 1
 1063 46 l 1
 791 -23 l 1
 703 306 l 1
 543 303 470 308 344 275 c 1
 247 -29 l 1
 -9 41 l 1
 408 1375 l 1
 326 1407 272 1469 272 1545 c 0
659 549 m 1
 632 705 543 920 542 1088 c 1
 536 905 438 682 398 530 c 1
 461 544 572 544 659 549 c 1
EndSplineSet
Validated: 1
EndChar

StartChar: ccedilla
Encoding: 231 231 81
Width: 1060
VWidth: 12
Flags: HW
HStem: -431 172<403.653 616.298> -152 356<440.465 615.662> 807 211<433.703 701.653>
VStem: 81 256<305.887 702.322> 619 224<-252.692 -158.173>
LayerCount: 2
Fore
SplineSet
337 528 m 0
 337 209 505 204 552 204 c 2
 564 204 l 2
 664 204 718 269 766 350 c 1
 992 216 l 1
 934 87 828 15 661 -3 c 1
 661 -24 660 -51 660 -53 c 1
 757 -58 843 -115 843 -229 c 0
 843 -359 729 -431 571 -431 c 0
 505 -431 413 -413 357 -377 c 1
 417 -230 l 1
 450 -248 495 -259 546 -259 c 0
 582 -259 616 -248 619 -210 c 1
 619 -208 l 2
 619 -179 596 -152 548 -152 c 0
 500 -152 467 -155 439 -165 c 1
 439 1 l 1
 373 10 307 31 251 73 c 1
 121 174 81 328 81 527 c 0
 81 867 259 1018 574 1018 c 0
 669 1018 766 999 829 957 c 0
 889 917 935 858 957 806 c 1
 737 704 l 1
 727 742 696 807 556 807 c 0
 409 807 337 671 337 528 c 0
EndSplineSet
Validated: 1
EndChar

StartChar: AE
Encoding: 198 198 82
Width: 1060
VWidth: 0
Flags: HW
HStem: -5 227<720 987.971> 460 228<336 441> 700 227<669 895> 1214 227<627 998>
LayerCount: 2
Fore
SplineSet
441 688 m 1
 409 1087 l 1
 336 681 l 1
 366 684 387 688 441 688 c 1
1049 35 m 1
 1000 8 932 -5 853 -5 c 2
 494 -5 l 1
 482 164 473 291 459 457 c 1
 440 459 425 460 410 460 c 0
 381 460 357 456 321 447 c 1
 241 -22 l 1
 -9 49 l 1
 91 470 177 974 277 1442 c 1
 429 1439 l 1
 474 1441 531 1441 594 1441 c 0
 636 1441 680 1441 725 1441 c 2
 998 1441 l 1
 998 1216 l 1
 980 1216 l 2
 893 1216 905 1214 776 1214 c 2
 627 1214 l 1
 652 922 l 1
 706 923 695 927 784 927 c 2
 895 927 l 1
 895 700 l 1
 784 700 l 2
 698 700 716 696 669 695 c 1
 720 222 l 1
 885 222 l 2
 949 222 988 249 988 249 c 1
 1049 35 l 1
EndSplineSet
Validated: 1
EndChar

StartChar: Ccedilla
Encoding: 199 199 83
Width: 1060
VWidth: 6
Flags: HW
HStem: -443 172<447.653 660.295> -164 380<484.969 659.418> 1230 222<476.995 707.171>
VStem: 50 275<408.633 1010.91> 663 224<-263.703 -169.173>
LayerCount: 2
Fore
SplineSet
585 1230 m 0
 464 1230 325 1082 325 685 c 0
 325 386 447 216 558 216 c 2
 573 216 l 2
 703 216 743 285 793 427 c 1
 1052 278 l 1
 989 138 858 40 704 8 c 1
 703 -7 703 -61 703 -64 c 1
 800 -69 887 -126 887 -240 c 0
 887 -370 773 -443 615 -443 c 0
 549 -443 457 -425 401 -389 c 1
 461 -241 l 1
 494 -259 538 -271 589 -271 c 0
 625 -271 660 -259 663 -221 c 1
 663 -219 l 2
 663 -190 639 -164 591 -164 c 0
 543 -164 510 -166 482 -176 c 1
 482 6 l 1
 395 21 307 54 238 126 c 1
 112 262 50 444 50 693 c 0
 50 975 134 1149 189 1234 c 0
 265 1352 408 1452 592 1452 c 0
 739 1452 922 1384 1014 1207 c 1
 770 1070 l 1
 718 1205 675 1230 585 1230 c 0
EndSplineSet
Validated: 1
EndChar

StartChar: quotedbl
Encoding: 34 34 92
Width: 1060
VWidth: -25
Flags: HW
VStem: 212 308<974.452 1459.45> 646 308<972.452 1457.45>
LayerCount: 2
Fore
SplineSet
646 1357 m 0
 646 1392 642 1424 638 1457 c 1
 944 1478 l 1
 950 1437 954 1402 954 1359 c 0
 954 1091 912 909 824 777 c 1
 590 874 l 1
 632 937 646 1146 646 1357 c 0
212 1359 m 0
 212 1394 208 1426 204 1459 c 1
 510 1480 l 1
 516 1439 520 1404 520 1361 c 0
 520 1093 478 911 390 779 c 1
 156 876 l 1
 198 939 212 1148 212 1359 c 0
EndSplineSet
Validated: 1
EndChar

StartChar: numbersign
Encoding: 35 35 93
Width: 1060
VWidth: 6
Flags: HW
HStem: 358 197<51.3235 174 422 544 798 956> 757 184<55.7927 226.196> 784 194<472 592 840 962>
LayerCount: 2
Fore
SplineSet
378 -19 m 1xa0
 140 -15 l 1
 147 98 155 191 174 358 c 1
 121 357 78 348 50 339 c 1
 4 521 l 1
 60 541 136 550 202 555 c 1
 217 635 219 699 228 778 c 1
 210 779 l 1
 145 775 95 770 60 757 c 1
 6 941 l 1xc0
 71 966 154 970 238 975 c 1
 260 1159 262 1189 270 1334 c 1
 299 1334 412 1332 450 1332 c 0
 469 1332 486 1332 500 1331 c 1
 493 1210 487 1122 472 978 c 1
 608 974 l 1
 627 1137 637 1203 656 1322 c 1
 884 1323 l 1
 859 1202 859 1136 840 978 c 1
 962 978 l 1
 962 780 l 1
 822 784 l 1
 798 557 l 1
 960 558 l 1
 956 362 l 1
 772 365 l 1
 750 168 739 98 730 -23 c 1
 500 -25 l 1
 511 87 524 185 544 361 c 1
 408 360 l 1
 393 210 378 -19 378 -19 c 1xa0
448 782 m 1
 422 558 l 1
 574 557 l 1
 592 778 l 1
 448 782 l 1
EndSplineSet
Validated: 1
EndChar

StartChar: dollar
Encoding: 36 36 94
Width: 1060
VWidth: 0
Flags: HW
HStem: 58 197<602 676.128> 1428 20G<422.764 673>
VStem: 48 244<312.014 448> 72 256<891.324 1050.53> 723 252<296.631 525.647>
LayerCount: 2
Fore
SplineSet
602 255 m 1xc8
 671 272 723 315 723 412 c 0
 723 491 678 539 621 572 c 1
 602 255 l 1xc8
408 1067 m 1
 368 1052 329 1034 328 988 c 0
 328 986 328 985 328 983 c 0xd8
 328 921 366 890 398 871 c 1
 408 1067 l 1
248 703 m 0
 140 748 72 832 72 979 c 0xd8
 72 1161 203 1254 413 1270 c 1
 424 1448 l 1
 673 1434 l 1
 662 1257 l 1
 814 1228 928 1158 960 1045 c 1
 709 954 l 1
 708 991 678 1021 647 1028 c 1
 634 796 l 1
 673 784 714 770 764 748 c 0
 869 700 975 604 975 424 c 0
 975 174 800 73 590 58 c 1
 579 -136 l 1
 330 -121 l 1
 342 77 l 1
 127 131 48 279 48 448 c 1
 295 449 l 1
 293 434 292 420 292 408 c 0xe8
 292 340 322 310 363 296 c 1
 377 657 l 1
 337 668 296 682 248 703 c 0
EndSplineSet
Validated: 1
EndChar

StartChar: oe
Encoding: 339 339 95
Width: 1060
VWidth: 6
Flags: HW
HStem: 0 208<297.936 399.937 666.337 806.003> 447 207<658 799.924> 812 205<314.571 408.82 664.614 780.442>
VStem: 34 228<235.387 754.4> 422 236<223.002 447 654 804.526>
LayerCount: 2
Fore
SplineSet
340 208 m 0
 392 208 420 279 420 338 c 2
 422 698 l 2
 422 720 418 812 346 812 c 0
 318 812 265 687 262 474 c 0
 262 468 262 462 262 456 c 0
 262 362 288 208 340 208 c 0
658 675 m 2
 658 654 l 1
 696 654 758 654 802 660 c 1
 796 764 779 808 701 808 c 0
 661 808 658 760 658 675 c 2
1006 218 m 1
 1006 218 921 0 718 0 c 0
 626 0 550 40 497 95 c 1
 473 63 420 0 346 0 c 0
 290 0 221 5 141 91 c 0
 38 202 34 380 34 459 c 0
 34 505 35 585 45 635 c 1
 66 758 128 1017 337 1017 c 0
 416 1017 455 990 496 954 c 0
 507 945 514 937 519 931 c 1
 542 968 586 1018 701 1018 c 0
 902 1018 1000 796 1008 570 c 1
 1008 454 l 1
 910 450 772 447 690 447 c 0
 678 447 667 447 658 447 c 1
 656 274 l 1
 672 232 683 208 722 208 c 0
 797 208 810 244 816 290 c 1
 1006 218 l 1
EndSplineSet
Validated: 1
EndChar

StartChar: bracketleft
Encoding: 91 91 96
Width: 1060
VWidth: 66
Flags: HW
HStem: -259 207<592 892> 1277 206<592 855.949>
VStem: 328 264<-55 1265>
LayerCount: 2
Fore
SplineSet
854 1483 m 1
 882 1277 l 1
 801 1269 725 1269 592 1265 c 1
 592 -55 l 1
 669 -52 753 -52 768 -52 c 2
 778 -52 l 2
 828 -52 881 -57 892 -60 c 1
 898 -268 l 1
 873 -265 833 -259 762 -259 c 0
 703 -259 423 -261 330 -261 c 1
 330 -83 332 0 332 180 c 0
 332 270 331 391 330 570 c 0
 330 745 328 921 328 1052 c 2
 328 1473 l 1
 421 1473 699 1477 750 1477 c 1
 822 1480 831 1481 854 1483 c 1
EndSplineSet
Validated: 1
EndChar

StartChar: bracketright
Encoding: 93 93 97
Width: 1060
VWidth: 66
Flags: HW
HStem: -259 207<171 471> 1277 206<207.051 472>
VStem: 472 264<-55 1265>
LayerCount: 2
Fore
SplineSet
209 1483 m 1
 232 1481 241 1480 313 1477 c 1
 364 1477 643 1473 736 1473 c 1
 736 1052 l 2
 736 921 734 745 734 570 c 0
 733 391 732 270 732 180 c 0
 732 0 734 -83 734 -261 c 1
 641 -261 360 -259 301 -259 c 0
 230 -259 190 -265 165 -268 c 1
 171 -60 l 1
 182 -57 235 -52 285 -52 c 2
 295 -52 l 2
 310 -52 394 -52 471 -55 c 1
 472 1265 l 1
 339 1269 262 1269 181 1277 c 1
 209 1483 l 1
EndSplineSet
Validated: 1
EndChar

StartChar: parenleft
Encoding: 40 40 98
Width: 1060
VWidth: 66
Flags: HW
HStem: -262 250<736.789 902> 1250 234<714.03 903>
VStem: 215 269<303.165 962.945>
LayerCount: 2
Fore
SplineSet
903 1250 m 1
 901 1250 898 1250 896 1250 c 0
 633 1250 484 1067 484 616 c 0
 484 173 674 -11 903 -12 c 1
 902 -262 l 1
 542 -259 215 0 215 612 c 0
 215 1225 472 1471 903 1484 c 1
 903 1250 l 1
EndSplineSet
Validated: 1
EndChar

StartChar: parenright
Encoding: 41 41 99
Width: 1060
VWidth: 66
Flags: HW
HStem: -262 250<157 322.211> 1250 234<156 344.97>
VStem: 575 269<303.165 962.945>
LayerCount: 2
Fore
SplineSet
156 1250 m 1
 156 1484 l 1
 587 1471 844 1225 844 612 c 0
 844 0 517 -259 157 -262 c 1
 156 -12 l 1
 385 -11 575 173 575 616 c 0
 575 1067 425 1250 162 1250 c 0
 160 1250 158 1250 156 1250 c 1
EndSplineSet
Validated: 1
EndChar

StartChar: hyphen
Encoding: 45 45 100
Width: 1060
VWidth: 6
Flags: HW
HStem: 413 244<98 984>
LayerCount: 2
Fore
SplineSet
92 654 m 1
 137 656 187 657 237 657 c 0
 337 657 438 654 506 654 c 0
 547 654 586 654 625 654 c 0
 707 654 859 653 966 652 c 1
 984 652 l 1
 984 407 l 1
 966 407 l 1
 831 410 629 410 504 410 c 0
 461 410 370 413 270 413 c 0
 213 413 153 412 98 409 c 1
 98 531 l 1
 92 654 l 1
EndSplineSet
Validated: 1
EndChar

StartChar: plus
Encoding: 43 43 101
Width: 1060
VWidth: 6
Flags: HW
HStem: 391 235<72 410 661 980>
VStem: 410 252<0 391 627 983>
LayerCount: 2
Fore
SplineSet
70 616 m 1
 118 625 148 626 213 626 c 0
 225 626 238 626 252 626 c 2
 412 626 l 1
 412 983 l 1
 658 984 l 1
 656 627 l 1
 782 627 836 625 898 625 c 0
 925 625 953 625 980 625 c 1
 980 391 l 1
 966 391 l 2
 960 391 871 391 661 394 c 1
 662 0 l 1
 410 0 l 1
 410 391 l 1
 377 391 348 391 321 391 c 0
 188 391 129 390 72 382 c 1
 70 616 l 1
EndSplineSet
Validated: 1
EndChar

StartChar: less
Encoding: 60 60 102
Width: 1060
VWidth: 4
Flags: HW
LayerCount: 2
Fore
SplineSet
944 155 m 1
 778 -49 l 1
 754 -13 702 33 654 71 c 1
 559 150 152 377 126 395 c 1
 124 621 l 1
 281 750 593 976 726 1054 c 0
 756 1071 777 1085 812 1096 c 1
 942 889 l 1
 781 804 561 636 402 513 c 1
 545 412 864 279 944 155 c 1
EndSplineSet
Validated: 1
EndChar

StartChar: greater
Encoding: 62 62 103
Width: 1060
VWidth: 4
Flags: HW
LayerCount: 2
Fore
SplineSet
122 158 m 1
 202 282 521 415 664 516 c 1
 505 639 285 807 124 892 c 1
 254 1099 l 1
 289 1088 310 1074 340 1057 c 0
 473 979 785 753 942 624 c 1
 940 398 l 1
 914 380 507 153 412 74 c 1
 364 36 312 -10 288 -46 c 1
 122 158 l 1
EndSplineSet
Validated: 1
EndChar

StartChar: slash
Encoding: 47 47 104
Width: 1060
VWidth: 60
Flags: HW
HStem: 1448 20G<646.5 759.417>
LayerCount: 2
Fore
SplineSet
74 -50 m 1
 202 227 579 1112 714 1468 c 1
 932 1372 l 1
 794 1020 414 133 294 -149 c 1
 74 -50 l 1
EndSplineSet
Validated: 1
EndChar

StartChar: one
Encoding: 49 49 105
Width: 1060
VWidth: 0
Flags: HW
HStem: -10 21G<535.961 812> -10 21G<535.961 812>
VStem: 536 276<-10 1020>
LayerCount: 2
Fore
SplineSet
553 1415 m 1xa0
 812 1366 l 1
 812 -10 l 1
 536 -10 l 1
 534 1020 l 1
 461 929 353 817 214 739 c 1
 60 968 l 1
 388 1133 544 1399 553 1415 c 1xa0
EndSplineSet
Validated: 1
EndChar

StartChar: two
Encoding: 50 50 106
Width: 1060
VWidth: 0
Flags: HW
HStem: 0 230<437 989> 1172 226<410.448 659.166>
VStem: 90 273<925.638 1118.48> 706 264<864.23 1126.1>
LayerCount: 2
Fore
SplineSet
380 924 m 1
 111 880 l 1
 101 911 92 960 90 999 c 0
 90 1009 90 1017 90 1026 c 0
 90 1230 245 1398 519 1398 c 0
 808 1398 970 1279 970 990 c 0
 970 778 844 667 758 576 c 1
 699 517 437 290 437 230 c 1
 989 230 l 1
 989 0 l 1
 68 0 l 1
 68 32 66 67 66 102 c 0
 66 130 68 158 73 188 c 0
 92 292 177 400 293 508 c 1
 427 631 706 808 706 991 c 0
 706 1115 645 1172 535 1172 c 0
 456 1172 363 1125 363 1018 c 0
 363 991 367 959 380 924 c 1
EndSplineSet
Validated: 1
EndChar

StartChar: three
Encoding: 51 51 107
Width: 1060
VWidth: 0
Flags: HW
HStem: -24 228<360.408 627.974> 664 214<355 546.864> 1201 212<366.498 604.402>
VStem: 637 272<961.584 1164.93> 704 276<280.283 554.695>
LayerCount: 2
Fore
SplineSet
49 358 m 1xe8
 318 358 l 1
 318 234 412 204 498 204 c 0
 626 204 704 305 704 406 c 0xe8
 704 524 656 569 598 606 c 1
 536 647 441 664 355 664 c 1
 355 878 l 1
 372 878 l 2
 510 878 637 942 637 1080 c 0
 637 1151 579 1201 478 1201 c 0
 362 1201 301 1085 282 1046 c 1
 61 1192 l 1
 66 1208 170 1413 470 1413 c 2
 481 1413 l 2
 735 1413 909 1336 909 1098 c 0xf0
 909 961 800 810 694 790 c 1
 890 727 980 586 980 404 c 0
 980 256 944 180 858 94 c 0
 781 17 660 -24 490 -24 c 0
 188 -24 49 140 49 358 c 1xe8
EndSplineSet
Validated: 1
EndChar

StartChar: four
Encoding: 52 52 108
Width: 1060
VWidth: 0
Flags: HW
HStem: 421 225<349 623 898 1034>
VStem: 623 275<0 417 646 993 1282.81 1397>
LayerCount: 2
Fore
SplineSet
43 597 m 1
 79 646 546 1112 631 1397 c 1
 898 1400 l 1
 898 646 l 1
 1034 646 l 1
 1034 421 l 1
 898 421 l 1
 898 0 l 1
 623 0 l 1
 623 417 l 1
 139 415 l 1
 43 597 l 1
623 646 m 1
 623 993 l 1
 545 855 437 736 349 643 c 1
 623 646 l 1
EndSplineSet
Validated: 1
EndChar

StartChar: five
Encoding: 53 53 109
Width: 1060
VWidth: 0
Flags: HW
HStem: -2 227<378.9 613.52> 759 204<389.718 608.415> 1165 213<407 876>
VStem: 700 280<317.178 658.717>
LayerCount: 2
Fore
SplineSet
495 759 m 0
 367 759 308 661 293 640 c 1
 90 725 l 1
 154 1378 l 1
 877 1376 l 1
 876 1165 l 1
 407 1165 l 1
 389 952 l 1
 389 952 433 963 516 963 c 0
 577 963 659 958 732 923 c 1
 851 860 980 757 980 479 c 0
 980 139 753 0 496 -2 c 1
 494 -2 l 2
 293 -2 152 79 66 250 c 1
 310 368 l 1
 340 285 406 225 494 225 c 0
 590 225 700 294 700 482 c 0
 700 653 604 759 495 759 c 0
EndSplineSet
Validated: 1
EndChar

StartChar: six
Encoding: 54 54 110
Width: 1060
VWidth: 0
Flags: HW
HStem: -3 217<412.328 637.327> 599 215<409.304 642.747> 1181 242<654.433 763.377>
VStem: 60 281<294.973 540.721> 703 272<278.069 535.445>
LayerCount: 2
Fore
SplineSet
341 489 m 1
 341 351 388 214 519 214 c 0
 610 214 703 285 703 393 c 0
 703 519 625 599 554 599 c 0
 442 599 390 559 341 489 c 1
817 1181 m 1
 623 1160 470 1070 399 902 c 0
 372 836 357 752 355 721 c 1
 355 721 426 814 554 814 c 0
 836 814 975 641 975 394 c 0
 975 123 793 -3 512 -3 c 0
 233 -3 60 214 60 507 c 0
 60 994 291 1350 760 1423 c 1
 817 1181 l 1
EndSplineSet
Validated: 1
EndChar

StartChar: seven
Encoding: 55 55 111
Width: 1060
VWidth: 0
Flags: HW
HStem: 1145 231<313.98 787>
VStem: 306 279<0 341.577>
LayerCount: 2
Fore
SplineSet
153 1382 m 1
 243 1382 359 1376 441 1376 c 0
 603 1376 779 1384 932 1384 c 2
 976 1384 l 1
 1083 1209 l 1
 764 708 585 486 585 0 c 1
 306 0 l 1
 306 435 478 721 787 1148 c 1
 694 1145 584 1145 487 1145 c 0
 420 1145 392 1145 325 1148 c 1
 323 1147 308 1077 304 1037 c 1
 32 1105 l 1
 52 1168 119 1311 153 1382 c 1
EndSplineSet
Validated: 1
EndChar

StartChar: eight
Encoding: 56 56 112
Width: 1060
VWidth: 0
Flags: HW
HStem: -10 227<400.597 670.964> 1167 216<401.667 654.118>
VStem: 49 276<289.693 547.878> 111 268<964.317 1143.97> 672 270<964.773 1144.28> 732 271<274.097 542.921>
LayerCount: 2
Fore
SplineSet
297 788 m 1xe4
 202 816 111 944 111 1054 c 0
 111 1255 275 1383 525 1383 c 0
 798 1383 942 1245 942 1061 c 0xd8
 942 929 836 817 740 790 c 1
 893 734 1003 599 1003 399 c 0
 1003 163 795 -10 541 -10 c 0
 264 -10 49 150 49 404 c 0
 49 599 166 732 297 788 c 1xe4
379 1059 m 0
 379 1010 416 943 526 899 c 1
 627 939 672 1002 672 1065 c 0
 672 1154 585 1167 529 1167 c 0
 478 1167 379 1161 379 1059 c 0
325 415 m 0xe4
 325 267 450 217 524 217 c 0
 630 217 732 256 732 412 c 0
 732 470 695 599 522 676 c 1
 381 612 325 502 325 415 c 0xe4
EndSplineSet
Validated: 1
EndChar

StartChar: nine
Encoding: 57 57 113
Width: 1060
VWidth: 0
Flags: HW
HStem: -2 221<383.828 618.149> 624 215<399.956 670.904> 1183 210<392.466 630.474>
VStem: 64 274<903.362 1131.41> 732 271<349.554 675>
LayerCount: 2
Fore
SplineSet
64 1022 m 0
 64 1277 266 1393 504 1393 c 0
 926 1393 1003 1083 1003 689 c 0
 1003 342 919 0 512 -2 c 0
 511 -2 510 -2 509 -2 c 0
 249 -2 90 118 20 332 c 1
 288 422 l 1
 336 267 396 219 518 219 c 0
 666 219 732 378 732 622 c 0
 732 639 730 675 730 675 c 1
 701 654 643 624 505 624 c 0
 276 624 64 781 64 1022 c 0
512 1183 m 0
 394 1183 338 1098 338 1025 c 0
 338 909 425 839 523 839 c 0
 626 839 681 884 722 931 c 1
 705 1091 623 1183 512 1183 c 0
EndSplineSet
Validated: 1
EndChar

StartChar: equal
Encoding: 61 61 114
Width: 1060
VWidth: 6
Flags: HW
HStem: 176 218<66 910> 627 222<64.6797 905>
LayerCount: 2
Fore
SplineSet
58 861 m 1
 201 852 312 849 406 849 c 0
 598 849 707 859 905 859 c 1
 907 639 l 1
 714 639 603 627 406 627 c 0
 310 627 202 634 57 643 c 1
 57 673 56 723 56 770 c 0
 56 805 57 839 58 861 c 1
64 394 m 1
 204 402 316 402 430 402 c 0
 608 402 742 394 910 394 c 1
 910 170 l 1
 736 170 592 174 410 174 c 0
 360 174 310 176 258 176 c 0
 198 176 134 174 66 170 c 1
 64 394 l 1
EndSplineSet
Validated: 1
EndChar

StartChar: backslash
Encoding: 92 92 115
Width: 1060
VWidth: 60
Flags: HW
HStem: 1448 20G<248.167 361.5>
LayerCount: 2
Fore
SplineSet
932 -50 m 1
 714 -149 l 1
 594 133 212 1020 74 1372 c 1
 294 1468 l 1
 429 1112 804 227 932 -50 c 1
EndSplineSet
Validated: 1
EndChar

StartChar: asciicircum
Encoding: 94 94 116
Width: 1060
VWidth: -10
Flags: HW
HStem: 424 677
LayerCount: 2
Fore
SplineSet
530 1101 m 1
 1035 588 l 1
 883 424 l 1
 537 774 l 1
 195 428 l 1
 47 582 l 1
 530 1101 l 1
EndSplineSet
Validated: 1
EndChar

StartChar: underscore
Encoding: 95 95 117
Width: 1060
VWidth: 41
Flags: HW
HStem: -297 213<56 1002>
LayerCount: 2
Fore
SplineSet
56 -84 m 1
 1002 -84 l 1
 1002 -297 l 1
 52 -297 l 1
 56 -84 l 1
EndSplineSet
Validated: 1
EndChar

StartChar: grave
Encoding: 96 96 118
Width: 1060
VWidth: -25
Flags: HW
VStem: 381 308<1069.75 1467.45>
LayerCount: 2
Fore
SplineSet
689 1367 m 0
 689 1156 755 943 796 880 c 1
 562 783 l 1
 475 915 381 1101 381 1369 c 0
 381 1412 385 1447 391 1488 c 1
 697 1467 l 1
 693 1434 689 1402 689 1367 c 0
EndSplineSet
Validated: 1
EndChar

StartChar: question
Encoding: 63 63 119
Width: 1060
VWidth: 0
Flags: HW
HStem: 0 270<324 676> 1153 192<396.204 637.816>
VStem: 96 259<862.261 1110.04> 324 352<0 270> 359 272<431 613.093> 679 251<892.641 1110.38>
LayerCount: 2
Fore
SplineSet
511 1345 m 0xec
 768 1345 930 1217 930 991 c 0
 930 821 828 755 741 685 c 0
 683 638 631 567 631 479 c 2
 631 430 l 1
 359 431 l 1
 359 475 l 2
 359 621 457 734 526 795 c 0
 608 868 679 907 679 994 c 0
 679 1086 630 1153 521 1153 c 0
 419 1153 357 1104 355 995 c 0
 355 956 380 918 401 892 c 1
 183 743 l 1
 137 807 96 876 96 967 c 0
 96 1226 281 1345 511 1345 c 0xec
324 270 m 1xd4
 676 270 l 1
 676 0 l 1
 324 0 l 1
 324 270 l 1xd4
EndSplineSet
Validated: 1
EndChar

StartChar: asciitilde
Encoding: 126 126 120
Width: 1060
VWidth: -12
Flags: HW
HStem: 375 210<649.392 797.546> 596 211<260.546 414.74>
LayerCount: 2
Fore
SplineSet
342 807 m 0
 572 807 630 585 720 585 c 0
 806 585 828 675 834 743 c 1
 1042 689 l 1
 1042 584 987 375 710 375 c 0
 486 375 447 596 335 596 c 0
 279 596 228 531 204 441 c 1
 22 551 l 1
 56 681 140 807 342 807 c 0
EndSplineSet
Validated: 1
EndChar

StartChar: Oslash
Encoding: 216 216 127
Width: 1060
VWidth: 0
Flags: HW
HStem: -17 221<410.125 628.639> 1250 221<432.474 632.454>
VStem: 12 292<507.653 1048.07> 745 288<379.618 876.141>
LayerCount: 2
Fore
SplineSet
736 880 m 1
 624 671 503 447 400 257 c 1
 432 223 472 204 526 204 c 0
 609 204 660 271 693 355 c 1
 721 419 744 590 745 698 c 1
 745 716 l 2
 745 766 741 823 736 880 c 1
313 505 m 1
 429 716 555 953 664 1160 c 1
 628 1224 587 1250 538 1250 c 0
 470 1250 430 1223 388 1146 c 0
 339 1056 304 910 304 645 c 0
 304 604 307 554 313 505 c 1
132 175 m 1
 54 294 12 450 12 631 c 0
 12 1015 91 1188 165 1294 c 0
 234 1394 375 1468 539 1471 c 1
 607 1471 701 1458 788 1397 c 1
 818 1457 846 1511 868 1557 c 1
 1036 1446 l 1
 1007 1388 969 1317 927 1236 c 1
 989 1122 1031 952 1033 705 c 1
 1033 693 l 2
 1033 511 986 341 936 237 c 1
 857 77 699 -17 526 -17 c 0
 447 -17 359 -1 282 38 c 1
 246 -27 216 -82 193 -125 c 1
 26 -12 l 1
 53 35 90 99 132 175 c 1
EndSplineSet
Validated: 1
EndChar

StartChar: multiply
Encoding: 215 215 128
Width: 1060
VWidth: 6
Flags: HW
LayerCount: 2
Fore
SplineSet
208 999 m 1
 292 940 424 780 509 693 c 1
 818 990 l 1
 990 815 l 1
 680 519 l 1
 825 369 862 323 990 191 c 1
 822 27 l 1
 684 177 751 104 516 353 c 1
 217 38 l 1
 42 219 l 1
 339 531 l 1
 200 674 95 793 40 835 c 1
 208 999 l 1
EndSplineSet
Validated: 1
EndChar

StartChar: oslash
Encoding: 248 248 140
Width: 1060
VWidth: 6
Flags: HW
HStem: -6 203<408.711 620.825> 830 202<413.553 614.78>
VStem: 82 252<490 735.229> 695 256<277.821 585.258>
LayerCount: 2
Fore
SplineSet
617 802 m 1
 594 820 566 830 530 830 c 0
 381 830 335 693 334 490 c 1
 617 802 l 1
858 1067 m 1
 1008 927 l 1
 901 812 l 1
 935 735 951 631 951 543 c 0
 951 258 855 -6 519 -6 c 2
 517 -6 l 2
 392 -6 298 25 229 80 c 1
 156 0 l 1
 10 133 l 1
 114 248 l 1
 92 311 82 384 82 464 c 0
 82 835 223 1032 515 1032 c 0
 624 1032 705 1011 769 970 c 1
 858 1067 l 1
635 247 m 1
 682 299 695 403 695 530 c 0
 695 536 695 540 695 546 c 0
 695 560 695 573 694 586 c 1
 393 259 l 1
 423 220 465 197 518 197 c 0
 573 198 599 211 635 247 c 1
EndSplineSet
Validated: 1
EndChar

StartChar: plusminus
Encoding: 177 177 145
Width: 1060
VWidth: -6
Flags: HW
HStem: 164 245<74 398 649 970> 629 235<60 398 649 968>
VStem: 398 251<411 629 865 1221>
LayerCount: 2
Fore
SplineSet
58 854 m 1
 106 863 136 864 201 864 c 0
 213 864 226 864 240 864 c 2
 400 864 l 1
 400 1221 l 1
 646 1222 l 1
 644 865 l 1
 770 865 824 863 886 863 c 0
 913 863 941 863 968 863 c 1
 968 629 l 1
 954 629 l 2
 948 629 859 629 649 632 c 1
 649 558 649 485 649 411 c 1
 742 411 871 410 952 409 c 1
 970 409 l 1
 970 164 l 1
 952 164 l 1
 817 167 577 167 452 167 c 0
 385 167 226 166 74 158 c 1
 74 280 l 1
 68 403 l 1
 181 409 302 411 398 411 c 1
 398 629 l 1
 365 629 336 629 309 629 c 0
 176 629 117 628 60 620 c 1
 58 854 l 1
EndSplineSet
Validated: 1
EndChar

StartChar: divide
Encoding: 247 247 146
Width: 1060
VWidth: 6
Flags: HW
HStem: 2 282<366 681> 413 244<82 968> 758 280<366 681>
VStem: 366 315<2 284 758 1038>
LayerCount: 2
Fore
SplineSet
76 654 m 1
 121 656 171 657 221 657 c 0
 321 657 422 654 490 654 c 0
 531 654 570 654 609 654 c 0
 691 654 843 653 950 652 c 1
 968 652 l 1
 968 407 l 1
 950 407 l 1
 815 410 613 410 488 410 c 0
 445 410 354 413 254 413 c 0
 197 413 137 412 82 409 c 1
 82 531 l 1
 76 654 l 1
366 284 m 1
 681 284 l 1
 681 2 l 1
 366 2 l 1
 366 284 l 1
366 1038 m 1
 681 1038 l 1
 681 758 l 1
 366 758 l 1
 366 1038 l 1
EndSplineSet
Validated: 1
EndChar

StartChar: OE
Encoding: 338 338 149
Width: 1060
VWidth: 0
Flags: HW
HStem: -9 223<354.47 448.363 711 978.81> 702 223<711 931> 1228 217<379.007 450 711 1001>
VStem: 3 270<324.156 1067.84> 449 262<226 702 925 1228>
LayerCount: 2
Fore
SplineSet
843 225 m 1
 905 227 934 236 981 253 c 1
 1050 35 l 1
 939 3 808 -1 691 -1 c 0
 642 -1 590 0 532 0 c 1
 514 -8 414 -9 398 -9 c 0
 77 4 3 317 3 651 c 0
 3 1126 105 1449 457 1449 c 0
 484 1449 514 1447 541 1442 c 1
 603 1445 669 1445 735 1445 c 0
 824 1445 915 1444 1001 1444 c 1
 1001 1228 l 1
 904 1228 913 1230 838 1230 c 0
 801 1230 760 1229 711 1228 c 1
 711 925 l 1
 931 925 l 1
 931 702 l 1
 711 702 l 1
 711 482 711 312 711 226 c 1
 843 225 l 1
449 217 m 1
 450 1228 l 1
 336 1228 273 1037 273 630 c 0
 273 384 329 214 430 214 c 0
 447 214 435 216 449 217 c 1
EndSplineSet
Validated: 1
EndChar

StartChar: yen
Encoding: 165 165 150
Width: 1060
VWidth: 0
Flags: HW
HStem: -7 21G<377 639> 317 224<98 380 646 942> 706 225<810 937>
VStem: 377 262<-7 320 549 705.299>
LayerCount: 2
Fore
SplineSet
377 -7 m 1
 377 150 l 2
 377 187 379 251 380 322 c 1
 351 323 320 323 290 323 c 0
 230 323 166 321 98 317 c 1
 96 541 l 1
 204 547 296 549 384 549 c 1
 385 595 385 636 385 668 c 1
 378 679 369 691 360 706 c 1
 283 708 196 714 89 721 c 1
 89 751 88 801 88 848 c 0
 88 883 89 917 90 939 c 1
 138 936 183 933 225 931 c 1
 134 1088 37 1263 6 1332 c 1
 236 1486 l 1
 278 1400 437 1082 528 929 c 1
 631 1084 753 1403 793 1500 c 1
 1033 1352 l 1
 1004 1291 904 1103 810 935 c 1
 849 936 891 937 937 937 c 1
 939 717 l 1
 839 717 760 713 681 710 c 1
 667 687 656 669 647 656 c 1
 647 621 647 585 646 547 c 1
 744 545 836 541 942 541 c 1
 942 317 l 1
 836 317 741 319 642 320 c 1
 641 237 639 168 639 140 c 2
 639 -7 l 1
 377 -7 l 1
EndSplineSet
Validated: 1
EndChar

StartChar: Eth
Encoding: 208 208 152
Width: 1060
VWidth: 0
Flags: HW
HStem: -11 223<331 595.657> 798 229<-3 71 336 602> 1228 222<336 547.506>
VStem: 71 265<216 798 1027 1225.18> 728 280<352.904 951.789>
LayerCount: 2
Fore
SplineSet
71 1027 m 1
 71 1065 l 2
 71 1206 66 1340 57 1436 c 1
 142 1445 189 1450 293 1450 c 0
 578 1450 742 1361 871 1162 c 1
 959 1024 1008 829 1008 632 c 0
 1008 557 1000 482 986 410 c 0
 936 147 767 16 578 -3 c 0
 520 -8 467 -11 409 -11 c 0
 321 -11 181 -3 61 -3 c 1
 61 34 61 33 64 140 c 1
 64 190 70 495 71 798 c 1
 -3 798 l 1
 -3 1027 l 1
 71 1027 l 1
414 1228 m 2
 383 1228 l 2
 366 1228 354 1228 336 1225 c 1
 336 1216 336 1205 336 1195 c 0
 336 1174 336 1153 336 1130 c 0
 336 1085 336 1061 336 1027 c 1
 602 1027 l 1
 604 799 l 1
 336 798 l 1
 335 532 332 305 331 216 c 1
 423 213 372 212 435 212 c 2
 438 212 l 2
 480 212 631 215 700 385 c 0
 720 434 728 533 728 593 c 0
 728 1008 617 1228 414 1228 c 2
EndSplineSet
Validated: 1
EndChar

StartChar: currency
Encoding: 164 164 153
Width: 1060
VWidth: 6
Flags: HW
HStem: 127 150<421.182 636.341> 745 150<422.888 639.614> 1002 20G<194 234.132>
VStem: 148 219<332.075 680.357> 681 223<322.212 666.935>
LayerCount: 2
Fore
SplineSet
178 677 m 1
 24 832 l 1
 214 1022 l 1
 366 871 l 1
 411 887 465 895 525 895 c 0
 597 895 655 886 703 869 c 1
 843 1009 l 1
 1034 818 l 1
 885 669 l 1
 898 625 904 577 904 533 c 0
 904 454 892 378 862 313 c 1
 1013 162 l 1
 822 -28 l 1
 652 141 l 1
 616 132 575 127 528 127 c 2
 526 127 l 2
 468 127 417 133 373 145 c 1
 208 -20 l 1
 18 171 l 1
 172 325 l 1
 156 369 148 420 148 475 c 0
 148 553 158 620 178 677 c 1
629 314 m 1
 670 352 681 430 681 524 c 0
 681 528 681 531 681 535 c 0
 680 651 650 745 538 745 c 0
 407 745 367 642 367 488 c 0
 367 365 422 277 527 277 c 1
 575 278 597 287 629 314 c 1
EndSplineSet
Validated: 1
EndChar

StartChar: sterling
Encoding: 163 163 154
Width: 1060
VWidth: 0
Flags: HW
HStem: -16 204<613.389 794.048> -13 171<173 319.038> 666 200<124 282 560 871> 1149 202<511.372 682.047>
VStem: 75 165<160.087 271.749> 258 240<868.252 1140.42> 350 239<382.744 658.1> 796 228<194.17 266>
LayerCount: 2
Fore
SplineSet
871 670 m 1x7d
 797 661 714 661 616 661 c 2
 560 661 l 1
 578 568 588 495 589 385 c 0
 589 333 585 278 578 254 c 1
 647 210 684 188 732 188 c 0
 758 188 796 198 796 224 c 0
 796 229 796 262 796 267 c 1
 1024 266 l 1
 1024 213 l 1
 1020 77 920 -15 779 -16 c 0xbb
 661 -16 603 9 494 79 c 1
 432 -6 319 -13 232 -13 c 0
 114 -13 75 79 75 191 c 0
 75 327 150 456 246 456 c 0
 305 456 318 427 348 382 c 1
 350 402 350 407 350 429 c 0x7b
 349 535 341 568 322 664 c 1
 270 666 186 666 141 666 c 2
 124 666 l 1
 124 866 l 1
 282 866 l 1
 269 937 258 977 258 1043 c 0
 258 1248 399 1351 588 1351 c 0
 751 1351 875 1256 906 1129 c 1
 694 1075 l 1
 678 1137 632 1149 588 1149 c 0
 586 1149 584 1149 582 1149 c 0
 528 1149 498 1116 498 1051 c 0
 498 997 513 927 524 861 c 1
 618 864 l 2
 637 864 657 864 675 864 c 0
 749 864 815 865 871 871 c 1
 871 670 l 1x7d
320 193 m 1
 287 223 270 250 256 272 c 1
 250 267 240 239 240 218 c 0
 240 216 240 214 240 212 c 0
 242 170 253 158 262 158 c 0x79
 284 158 304 173 320 193 c 1
EndSplineSet
Validated: 1
EndChar

StartChar: cent
Encoding: 162 162 155
Width: 1060
VWidth: 6
Flags: HW
HStem: -9 281<410.814 620.193> 742 291<414.293 619.645>
VStem: 135 212<340.725 670.848> 388 234<-9 117.429 893.889 1033>
LayerCount: 2
Fore
SplineSet
347 525 m 0
 347 276 487 272 526 272 c 2
 536 272 l 2
 619 272 663 323 703 386 c 1
 891 282 l 1
 843 183 757 126 622 111 c 1
 622 -9 l 1
 388 -9 l 1
 388 122 l 1
 349 131 310 146 276 170 c 0
 168 249 135 369 135 524 c 0
 135 731 225 847 388 889 c 1
 388 1033 l 1
 622 1033 l 1
 622 902 l 1
 673 895 721 881 756 859 c 0
 806 828 844 782 862 741 c 1
 679 662 l 1
 671 692 645 742 529 742 c 0
 407 742 347 637 347 525 c 0
EndSplineSet
Validated: 1
EndChar

StartChar: percent
Encoding: 37 37 156
Width: 1060
VWidth: 0
Flags: HW
HStem: -14 193<671.695 776.182> 392 193<686.888 796.624> 722 193<239.695 347.495> 1128 193<254.182 364.624>
VStem: 11 215<924.375 1103.92> 375 225<940.689 1124.04> 443 215<188.375 371.011> 807 225<201.623 388.045>
LayerCount: 2
Fore
SplineSet
32 82 m 1xfb
 264 504 l 2
 360 679 498 788 533 853 c 1
 479 776 394 722 292 722 c 0
 135 722 11 855 11 1012 c 0
 11 1175 151 1318 314 1321 c 0
 316 1321 319 1321 321 1321 c 0
 480 1321 600 1206 600 1057 c 0
 600 1055 600 1052 600 1040 c 0xfd
 599 1013 592 975 579 939 c 1
 808 1376 l 1
 1032 1264 l 1
 801 837 l 1
 733 705 584 591 500 450 c 1
 556 529 647 583 746 585 c 0
 748 585 751 585 753 585 c 0
 912 585 1032 470 1032 321 c 0
 1032 319 1032 316 1032 314 c 0
 1028 152 903 -14 724 -14 c 0
 567 -14 443 119 443 276 c 0
 443 311 449 345 461 377 c 1
 256 -28 l 1
 32 82 l 1xfb
296 915 m 0
 328 915 375 989 375 1040 c 0
 375 1101 355 1125 309 1128 c 0
 308 1128 308 1128 307 1128 c 0
 275 1128 226 1058 226 1013 c 0
 226 959 256 915 296 915 c 0
728 179 m 0
 760 179 807 253 807 304 c 0
 807 365 787 389 741 392 c 0
 740 392 740 392 739 392 c 0
 707 392 658 322 658 277 c 0xfb
 658 223 688 179 728 179 c 0
EndSplineSet
Validated: 1
EndChar

StartChar: guillemotleft
Encoding: 171 171 157
Width: 1060
VWidth: 6
Flags: HW
LayerCount: 2
Fore
SplineSet
34 576 m 1
 178 706 315 867 338 1007 c 1
 566 936 l 1
 526 747 390 624 265 515 c 1
 393 397 503 278 548 106 c 1
 330 19 l 1
 292 168 192 320 34 461 c 1
 34 576 l 1
438 566 m 1
 582 696 719 857 742 997 c 1
 970 925 l 1
 930 736 794 613 669 504 c 1
 797 386 907 267 952 95 c 1
 734 9 l 1
 696 158 596 310 438 451 c 1
 438 566 l 1
EndSplineSet
Validated: 1
EndChar

StartChar: section
Encoding: 167 167 159
Width: 1060
VWidth: 4
Flags: HW
HStem: -285 200<395.853 583.723> 1168 200<422.355 610.147>
VStem: 48 247<583.07 724.786> 153 250<916.576 1146.22> 154 220<-58.2925 32> 604 250<-63.2206 166.424> 632 220<1051 1141.29> 712 247<360.047 499.984>
LayerCount: 2
Fore
SplineSet
194 883 m 1xe4
 194 883 153 923 153 1048 c 0
 153 1256 351 1362 504 1368 c 0
 510 1368 516 1368 522 1368 c 0
 722 1368 848 1236 852 1051 c 1
 632 1051 l 1xd2
 632 1132 576 1168 510 1168 c 0
 478 1168 403 1151 403 1054 c 0
 403 1051 403 1047 403 1043 c 0
 403 1001 406 940 466 901 c 0
 604 811 737 725 844 627 c 0
 938 541 959 504 959 408 c 0xd1
 959 291 904 238 826 180 c 1
 826 180 854 114 854 35 c 0
 854 -173 655 -279 502 -285 c 0
 496 -285 490 -285 484 -285 c 0
 284 -285 158 -153 154 32 c 1
 374 32 l 1xcc
 374 -49 430 -85 496 -85 c 0
 528 -85 604 -68 604 29 c 0
 604 32 604 36 604 40 c 0
 604 82 601 143 541 182 c 0
 403 272 270 358 163 456 c 0
 69 542 48 579 48 675 c 0
 48 816 194 883 194 883 c 1xe4
661 354 m 1
 708 382 712 396 712 429 c 1
 709 450 700 472 675 495 c 0
 558 603 426 679 346 729 c 1
 299 701 295 687 295 654 c 1xe1
 298 633 307 611 332 588 c 0
 448 482 542 428 652 361 c 1
 661 354 l 1
EndSplineSet
Validated: 1
EndChar

StartChar: braceleft
Encoding: 123 123 160
Width: 1060
VWidth: 66
Flags: HW
HStem: -282 218<730.479 900> 1266 218<729.479 899>
VStem: 457 254<-36.2345 175.911 1022.54 1239.07> 528 251<132.291 388.518 813.105 1068.18>
LayerCount: 2
Fore
SplineSet
523 600 m 1xd0
 617 577 753 504 775 376 c 0
 778 361 779 345 779 330 c 0xd0
 779 229 727 134 713 54 c 0
 711 46 711 38 711 31 c 0
 711 -36 778 -58 904 -64 c 1
 900 -282 l 1
 767 -276 606 -274 513 -166 c 0
 472 -118 457 -66 457 -14 c 0xe0
 457 59 486 133 509 198 c 0
 522 234 528 264 528 290 c 0
 528 423 379 444 255 479 c 1
 254 592 l 1
 254 723 l 1
 378 758 527 778 527 911 c 0
 527 937 521 968 508 1004 c 0
 485 1069 456 1143 456 1216 c 0
 456 1268 471 1320 512 1368 c 0
 605 1476 766 1478 899 1484 c 1
 903 1266 l 1
 776 1261 710 1238 710 1170 c 0
 710 1163 711 1156 712 1148 c 0
 727 1068 778 974 778 872 c 0
 778 857 777 842 774 826 c 0
 752 698 617 623 523 600 c 1xd0
EndSplineSet
Validated: 1
EndChar

StartChar: bar
Encoding: 124 124 161
Width: 1060
VWidth: 66
Flags: HW
VStem: 368 273<-194.108 1492>
LayerCount: 2
Fore
SplineSet
367 152 m 0
 367 517 358 1111 358 1399 c 2
 358 1492 l 1
 629 1492 l 1
 629 1347 l 2
 629 1070 641 558 641 224 c 2
 641 74 l 2
 641 -41 640 -97 635 -198 c 1
 363 -197 l 1
 367 -135 368 -92 368 -37 c 0
 368 10 367 66 367 152 c 0
EndSplineSet
Validated: 1
EndChar

StartChar: braceright
Encoding: 125 125 162
Width: 1060
VWidth: 66
Flags: HW
HStem: -282 218<160 329.521> 1266 218<160 330.311>
VStem: 281 251<132.291 388.892 813.105 1068.18> 349 254<-36.1595 175.911 1022.54 1238.33>
LayerCount: 2
Fore
SplineSet
537 600 m 1xe0
 443 623 307 698 286 826 c 0
 283 842 282 857 282 872 c 0
 282 974 333 1068 348 1148 c 0
 349 1156 350 1163 350 1170 c 0
 350 1238 283 1261 157 1266 c 1
 160 1484 l 1
 294 1478 455 1476 548 1368 c 0
 589 1320 603 1268 603 1216 c 0xd0
 603 1143 575 1069 552 1004 c 0
 539 968 533 937 533 911 c 0
 533 778 682 758 806 723 c 1
 806 592 l 1
 805 479 l 1
 681 444 532 424 532 291 c 0xe0
 532 265 538 234 551 198 c 0
 574 133 603 59 603 -14 c 0
 603 -66 588 -118 547 -166 c 0
 454 -274 293 -276 160 -282 c 1
 156 -64 l 1
 283 -58 349 -36 349 32 c 0xd0
 349 39 348 46 347 54 c 0
 333 134 281 229 281 330 c 0
 281 345 282 361 285 376 c 0
 307 504 443 577 537 600 c 1xe0
EndSplineSet
Validated: 1
EndChar

StartChar: at
Encoding: 64 64 163
Width: 1060
VWidth: 6
Flags: HW
HStem: -380 195<497.928 800.01> -9 218<508 725.628> 448 222<619.816 740.788> 825 204<545.195 735.813> 1178 207<436.248 670.375>
VStem: 33 209<201.526 872.599> 383 223<215.258 437.75> 758 225<233.408 433.1 629 789.488>
LayerCount: 2
Fore
SplineSet
758 629 m 1
 758 731 l 2
 758 778 698 825 635 825 c 0
 587 825 537 797 513 720 c 1
 346 797 l 1
 412 970 519 1029 615 1029 c 0
 682 1029 750 998 768 975 c 1
 768 975 721 1178 549 1178 c 0
 371 1178 242 905 242 518 c 0
 242 132 430 -185 619 -185 c 0
 692 -185 747 -158 779 -137 c 1
 872 -320 l 1
 826 -349 732 -380 616 -380 c 0
 295 -380 33 -71 33 538 c 0
 33 1120 266 1385 540 1385 c 0
 925 1385 983 998 983 705 c 2
 983 233 l 2
 983 150 1032 66 1032 66 c 1
 828 -22 l 1
 798 78 l 1
 798 78 750 -9 584 -9 c 0
 432 -9 383 156 383 308 c 0
 383 400 401 488 426 530 c 0
 488 636 564 667 632 670 c 0
 634 670 636 670 638 670 c 0
 680 670 736 643 758 629 c 1
671 209 m 0
 722 209 755 312 758 329 c 1
 758 377 l 1
 738 417 701 448 683 448 c 0
 643 448 606 414 606 333 c 2
 606 322 l 1
 608 227 629 209 671 209 c 0
EndSplineSet
Validated: 1
EndChar

StartChar: brokenbar
Encoding: 166 166 164
Width: 1060
VWidth: 66
Flags: HW
VStem: 368 273<-194.108 539 779 1492>
LayerCount: 2
Fore
SplineSet
639 539 m 1
 640 426 641 318 641 224 c 2
 641 74 l 2
 641 -41 640 -97 635 -198 c 1
 363 -197 l 1
 367 -135 368 -92 368 -37 c 0
 368 10 367 66 367 152 c 0
 367 264 366 399 365 539 c 1
 639 539 l 1
363 779 m 1
 361 1018 358 1250 358 1399 c 2
 358 1492 l 1
 629 1492 l 1
 629 1347 l 2
 629 1202 632 993 635 779 c 1
 363 779 l 1
EndSplineSet
Validated: 1
EndChar

StartChar: copyright
Encoding: 169 169 165
Width: 1060
VWidth: 6
Flags: HW
HStem: -336 155<397.115 620.91> -17 152<457.62 583.105> 859 174<460.844 570.197> 1202 153<401.498 600.866>
VStem: 44 136<166.256 850.907> 247 148<215.464 776.084> 615 127<164.445 238.402> 833 143<163.794 831.031>
LayerCount: 2
Fore
SplineSet
506 1355 m 0
 810 1355 976 962 976 506 c 0
 976 51 796 -336 506 -336 c 0
 207 -336 44 58 44 513 c 0
 44 969 218 1355 506 1355 c 0
506 1202 m 0
 340 1202 180 905 180 512 c 0
 180 120 326 -181 506 -181 c 0
 691 -181 833 118 833 510 c 2
 833 527 l 2
 833 912 643 1202 506 1202 c 0
491 1033 m 0
 492 1033 493 1033 494 1033 c 0
 501 1033 507 1035 519 1035 c 0
 595 1032 684 962 734 810 c 1
 593 753 l 1
 575 810 567 859 521 859 c 0
 445 859 395 689 395 510 c 0
 395 387 427 135 510 135 c 0
 572 135 595 182 615 273 c 1
 742 234 l 1
 702 93 643 -17 519 -17 c 0
 285 -17 247 328 247 487 c 0
 247 688 290 812 319 874 c 0
 355 952 418 1019 491 1033 c 0
EndSplineSet
Validated: 1
EndChar

StartChar: registered
Encoding: 174 174 166
Width: 1060
VWidth: 6
Flags: HW
HStem: -336 155<397.115 620.91> 891 153<466 559.506> 1202 153<401.498 600.866>
VStem: 44 136<166.256 850.907> 317 149<12 381 528.507 891> 593 135<536.373 855.717> 833 143<163.794 831.031>
LayerCount: 2
Fore
SplineSet
506 1355 m 0
 810 1355 976 962 976 506 c 0
 976 51 796 -336 506 -336 c 0
 207 -336 44 58 44 513 c 0
 44 969 218 1355 506 1355 c 0
506 1202 m 0
 340 1202 180 905 180 512 c 0
 180 120 326 -181 506 -181 c 0
 691 -181 833 118 833 510 c 2
 833 527 l 2
 833 912 643 1202 506 1202 c 0
628 0 m 1
 586 82 524 316 498 378 c 1
 478 381 481 377 466 381 c 1
 466 254 467 203 467 148 c 0
 467 111 467 73 465 10 c 1
 317 12 l 1
 317 321 315 1007 315 1007 c 1
 357 1042 411 1039 463 1043 c 0
 471 1044 479 1044 487 1044 c 0
 658 1044 722 866 728 684 c 1
 728 570 708 433 642 392 c 1
 683 298 740 112 768 92 c 1
 628 0 l 1
591 722 m 0
 584 851 538 891 475 891 c 0
 472 891 469 891 466 891 c 1
 466 538 l 1
 488 531 507 528 522 528 c 0
 580 528 593 576 593 657 c 0
 593 677 592 698 591 722 c 0
EndSplineSet
Validated: 1
EndChar

StartChar: germandbls
Encoding: 223 223 167
Width: 1060
VWidth: 0
Flags: HW
HStem: -2 201<598.188 714.684> 634 206<386 535.114> 1122 206<343.372 534.964>
VStem: 77 249<262.226 1105.34> 383 205<202.676 320> 564 244<869.297 1090.28> 738 244<211.003 528.796>
LayerCount: 2
Fore
SplineSet
77 1003 m 0xf4
 77 1159 193 1328 400 1328 c 0
 636 1328 808 1243 808 1009 c 0xf4
 808 886 763 815 680 779 c 1
 824 754 982 661 982 381 c 0
 982 76 854 -2 634 -2 c 0
 447 -2 383 95 383 298 c 0
 383 306 384 314 384 322 c 1
 588 320 l 1
 588 257 593 199 656 199 c 0
 710 199 738 247 738 395 c 0xfa
 738 504 674 634 386 634 c 1
 386 840 l 1
 551 840 564 905 564 1003 c 0
 564 1088 482 1122 423 1122 c 0
 356 1122 326 1073 326 1007 c 0
 326 851 331 637 331 450 c 0
 331 410 332 370 332 331 c 0
 332 251 329 176 309 117 c 0
 282 35 179 -9 123 -37 c 1
 31 211 l 1
 51 221 69 235 77 261 c 0
 85 287 86 323 86 398 c 0
 86 413 86 429 86 448 c 0
 86 635 77 829 77 1003 c 0xf4
EndSplineSet
Validated: 1
EndChar

StartChar: ampersand
Encoding: 38 38 168
Width: 1060
VWidth: 0
Flags: HW
HStem: -22 203<333.014 597.596> 1146 201<350.604 498.451>
VStem: 40 250<221.045 532.717> 94 238<905.711 1128.68> 509 243<931.937 1136.14> 767 220<404.953 648.958>
LayerCount: 2
Fore
SplineSet
404 867 m 1xdc
 465 915 509 995 509 1056 c 0
 509 1099 485 1146 430 1146 c 0
 372 1146 332 1096 332 1053 c 0
 332 981 359 920 404 867 c 1xdc
365 573 m 1
 319 530 290 444 290 370 c 0xec
 290 285 318 181 433 181 c 0
 519 181 582 208 615 238 c 1
 365 573 l 1
738 94 m 1
 651 12 549 -22 429 -22 c 0
 221 -22 40 70 40 367 c 0xec
 40 559 139 670 247 758 c 1
 154 843 94 950 94 1037 c 0xdc
 94 1249 256 1347 436 1347 c 0
 603 1347 752 1280 752 1082 c 0
 752 890 642 784 532 700 c 1
 748 400 l 1
 761 417 767 446 767 483 c 0
 767 529 758 587 743 652 c 1
 987 652 l 1
 987 364 888 246 888 246 c 1
 999 102 l 1
 832 -32 l 1
 738 94 l 1
EndSplineSet
Validated: 1
EndChar

StartChar: uni00B5
Encoding: 181 181 169
Width: 1060
VWidth: 6
Flags: HW
HStem: -17 21G<859 906.628> 2 204<364.082 575.724> 1000 20G<154.857 343>
VStem: 106 244<-395 8 218.457 876.355> 659 257<292.317 1000>
LayerCount: 2
Fore
SplineSet
326 8 m 1x78
 322 -398 l 1
 72 -395 l 1
 77 229 l 2
 77 311 78 408 78 504 c 0
 78 720 75 935 56 992 c 1
 304 1020 l 1
 326 928 320 664 322 298 c 1
 334 231 351 206 436 206 c 1x78
 634 206 658.92 369.989 659 418 c 2
 660 1014.7 l 1
 917 1014.7 l 1
 916 306 l 1
 918 254 983 187 1034 166 c 1
 891 -17 l 1xb8
 827 12 785 58 764 108 c 1
 689 31 574 5 424 2 c 1
 415 2 l 2
 386 2 356 4 326 8 c 1x78
EndSplineSet
EndChar

StartChar: paragraph
Encoding: 182 182 170
Width: 1060
VWidth: 0
Flags: HW
HStem: -10 21G<702 919> -10 21G<702 919> 1112 216<598.716 707>
VStem: 46 544<672.495 1109.02> 362 230<76.3197 445.778> 707 212<-9 1112>
LayerCount: 2
Fore
SplineSet
707 1041 m 2xb4
 707 1112 l 1
 696 1112 640 1112 618 1112 c 0
 608 1112 598 1112 590 1112 c 1xb4
 590 816 592 520 592 224 c 0
 592 132 554 -2 516 -41 c 1
 310 61 l 1
 332 103 362 141 362 221 c 2
 362 440 l 1xac
 188 452 46 627 46 924 c 0
 46 1016 65 1108 119 1174 c 0
 234 1315 405 1328 630 1328 c 0
 763 1328 801 1320 919 1320 c 1
 919 -9 l 1
 702 -10 l 1
 702 332 707 604 707 1041 c 2xb4
EndSplineSet
Validated: 1
EndChar

StartChar: dieresis
Encoding: 168 168 173
Width: 1060
VWidth: -28
Flags: HW
HStem: 1119 240<132 411 552 834>
VStem: 132 279<1119 1359> 552 282<1119 1356>
LayerCount: 2
Fore
SplineSet
132 1359 m 1
 411 1359 l 1
 411 1119 l 1
 132 1119 l 1
 132 1359 l 1
552 1359 m 1
 834 1356 l 1
 834 1116 l 1
 552 1119 l 1
 552 1359 l 1
EndSplineSet
Validated: 1
EndChar

StartChar: acute
Encoding: 180 180 174
Width: 1060
VWidth: -43
Flags: HW
HStem: 1267 442
VStem: 209 566
LayerCount: 2
Fore
SplineSet
209 1441 m 1
 352 1489 526 1601 641 1709 c 1
 775 1537 l 1
 664 1425 442 1314 299 1267 c 1
 209 1441 l 1
EndSplineSet
Validated: 1
EndChar

StartChar: degree
Encoding: 176 176 175
Width: 1060
VWidth: -8
Flags: HW
HStem: 1278 132<449.395 611.541> 1535 142<449.983 612.971>
VStem: 256 189<1419.88 1526.35> 617 190<1419.71 1526.35>
LayerCount: 2
Fore
SplineSet
256 1473 m 0
 256 1589 384 1677 532 1677 c 0
 680 1677 807 1589 807 1473 c 0
 807 1358 692 1278 532 1278 c 0
 379 1278 256 1359 256 1473 c 0
531 1535 m 0
 478 1535 445 1504 445 1473 c 0
 445 1442 479 1410 531 1410 c 0
 583 1410 617 1442 617 1473 c 0
 617 1504 584 1535 531 1535 c 0
EndSplineSet
Validated: 1
EndChar

StartChar: macron
Encoding: 175 175 176
Width: 1060
VWidth: -34
Flags: HW
HStem: 1463 194<248 748>
VStem: 248 500<1463 1652>
LayerCount: 2
Fore
SplineSet
748 1657 m 1
 748 1463 l 1
 731 1463 l 1
 673 1461 575 1456 501 1456 c 0
 427 1456 334 1457 266 1459 c 1
 248 1460 l 1
 248 1657 l 1
 267 1655 l 1
 332 1653 447 1652 539 1652 c 0
 600 1652 686 1657 731 1657 c 2
 748 1657 l 1
EndSplineSet
Validated: 1
EndChar

StartChar: dotlessi
Encoding: 305 305 177
Width: 1060
VWidth: 0
Flags: HW
HStem: -18 200<625.905 884.717> 813 200<134.449 364>
VStem: 364 256<191.813 813>
LayerCount: 2
Fore
SplineSet
364 1013 m 2
 619 1013 l 1
 619 740 620 274 620 274 c 2
 620 210 637 182 729 182 c 0
 822 182 882 215 942 273 c 1
 1039 83 l 1
 953 12 802 -18 678 -18 c 0
 593 -18 501 -4 457 20 c 0
 372 67 364 147 364 206 c 2
 364 813 l 1
 315 813 225 807 130 785 c 1
 101 971 l 1
 195 999 284 1013 364 1013 c 2
EndSplineSet
Validated: 1
EndChar

StartChar: asterisk
Encoding: 42 42 191
Width: 1060
VWidth: 0
Flags: HW
LayerCount: 2
Fore
SplineSet
420 792 m 1
 376 1198 l 1
 670 1200 l 1
 640 792 l 1
 922 972 l 1
 1036 724 l 1
 674 610 l 1
 950 340 l 1
 730 164 l 1
 534 518 l 1
 332 160 l 1
 126 332 l 1
 388 612 l 1
 42 706 l 1
 132 966 l 1
 420 792 l 1
EndSplineSet
Validated: 1
EndChar

StartChar: ordfeminine
Encoding: 170 170 193
Width: 1060
VWidth: 6
Flags: HW
HStem: 430 153<176 678> 659 108<330.49 489.335> 919 108<336.875 514.027> 1108 112<316.702 500.033>
VStem: 187 139<771.628 905.548> 515 134<795.021 908.124 1001 1090.43>
LayerCount: 2
Fore
SplineSet
678 583 m 1
 679 432 l 1
 662 432 l 1
 604 430 534 430 460 430 c 0
 433 430 406 430 379 430 c 0
 326 430 225 430 176 433 c 1
 175 585 l 1
 194 585 l 1
 259 583 405 583 497 583 c 0
 557 583 618 583 678 583 c 1
649 836 m 2
 649 786 659 758 690 734 c 1
 628 653 l 1
 599 675 581 680 558 719 c 1
 516 677 471 659 371 659 c 0
 277 659 187 730 187 828 c 0
 187 876 204 923 236 956 c 0
 288 1008 344 1027 422 1027 c 0
 457 1027 494 1015 515 1001 c 1
 515 1091 451 1108 418 1108 c 0
 355 1108 322 1076 292 1034 c 1
 185 1093 l 1
 238 1191 324 1218 422 1220 c 1
 546 1220 649 1148 649 1019 c 2
 649 836 l 2
326 836 m 0
 326 783 364 767 399 767 c 0
 459 767 505 822 515 852 c 1
 515 878 l 1
 495 900 457 919 422 919 c 0
 386 919 326 895 326 836 c 0
EndSplineSet
Validated: 1
EndChar

StartChar: logicalnot
Encoding: 172 172 194
Width: 1060
VWidth: 6
Flags: HW
HStem: 413 244<98 736>
VStem: 736 250<180 410>
LayerCount: 2
Fore
SplineSet
92 654 m 1
 137 656 187 657 237 657 c 0
 337 657 438 654 506 654 c 0
 547 654 586 654 625 654 c 0
 707 654 859 653 966 652 c 1
 984 652 l 1
 984 496 l 1
 986 496 l 1
 986 180 l 1
 736 180 l 1
 736 410 l 1
 652 410 568 410 504 410 c 0
 461 410 370 413 270 413 c 0
 213 413 153 412 98 409 c 1
 98 531 l 1
 92 654 l 1
EndSplineSet
Validated: 1
EndChar

StartChar: uni00AD
Encoding: 173 173 195
Width: 1060
VWidth: 6
Flags: HW
HStem: 448 152<163 917>
LayerCount: 2
Fore
SplineSet
157 592 m 1
 293 599 404 600 506 600 c 0
 547 600 586 600 625 600 c 0
 707 600 792 599 899 598 c 1
 917 598 l 1
 917 445 l 1
 899 445 l 1
 764 448 629 448 504 448 c 0
 437 448 315 447 163 439 c 1
 163 523 l 1
 157 592 l 1
EndSplineSet
Validated: 1
EndChar

StartChar: cedilla
Encoding: 184 184 198
Width: 1060
VWidth: 12
Flags: HW
HStem: -398 172<424.653 637.295> -119 176<459 638.875>
VStem: 640 224<-218.703 -124.173>
LayerCount: 2
Fore
SplineSet
682 56 m 1
 681 48 680 -16 680 -19 c 1
 777 -24 864 -81 864 -195 c 0
 864 -325 750 -398 592 -398 c 0
 526 -398 434 -380 378 -344 c 1
 438 -196 l 1
 471 -214 515 -226 566 -226 c 0
 602 -226 637 -214 640 -176 c 1
 640 -174 l 2
 640 -145 616 -119 568 -119 c 0
 520 -119 487 -121 459 -131 c 1
 459 57 l 1
 682 56 l 1
EndSplineSet
Validated: 1
EndChar

StartChar: ordmasculine
Encoding: 186 186 200
Width: 1060
VWidth: 6
Flags: HW
HStem: 430 153<176 678> 656 110<359.302 539.94> 1109 109<360.527 545.817>
VStem: 151 173<796.667 1073.76> 573 176<791.352 1085.37>
LayerCount: 2
Fore
SplineSet
450 656 m 2
 237 656 151 760 151 911 c 0
 151 1112 248 1218 449 1218 c 0
 584 1218 660 1180 708 1109 c 0
 736 1066 749 1005 749 953 c 0
 749 799 683 656 452 656 c 2
 450 656 l 2
531 793 m 1
 564 821 573 879 573 947 c 0
 573 950 573 952 573 955 c 0
 572 1040 547 1109 459 1109 c 0
 355 1109 324 1032 324 920 c 0
 324 830 368 766 451 766 c 0
 489 766 506 774 531 793 c 1
678 583 m 1
 679 432 l 1
 662 432 l 1
 604 430 534 430 460 430 c 0
 433 430 406 430 379 430 c 0
 326 430 225 430 176 433 c 1
 175 585 l 1
 194 585 l 1
 259 583 405 583 497 583 c 0
 557 583 618 583 678 583 c 1
EndSplineSet
Validated: 1
EndChar

StartChar: onequarter
Encoding: 188 188 201
Width: 1060
VWidth: 0
Flags: HW
HStem: 229 123<630 779 928 1002>
VStem: 278 140<666 1215> 779 149<0 227 352 541 665.52 761>
LayerCount: 2
Fore
SplineSet
287 1425 m 1
 418 1399 l 1
 418 666 l 1
 278 666 l 1
 277 1215 l 1
 241 1166 186 1107 116 1065 c 1
 38 1187 l 1
 204 1275 282 1417 287 1425 c 1
464 325 m 1
 483 352 737 606 783 761 c 1
 928 763 l 1
 928 352 l 1
 1002 352 l 1
 1002 229 l 1
 928 229 l 1
 928 0 l 1
 779 0 l 1
 779 227 l 1
 516 226 l 1
 464 325 l 1
779 352 m 1
 779 541 l 1
 736 466 678 401 630 350 c 1
 779 352 l 1
82 85 m 1
 498 700 l 1
 795 1382 l 1
 987 1280 l 1
 595 649 l 1
 276 -32 l 1
 82 85 l 1
EndSplineSet
Validated: 1
EndChar

StartChar: onehalf
Encoding: 189 189 202
Width: 1060
VWidth: 0
Flags: HW
HStem: 6 122<764 1055> 630 120<736.657 894.495>
VStem: 278 140<666 1215> 582 143<497.03 615.368> 906 139<434.598 621.16>
LayerCount: 2
Fore
SplineSet
287 1425 m 1
 418 1399 l 1
 418 666 l 1
 278 666 l 1
 277 1215 l 1
 241 1166 186 1107 116 1065 c 1
 38 1187 l 1
 204 1275 282 1417 287 1425 c 1
734 498 m 1
 593 474 l 1
 587 491 583 517 582 538 c 0
 582 543 582 547 582 552 c 0
 582 661 663 750 808 750 c 0
 960 750 1045 687 1045 533 c 0
 1045 420 979 361 934 313 c 1
 902 281 764 160 764 128 c 1
 1055 128 l 1
 1055 6 l 1
 570 6 l 1
 570 23 569 42 569 60 c 0
 569 75 570 90 573 106 c 0
 583 161 627 219 689 276 c 1
 759 342 906 436 906 534 c 0
 906 600 874 630 816 630 c 0
 774 630 725 605 725 548 c 0
 725 534 728 517 734 498 c 1
68 97 m 1
 484 712 l 1
 781 1394 l 1
 973 1292 l 1
 580 661 l 1
 262 -20 l 1
 68 97 l 1
EndSplineSet
Validated: 1
EndChar

StartChar: threequarters
Encoding: 190 190 203
Width: 1060
VWidth: 0
Flags: HW
HStem: 229 123<630 779 928 1002> 650 123<148.106 323.644> 1022 116<159 285.854> 1313 115<147.104 303.133>
VStem: -4 143<784.354 857> 310 145<1164.88 1306.32> 346 147<795.101 982.07> 779 149<0 227 352 541 665.52 761>
LayerCount: 2
Fore
SplineSet
464 325 m 1xf9
 483 352 737 606 783 761 c 1
 928 763 l 1
 928 352 l 1
 1002 352 l 1
 1002 229 l 1
 928 229 l 1
 928 0 l 1
 779 0 l 1
 779 227 l 1
 516 226 l 1
 464 325 l 1xf9
779 352 m 1
 779 541 l 1
 736 466 678 401 630 350 c 1
 779 352 l 1
-4 857 m 1
 139 857 l 1
 139 790 190 773 236 773 c 0
 304 773 346 828 346 883 c 0xfb
 346 947 320 971 289 991 c 1
 256 1013 205 1022 159 1022 c 1
 159 1138 l 1
 168 1138 l 2
 242 1138 310 1173 310 1247 c 0
 310 1286 279 1313 225 1313 c 0
 163 1313 130 1250 120 1229 c 1
 2 1308 l 1
 5 1317 60 1428 221 1428 c 2
 226 1428 l 2
 362 1428 455 1386 455 1257 c 0xfd
 455 1183 397 1101 340 1090 c 1
 445 1056 493 980 493 882 c 0xfb
 493 802 474 760 428 714 c 0
 387 672 322 650 231 650 c 0
 70 650 -4 739 -4 857 c 1
82 85 m 1
 498 700 l 1
 795 1382 l 1
 987 1280 l 1
 595 649 l 1
 276 -32 l 1
 82 85 l 1
EndSplineSet
Validated: 1
EndChar

StartChar: Aogonek
Encoding: 260 260 206
Width: 1060
VWidth: 32
Flags: HW
HStem: -390 135<802.702 1018.27> 306 243<400.988 659>
VStem: 594 201<-242.648 -100.395>
LayerCount: 2
Fore
SplineSet
430 1444 m 1
 665 1444 l 1
 1063 46 l 1
 967 0 795 -97 795 -181 c 2
 795 -183 l 2
 795 -226 841 -255 885 -255 c 0
 943 -255 991 -241 1024 -223 c 1
 1074 -314 l 1
 1018 -350 934 -390 843 -390 c 0
 759 -390 594 -345 594 -198 c 0
 594 -81 707 45 755 113 c 1
 703 306 l 1
 543 303 470 308 344 275 c 1
 247 -29 l 1
 -9 41 l 1
 430 1444 l 1
659 549 m 1
 632 705 543 920 542 1088 c 1
 536 905 438 682 398 530 c 1
 461 544 572 544 659 549 c 1
EndSplineSet
Validated: 1
EndChar

StartChar: aogonek
Encoding: 261 261 207
Width: 1060
VWidth: 32
Flags: HW
HStem: -388 136<798.702 1014.27> -11 200<334.777 563.837> 470 200<361.793 616.784> 820 208<332.171 596.221>
VStem: 56 253<217.581 419.927> 590 201<-239.682 -69.6309> 652 244<275.679 431.841 623 758.896>
LayerCount: 2
Fore
SplineSet
731 101 m 1xfc
 655 23 573 -11 391 -11 c 0
 220 -11 56 120 56 302 c 0
 56 392 86 479 145 540 c 0
 240 637 342 670 484 670 c 0
 548 670 614 649 652 623 c 1
 652 789 536 820 476 820 c 0
 361 820 302 760 248 683 c 1
 52 793 l 1
 148 975 306 1025 484 1028 c 1
 709 1028 896 893 896 655 c 2
 896 316 l 2xfa
 896 224 915 172 972 127 c 1
 914 32 791 -94 791 -178 c 2
 791 -180 l 2
 791 -223 837 -252 881 -252 c 0
 939 -252 987 -238 1020 -220 c 1
 1070 -312 l 1
 1014 -348 930 -388 839 -388 c 0
 755 -388 590 -342 590 -195 c 0
 590 -69 731 16 731 95 c 0
 731 97 731 99 731 101 c 1xfc
309 317 m 0
 309 219 378 189 442 189 c 0
 552 189 634 291 652 347 c 1
 652 394 l 1
 616 436 548 470 484 470 c 0
 418 470 309 427 309 317 c 0
EndSplineSet
Validated: 1
EndChar

StartChar: dcroat
Encoding: 273 273 209
Width: 1060
VWidth: -2
Flags: HW
HStem: -7 180<414.613 593.278> 813 200<426.098 618.902> 1093 194<409 692 939 980>
VStem: 103 255<235.51 735.573> 688 246<733.217 742.95 1287 1403>
LayerCount: 2
Fore
SplineSet
103 459 m 0
 103 840 225 1013 488 1013 c 0
 602 1013 675 958 712 930 c 1
 699 989 692 1035 689 1093 c 1
 409 1093 l 1
 409 1287 l 1
 692 1287 l 1
 694 1332 697 1375 702 1412 c 1
 950 1403 l 1
 946 1368 942 1329 939 1287 c 1
 980 1287 l 1
 980 1093 l 1
 935 1093 l 1
 935 824 934 497 934 267 c 0
 934 259 934 251 934 243 c 0
 934 160 943 73 953 7 c 1
 757 -13 l 1
 757 -13 712 51 712 93 c 1
 674 40 595 -7 471 -7 c 0
 220 -7 103 152 103 459 c 0
358 478 m 0
 358 288 398 173 506 173 c 0
 567 173 637 247 688 349 c 1
 688 683 l 1
 655 738 594 813 522 813 c 0
 430 813 358 741 358 478 c 0
EndSplineSet
Validated: 1
EndChar

StartChar: dcaron
Encoding: 271 271 210
Width: 1060
VWidth: 32
Flags: HW
HStem: -7 180<322.151 483.37> 813 200<332.514 506.492>
VStem: 40.9659 230.1<235.51 735.573> 568.842 221.076<274.508 742.95 933.594 1399.8> 835 193<1012 1347.59>
LayerCount: 2
Fore
SplineSet
41 459 m 0
 41 840 151 1013 388 1013 c 0
 491 1013 557 958 590 930 c 1
 574 1007 569 1062 569 1152 c 0
 569 1243 573 1339 581 1412 c 1
 805 1403 l 1
 799 1335 792 1251 792 1157 c 0
 792 877 790 516 790 267 c 0
 790 259 790 251 790 243 c 0
 790 160 799 73 808 7 c 1
 631 -13 l 1
 631 -13 590 51 590 93 c 1
 556 40 485 -7 373 -7 c 0
 147 -7 41 152 41 459 c 0
271 478 m 0
 271 288 307 173 405 173 c 0
 460 173 523 247 569 349 c 1
 569 683 l 1
 539 738 484 813 419 813 c 0
 336 813 271 741 271 478 c 0
1080 1391 m 1
 1059 1275 1050 1163 1028 1007 c 1
 835 1012 l 1
 834 1042 834 1072 834 1101 c 0
 834 1213 839 1320 843 1403 c 1
 1080 1391 l 1
EndSplineSet
Validated: 1
EndChar

StartChar: Eogonek
Encoding: 280 280 214
Width: 1060
VWidth: 32
Flags: HW
HStem: -403 135<801.702 1017.27> -3 222<367 649> 704 221<369 724> 1219 223<369 924>
VStem: 98 271<219 704 925 1219> 593 201<-255.648 -96.226>
LayerCount: 2
Fore
SplineSet
98 1438 m 1
 157 1442 230 1442 312 1442 c 0
 345 1442 379 1442 415 1442 c 2
 531 1442 l 2
 687 1442 830 1439 908 1439 c 2
 924 1439 l 1
 924 1219 l 1
 369 1219 l 1
 369 925 l 1
 724 925 l 1
 724 704 l 1
 369 704 l 1
 369 670 l 2
 369 444 367 305 367 219 c 1
 804 221 l 2
 863 221 935 251 935 251 c 1
 1011 34 l 1
 985 27 960 17 928 9 c 1
 870 -68 794 -119 794 -194 c 2
 794 -196 l 2
 794 -239 840 -268 884 -268 c 0
 942 -268 990 -254 1023 -236 c 1
 1073 -327 l 1
 1017 -363 933 -403 842 -403 c 0
 758 -403 593 -358 593 -211 c 0
 593 -115 620 -53 649 -3 c 1
 98 -3 l 1
 98 1438 l 1
EndSplineSet
Validated: 1
EndChar

StartChar: eogonek
Encoding: 281 281 215
Width: 1060
VWidth: 32
Flags: HW
HStem: -401 136<539.271 755.266> 434 196<414.825 686> 818 203<417.494 631.802>
VStem: 88 258<280.799 403.211 606 738.031> 331 200<-252.682 -92.9572> 686 261<630 763.58>
LayerCount: 2
Fore
SplineSet
346 606 m 1xf4
 459 626 553 630 686 630 c 1
 681 761 609 818 521 818 c 0
 419 818 352 722 346 606 c 1xf4
519 1021 m 0
 838 1021 947 813 947 477 c 0
 947 457 946 434 946 434 c 1
 661 430 448 416 346 396 c 1xf4
 362 285 426 196 518 196 c 0
 624 196 659 205 720 294 c 1
 920 166 l 1
 869 85 796 25 658 1 c 1
 601 -71 531 -119 531 -191 c 2
 531 -193 l 2
 531 -236 578 -265 622 -265 c 0
 680 -265 728 -251 761 -233 c 1
 811 -325 l 1
 755 -361 671 -401 580 -401 c 0
 496 -401 331 -355 331 -208 c 0xec
 331 -108 360 -46 390 5 c 1
 186 58 88 251 88 516 c 0
 88 802 236 1021 519 1021 c 0
EndSplineSet
Validated: 1
EndChar

StartChar: Iogonek
Encoding: 302 302 234
Width: 1060
VWidth: 32
Flags: HW
HStem: -397 136<769.202 984.766> -3 235<132 375> 1212 231<136 375 644 886>
VStem: 375 269<239 1220> 561 200<-248.682 -90.0526>
LayerCount: 2
Fore
SplineSet
130 1443 m 1xf0
 294 1447 399 1449 500 1449 c 0
 610 1449 716 1447 887 1445 c 1
 886 1215 l 1
 757 1215 744 1221 644 1221 c 1
 644 239 l 1xf0
 692 239 676 239 730 239 c 0
 777 239 826 238 881 235 c 1
 881 180 882 -1 882 -1 c 1
 827 -69 761 -118 761 -187 c 2
 761 -189 l 2
 761 -232 807 -261 851 -261 c 0
 909 -261 957 -247 990 -229 c 1
 1041 -321 l 1
 985 -357 901 -397 810 -397 c 0
 726 -397 561 -351 561 -204 c 0xe8
 561 -108 587 -48 616 2 c 1
 593 2 525 4 499 4 c 0
 421 4 295 -3 132 -3 c 1
 132 232 l 1
 221 236 261 238 321 238 c 2
 375 238 l 1
 375 1220 l 1
 306 1219 247 1219 136 1212 c 1
 130 1443 l 1xf0
EndSplineSet
Validated: 1
EndChar

StartChar: iogonek
Encoding: 303 303 235
Width: 1060
VWidth: 32
Flags: HW
HStem: -376 136<812.271 1028.27> 813 200<134.449 364> 1181 225<341 632>
VStem: 341 291<1181 1406> 364 256<191.813 813> 604 200<-227.682 -68.3479>
LayerCount: 2
Fore
SplineSet
341 1406 m 1xf0
 632 1406 l 1
 632 1181 l 1
 341 1181 l 1
 341 1406 l 1xf0
364 1013 m 2xe8
 619 1013 l 1
 619 740 620 274 620 274 c 2xe8
 620 210 637 182 729 182 c 0
 822 182 882 215 942 273 c 1
 1039 83 l 1
 1009 58 971 38 929 23 c 1
 873 -47 804 -95 804 -166 c 2
 804 -168 l 2
 804 -211 851 -240 895 -240 c 0
 953 -240 1001 -226 1034 -208 c 1
 1084 -300 l 1
 1028 -336 944 -376 853 -376 c 0
 769 -376 604 -330 604 -183 c 0xe4
 604 -111 619 -60 639 -17 c 1
 566 -13 494 0 457 20 c 0
 372 67 364 147 364 206 c 2
 364 813 l 1
 315 813 225 807 130 785 c 1
 101 971 l 1
 195 999 284 1013 364 1013 c 2xe8
EndSplineSet
Validated: 1
EndChar

StartChar: Lcaron
Encoding: 317 317 245
Width: 1060
VWidth: 32
Flags: HW
HStem: -3 229<346.5 913.368>
VStem: 79.5 267<226 1444> 675.5 192<1012 1347.59>
LayerCount: 2
Fore
SplineSet
996 1391 m 1
 976 1275 966 1163 944 1007 c 1
 752 1012 l 1
 750 1042 750 1072 750 1101 c 0
 750 1213 756 1320 760 1403 c 1
 996 1391 l 1
EndSplineSet
Refer: 35 76 N 1 0 0 1 0 0 2
Validated: 1
EndChar

StartChar: lcaron
Encoding: 318 318 246
Width: 1060
VWidth: 32
Flags: HW
HStem: -18 200<593.352 849.717> 1025 21G<768 973> 1230 200<99.45 330>
VStem: 330 256<191.813 1230> 768 194<1030 1371.02>
LayerCount: 2
Fore
SplineSet
1013 1409 m 1
 992 1293 984 1181 962 1025 c 1
 768 1030 l 1
 767 1060 767 1090 767 1119 c 0
 767 1231 772 1338 776 1421 c 1
 1013 1409 l 1
EndSplineSet
Refer: 12 108 N 1 0 0 1 0 0 2
Validated: 1
EndChar

StartChar: Eng
Encoding: 330 330 255
Width: 1060
VWidth: 0
Flags: HW
HStem: -432 242<402 611.537> -3 21G<70 336> 1185 228<460.462 677.814>
VStem: 70 266<0 1030.84> 726 265<-89.477 1132.94>
LayerCount: 2
Fore
SplineSet
558 1413 m 0
 862 1413 986 1200 986 937 c 0
 986 685 991 436 991 180 c 2
 991 143 l 2
 991 -136 962 -432 437 -432 c 2
 402 -432 l 1
 402 -190 l 1
 701 -190 726 -63 726 116 c 2
 726 929 l 2
 726 1130 681 1185 556 1185 c 0
 446 1185 374 1022 336 948 c 1
 336 0 l 1
 70 -3 l 1
 70 1154 l 2
 70 1279 29 1372 29 1372 c 1
 242 1438 l 1
 262 1395 278 1360 285 1276 c 1
 364 1358 436 1413 558 1413 c 0
EndSplineSet
Validated: 1
EndChar

StartChar: eng
Encoding: 331 331 256
Width: 1060
VWidth: 6
Flags: HW
HStem: -407 219<424 547.657> 819 207<449.788 640.643>
VStem: 110 252<0 737.647> 650 252<-84.5569 811.089>
LayerCount: 2
Fore
SplineSet
348 927 m 1
 404 977 500 1026 610 1026 c 0
 774 1026 902 960 902 796 c 2
 902 278 l 2
 902 -119 838 -407 424 -407 c 1
 424 -188 l 1
 640 -188 650 34 650 191 c 2
 648 699 l 2
 648 773 641 819 574 819 c 0
 511 819 446 781 361 707 c 1
 362 0 l 1
 110 0 l 1
 110 706 l 2
 110 884 102 910 78 1004 c 1
 310 1052 l 1
 320 1028 341 976 348 927 c 1
EndSplineSet
Validated: 1
EndChar

StartChar: Scedilla
Encoding: 350 350 273
Width: 1060
VWidth: 32
Flags: HW
HStem: -435 172<394.653 607.295> -156 374<431.446 605.203> 1219 229<365.762 619.287>
VStem: 19 280<297.375 458> 45 281<990.329 1182.54> 610 224<-255.703 -161.173> 744 271<280.654 550.051>
LayerCount: 2
Fore
SplineSet
234 765 m 0xf2
 118 819 45 920 45 1097 c 0
 45 1337 216 1448 484 1448 c 0
 487 1448 491 1448 494 1448 c 0
 746 1448 952 1358 999 1175 c 1
 712 1064 l 1
 664 1174 574 1219 500 1219 c 0
 410 1219 326 1179 326 1105 c 0
 326 998 385 972 446 948 c 0
 575 896 649 886 788 820 c 1
 901 762 1015 648 1015 432 c 0xea
 1015 155 854 30 651 -1 c 1
 650 -23 650 -54 650 -56 c 1
 747 -61 834 -118 834 -232 c 0
 834 -362 720 -435 562 -435 c 0
 496 -435 404 -417 348 -381 c 1
 408 -233 l 1
 441 -251 485 -263 536 -263 c 0
 572 -263 607 -251 610 -213 c 1
 610 -211 l 2xe4
 610 -182 586 -156 538 -156 c 0
 490 -156 457 -158 429 -168 c 1
 429 -3 l 1
 127 36 19 233 19 460 c 1
 299 458 l 1
 299 302 363 218 523 218 c 0
 636 218 744 257 744 416 c 0
 744 535 669 596 586 634 c 0
 464 690 374 699 234 765 c 0xf2
EndSplineSet
Validated: 1
EndChar

StartChar: scedilla
Encoding: 351 351 274
Width: 1060
VWidth: 32
Flags: HW
HStem: -460 172<346.654 559.301> -181 363<383.414 560.63> 829 200<379.317 646.781>
VStem: 74 253<211.251 330> 122 254<700.474 817.573> 562 224<-281.692 -187.173> 656 254<213.604 394.387>
LayerCount: 2
Fore
SplineSet
259 549 m 0xf2
 177 589 122 670 122 781 c 0
 122 967 312 1029 487 1029 c 0
 626 1029 779 1014 890 893 c 1
 713 730 l 1
 659 788 586 829 490 829 c 0
 408 829 376 807 376 768 c 0
 376 739 382 719 410 701 c 1
 666 597 910 562 910 278 c 0xea
 910 116 766 28 659 0 c 0
 641 -4 623 -8 604 -11 c 1
 604 -16 604 -26 604 -36 c 0
 604 -56 604 -80 604 -82 c 1
 701 -87 786 -144 786 -258 c 0
 786 -388 672 -460 514 -460 c 0
 448 -460 356 -442 300 -406 c 1
 360 -259 l 1
 393 -277 439 -288 490 -288 c 0
 526 -288 559 -277 562 -239 c 1
 562 -237 l 2xe4
 562 -208 539 -181 491 -181 c 0
 443 -181 410 -184 382 -194 c 1
 382 -12 l 1
 188 20 74 146 74 330 c 1
 327 330 l 1
 327 222 375 182 484 182 c 0
 543 182 656 202 656 290 c 0
 656 349 635 382 586 415 c 1
 517 459 352 504 259 549 c 0xf2
EndSplineSet
Validated: 1
EndChar

StartChar: Tcommaaccent
Encoding: 354 354 277
Width: 1060
VWidth: 32
Flags: HW
HStem: -450 172<354.653 567.295> 1219 225<32 364 637 945.961>
VStem: 364 273<-10 1219> 570 224<-270.703 -176.173>
LayerCount: 2
Fore
SplineSet
364 -10 m 1xe0
 364 1219 l 1
 156 1219 112 1218 32 1218 c 1
 32 1443 l 1
 160 1443 637 1444 834 1444 c 0
 911 1444 985 1435 1010 1427 c 1
 946 1206 l 1
 946 1206 892 1219 829 1219 c 2
 637 1219 l 1
 637 -10 l 1xe0
 611 -10 l 1
 610 -31 610 -69 610 -71 c 1
 707 -76 794 -133 794 -247 c 0
 794 -377 680 -450 522 -450 c 0
 456 -450 364 -432 308 -396 c 1
 368 -248 l 1
 401 -266 445 -278 496 -278 c 0
 532 -278 567 -266 570 -228 c 1
 570 -226 l 2xd0
 570 -197 546 -171 498 -171 c 0
 450 -171 417 -173 389 -183 c 1
 389 -10 l 1
 364 -10 l 1xe0
EndSplineSet
Validated: 1
EndChar

StartChar: tcommaaccent
Encoding: 355 355 278
Width: 1060
VWidth: 32
Flags: HW
HStem: -425 172<444.653 657.295> -146 342<481.315 658.566> 812 204<449 877>
VStem: 188 252<236.379 812 1020 1254> 660 224<-245.703 -151.173>
LayerCount: 2
Fore
SplineSet
440 436 m 1
 440 396 l 2
 440 262 479 214 563 200 c 0
 581 198 615 196 628 196 c 0
 693 196 723 210 748 224 c 0
 800 252 811 320 818 340 c 1
 1026 240 l 1
 1016 212 962 100 850 36 c 0
 809 12 758 0 701 -4 c 1
 701 -23 700 -44 700 -46 c 1
 797 -51 884 -108 884 -222 c 0
 884 -352 770 -425 612 -425 c 0
 546 -425 454 -407 398 -371 c 1
 458 -223 l 1
 491 -241 535 -253 586 -253 c 0
 622 -253 657 -241 660 -203 c 1
 660 -201 l 2
 660 -172 636 -146 588 -146 c 0
 540 -146 508 -148 480 -158 c 1
 480 2 l 1
 367 17 277 59 227 164 c 0
 192 236 188 312 188 398 c 2
 188 440 l 1
 190 530 192 648 197 812 c 1
 183 812 l 2
 155 812 127 808 101 800 c 1
 84 1004 l 1
 108 1012 153 1016 186 1016 c 2
 201 1016 l 1
 201 1086 202 1190 202 1260 c 1
 453 1254 l 1
 453 1188 452 1088 451 1020 c 1
 560 1020 872 1016 880 1016 c 1
 877 812 l 1
 740 812 582 814 449 814 c 1
 443 648 444 536 440 436 c 1
EndSplineSet
Validated: 1
EndChar

StartChar: tcaron
Encoding: 357 357 280
Width: 1060
VWidth: 32
Flags: HW
HStem: -6 202<462.235 750.078> 812 204<429 857>
VStem: 168 252<236.379 812 1020 1254> 652 193<1088 1430.02>
LayerCount: 2
Fore
SplineSet
916 1468 m 1
 895 1352 887 1240 865 1084 c 1
 672 1088 l 1
 671 1121 671 1154 671 1186 c 0
 671 1295 675 1399 679 1480 c 1
 916 1468 l 1
EndSplineSet
Refer: 19 116 N 1 0 0 1 0 0 2
Validated: 1
EndChar

StartChar: Uogonek
Encoding: 370 370 291
Width: 1060
VWidth: 32
Flags: HW
HStem: -417 136<538.202 753.766> 1449 3G<61 335 722 898.613>
VStem: 62 265<316.25 1449> 330 200<-268.682 -110.325> 719 269<342.441 1442.11>
LayerCount: 2
Fore
SplineSet
727 1472 m 1
 993 1441 l 1
 986 1387 984 1349 984 1303 c 0
 984 1293 984 1282 984 1271 c 0
 984 1110 988 968 988 845 c 2
 988 780 l 2
 988 522 983 276 865 132 c 0
 816 72 750 35 678 14 c 1
 620 -75 530 -126 530 -207 c 2
 530 -209 l 2
 530 -252 576 -281 620 -281 c 0
 678 -281 726 -267 759 -249 c 1
 810 -341 l 1
 754 -377 670 -417 579 -417 c 0
 495 -417 330 -371 330 -224 c 0
 330 -118 363 -55 395 -2 c 1
 160 38 78 214 62 497 c 0
 57 581 55 717 55 867 c 0
 55 1058 58 1274 64 1449 c 1
 335 1449 l 1
 331 1266 327 1016 327 810 c 0
 327 756 327 703 327 656 c 0
 327 586 328 528 333 488 c 0
 348 386 359 222 506 218 c 1
 716 228 719 470 719 783 c 0
 719 920 713 1082 713 1271 c 0
 713 1349 717 1403 727 1472 c 1
EndSplineSet
Validated: 1
EndChar

StartChar: uogonek
Encoding: 371 371 292
Width: 1060
VWidth: 32
Flags: HW
HStem: -399 136<777.271 992.77> 2 204<370.099 575.724> 1000 20G<154.857 343>
VStem: 105 245<220.841 876.355> 569 200<-250.682 -111.094> 659 257<292.317 1000>
LayerCount: 2
Fore
SplineSet
891 -17 m 1xf4
 859 -69 769 -141 769 -189 c 2
 769 -191 l 2
 769 -234 816 -263 860 -263 c 0
 918 -263 965 -249 998 -231 c 1
 1049 -323 l 1
 993 -359 909 -399 818 -399 c 0
 734 -399 569 -353 569 -206 c 0xf8
 569 -77 727 47 764 108 c 1
 689 31 602 5 452 2 c 1
 443 2 l 2
 291 2 105 53 105 229 c 0
 105 311 106 408 106 504 c 0
 106 720 103 935 84 992 c 1
 332 1020 l 1
 354 928 348 664 350 298 c 1
 362 231 381 206 466 206 c 1
 618 213 658 370 659 418 c 2
 660 1000 l 1
 917 1000 l 1
 916 306 l 1
 918 254 970 171 1021 150 c 1
 891 -17 l 1xf4
EndSplineSet
Validated: 1
EndChar

StartChar: longs
Encoding: 383 383 304
Width: 1060
VWidth: -2
Flags: HW
HStem: 807 205<109 252> 1217 201<534.522 799.055>
VStem: 252 257<0 807 1012 1188.92>
LayerCount: 2
Fore
SplineSet
509 1012 m 1
 509 0 l 1
 252 0 l 1
 252 807 l 1
 109 807 l 1
 109 1012 l 1
 252 1012 l 1
 252 1028 252 1045 252 1064 c 0
 252 1194 318 1418 634 1418 c 0
 830 1418 959 1376 1037 1221 c 1
 825 1124 l 1
 799 1206 741 1217 651 1217 c 0
 519 1217 508 1143 508 1083 c 0
 508 1056 509 1012 509 1012 c 1
EndSplineSet
Validated: 1
EndChar

StartChar: Euro
Encoding: 8364 8364 305
Width: 1060
VWidth: 0
Flags: HW
HStem: -31 213<501.198 722.038> 394 189<69.3943 170 452 645> 676 188<73.4799 171 455 742> 1125 218<517.65 729.742>
VStem: 170 276<267.456 394 584 676> 190 265<866 1040.75>
LayerCount: 2
Fore
SplineSet
804 866 m 1xf4
 742 682 l 1
 730 682 l 1
 673 680 642 676 566 676 c 0
 509 676 548 676 448 676 c 1
 448 653 446 631 446 609 c 0
 446 601 446 593 446 584 c 1
 476 583 480 583 518 583 c 0
 604 583 594 584 683 585 c 1
 709 585 l 1
 645 392 l 1
 452 394 l 1
 461 236 518 182 576 182 c 2
 594 182 l 2
 660 182 740 209 788 315 c 1
 989 156 l 1
 869 0 778 -31 591 -31 c 0
 512 -31 386 -3 302 107 c 0
 236 192 203 272 184 394 c 1
 157 395 133 396 109 396 c 0
 80 396 52 395 19 394 c 1
 31 448 49 522 74 583 c 1
 114 583 152 584 170 584 c 1
 170 601 170 617 170 632 c 0xf8
 170 647 170 662 171 676 c 1
 91 677 59 677 11 681 c 1
 34 737 60 826 79 870 c 1
 107 867 135 867 190 866 c 1
 209 978 228 1032 262 1108 c 0
 344 1287 509 1343 608 1343 c 0
 716 1343 830 1312 922 1209 c 1
 828 950 l 1
 774 1053 708 1125 611 1125 c 0
 518 1125 464 1040 455 864 c 1
 498 864 523 864 564 864 c 2
 564 864 607 864 641 864 c 1
 693 866 728 868 770 868 c 1
 804 866 l 1xf4
EndSplineSet
Validated: 1
EndChar

StartChar: uniE000
Encoding: 57344 57344 306
Width: 1060
VWidth: 6
Flags: HW
HStem: 390 154<428.981 583.371> 486 158<218.671 379.117>
VStem: 77 635
LayerCount: 2
Fore
SplineSet
86 491 m 1x60
 145 603 208 644 272 644 c 0x60
 376 644 471 544 529 544 c 0
 552 544 576 560 599 624 c 2
 608 650 l 1
 712 546 l 1
 705 532 l 1
 650 430 590 390 529 390 c 0xa0
 425 390 337 486 279 486 c 0
 252 486 229 475 204 409 c 2
 196 387 l 1
 77 475 l 1
 86 491 l 1x60
EndSplineSet
Validated: 1
EndChar

StartChar: uniE001
Encoding: 57345 57345 307
Width: 1060
VWidth: 6
Flags: HW
HStem: -312 150<357.529 585.23> -11 152<380.059 500.911> 513 151<413.205 560.976> 894 150<405.333 542.135> 1191 152<355.927 576.731>
VStem: 33 123<166.673 870.319> 229 129<151.289 456.948> 575 117<224.252 496.71> 784 114<148.623 863.075>
LayerCount: 2
Fore
SplineSet
415 141 m 0
 441 141 469 155 486 170 c 0
 551 229 564 299 575 334 c 1
 575 367 574 433 574 452 c 1
 543 495 513 513 482 513 c 0
 481 513 480 513 479 513 c 0
 424 511 358 415 358 310 c 0
 358 308 358 307 358 305 c 0
 361 201 392 141 415 141 c 0
416 -11 m 1
 285 -5 229 154 229 299 c 0
 229 300 229 302 229 303 c 0
 229 380 246 461 281 524 c 0
 339 628 413 661 482 664 c 0
 485 664 487 664 490 664 c 0
 526 664 555 652 574 641 c 1
 565 806 556 894 472 894 c 0
 413 894 406 860 350 727 c 1
 342 709 l 1
 238 770 l 1
 244 787 l 1
 299 963 374 1041 472 1044 c 1
 513 1044 571 1025 612 967 c 0
 654 907 692 805 692 663 c 2
 692 229 l 1
 695 155 700 157 719 133 c 0
 720 131 724 128 727 126 c 1
 737 132 743 149 749 169 c 0
 781 267 784 386 784 515 c 0
 784 900 645 1191 466 1191 c 0
 288 1191 156 901 156 515 c 0
 156 129 296 -162 466 -162 c 0
 526 -162 584 -129 634 -72 c 1
 646 -57 l 1
 723 -153 l 1
 712 -166 l 2
 649 -239 552 -312 466 -312 c 0
 219 -312 33 68 33 515 c 0
 33 962 219 1343 466 1343 c 0
 713 1343 898 962 898 515 c 0
 898 364 876 222 840 98 c 1
 831 71 799 -26 732 -26 c 0
 731 -26 730 -26 729 -26 c 2
 727 -26 l 1
 726 -25 l 1
 707 -20 678 -9 658 16 c 1
 657 16 l 1
 645 34 619 59 606 110 c 1
 583 80 563 65 534 38 c 1
 502 11 461 -11 416 -11 c 1
EndSplineSet
Validated: 1
EndChar

StartChar: uniE002
Encoding: 57346 57346 308
Width: 1060
VWidth: 6
Flags: HW
HStem: -310 150<424.529 652.23> -9 153<501.048 619.012> 702 152<510.409 659.08> 1198 153<419.668 618.797>
VStem: 100 123<169.451 874.351> 325 129<193.676 639.402> 693 117<227.653 665.965>
LayerCount: 2
Fore
SplineSet
534 144 m 0
 560 144 587 158 604 173 c 0
 669 232 682 301 693 336 c 1
 693 621 l 1
 661 665 606 702 577 702 c 0
 477 702 454 498 454 375 c 0
 454 370 454 365 454 360 c 0
 457 256 513 144 534 144 c 0
810 703 m 2
 810 703 810 678 810 666 c 2
 810 231 l 1
 813 159 832 126 864 98 c 2
 881 83 l 1
 786 4 l 1
 775 20 l 2
 762 39 737 63 724 113 c 1
 701 83 681 68 652 41 c 1
 620 14 580 -9 534 -9 c 1
 399 -2 325 233 325 378 c 0
 325 379 325 380 325 381 c 0
 325 393 325 407 325 422 c 0
 325 496 329 600 378 711 c 0
 428 823 513 851 581 854 c 0
 583 854 585 854 587 854 c 0
 630 854 668 835 690 821 c 1
 688 854 687 882 685 903 c 0
 676 1031 665 1198 519 1198 c 0
 362 1198 223 905 223 518 c 0
 223 132 363 -160 533 -160 c 0
 593 -160 651 -126 701 -69 c 1
 713 -54 l 1
 789 -150 l 1
 779 -163 l 1
 716 -236 619 -310 533 -310 c 0
 286 -310 100 71 100 518 c 0
 100 964 272 1351 519 1351 c 0
 784 1351 810 996 810 703 c 2
EndSplineSet
Validated: 1
EndChar

StartChar: gravecomb
Encoding: 768 768 309
Width: 1060
VWidth: -43
Flags: HW
HStem: 1267 442
VStem: 203 566
LayerCount: 2
Fore
SplineSet
769 1441 m 1
 679 1267 l 1
 536 1314 314 1425 203 1537 c 1
 337 1709 l 1
 452 1601 626 1489 769 1441 c 1
EndSplineSet
Validated: 1
EndChar

StartChar: acutecomb
Encoding: 769 769 310
Width: 1060
VWidth: -43
Flags: HW
HStem: 1267 442
VStem: 209 566
LayerCount: 2
Fore
SplineSet
209 1441 m 1
 352 1489 526 1601 641 1709 c 1
 775 1537 l 1
 664 1425 442 1314 299 1267 c 1
 209 1441 l 1
EndSplineSet
Validated: 1
EndChar

StartChar: uni0302
Encoding: 770 770 311
Width: 1060
VWidth: -10
Flags: HW
HStem: 1252 447
LayerCount: 2
Fore
SplineSet
539 1699 m 1
 917 1408 l 1
 779 1252 l 1
 539 1453 l 1
 317 1264 l 1
 173 1402 l 1
 539 1699 l 1
EndSplineSet
Validated: 1
EndChar

StartChar: tildecomb
Encoding: 771 771 312
Width: 1060
VWidth: -12
Flags: HW
HStem: 1376 178<586.92 745.997> 1506 180<308.718 472.459>
LayerCount: 2
Fore
SplineSet
349 1686 m 0x40
 565 1686 584 1554 674 1554 c 0
 724 1554 754 1585 760 1654 c 1
 937 1600 l 1
 916 1504 858 1376 696 1376 c 0x80
 498 1376 477 1506 376 1506 c 0
 334 1506 297 1469 288 1406 c 1
 104 1484 l 1
 137 1577 208 1686 349 1686 c 0x40
EndSplineSet
Validated: 1
EndChar

StartChar: uni0304
Encoding: 772 772 313
Width: 1060
VWidth: -34
Flags: HW
HStem: 1463 194<248 748>
VStem: 248 500<1463 1652>
LayerCount: 2
Fore
SplineSet
748 1657 m 1
 748 1463 l 1
 731 1463 l 1
 673 1461 575 1456 501 1456 c 0
 427 1456 334 1457 266 1459 c 1
 248 1460 l 1
 248 1657 l 1
 267 1655 l 1
 332 1653 447 1652 539 1652 c 0
 600 1652 686 1657 731 1657 c 2
 748 1657 l 1
EndSplineSet
Validated: 1
EndChar

StartChar: uni0305
Encoding: 773 773 314
Width: 1060
VWidth: -34
Flags: HW
HStem: 1458 203<97 889>
LayerCount: 2
Fore
SplineSet
889 1658 m 1
 889 1457 l 1
 97 1458 l 1
 97 1661 l 1
 889 1658 l 1
EndSplineSet
Validated: 1
EndChar

StartChar: uni0306
Encoding: 774 774 315
Width: 1060
VWidth: -12
Flags: HW
HStem: 1325 183<398.837 650.214>
LayerCount: 2
Fore
SplineSet
520 1508 m 0
 628 1508 694 1571 700 1649 c 1
 919 1619 l 1
 895 1442 766 1325 526 1325 c 0
 301 1325 169 1403 121 1628 c 1
 340 1658 l 1
 367 1541 445 1508 520 1508 c 0
EndSplineSet
Validated: 1
EndChar

StartChar: uni0308
Encoding: 776 776 316
Width: 1060
VWidth: -28
Flags: HW
HStem: 1414 240<156 435 576 858>
VStem: 156 279<1414 1654> 576 282<1414 1651>
LayerCount: 2
Fore
SplineSet
156 1654 m 1
 435 1654 l 1
 435 1414 l 1
 156 1414 l 1
 156 1654 l 1
576 1654 m 1
 858 1651 l 1
 858 1411 l 1
 576 1414 l 1
 576 1654 l 1
EndSplineSet
Validated: 1
EndChar

StartChar: uni0307
Encoding: 775 775 317
Width: 1060
VWidth: -28
Flags: HW
HStem: 1425 246<321 604>
VStem: 321 285<1425 1671>
LayerCount: 2
Fore
SplineSet
320 1671 m 1
 604 1671 l 1
 606 1425 l 1
 321 1425 l 1
 320 1671 l 1
EndSplineSet
Validated: 1
EndChar

StartChar: uni030A
Encoding: 778 778 318
Width: 1060
VWidth: -8
Flags: HW
HStem: 1278 132<449.395 611.541> 1535 142<449.983 612.971>
VStem: 256 189<1419.88 1526.35> 617 190<1419.71 1526.35>
LayerCount: 2
Fore
SplineSet
256 1473 m 0
 256 1589 384 1677 532 1677 c 0
 680 1677 807 1589 807 1473 c 0
 807 1358 692 1278 532 1278 c 0
 379 1278 256 1359 256 1473 c 0
531 1535 m 0
 478 1535 445 1504 445 1473 c 0
 445 1442 479 1410 531 1410 c 0
 583 1410 617 1442 617 1473 c 0
 617 1504 584 1535 531 1535 c 0
EndSplineSet
Validated: 1
EndChar

StartChar: uni0237
Encoding: 567 567 319
Width: 1060
VWidth: 0
Flags: HW
HStem: -389 201<355.489 571.649> -28 20G<221.838 287> 813 200<367.45 598>
VStem: 598 254<-163.515 813>
LayerCount: 2
Fore
SplineSet
852 -78 m 2
 852 -231 771 -389 485 -389 c 0
 362 -389 206 -361 80 -156 c 1
 244 -8 l 1
 330 -153 399 -188 462 -188 c 0
 468 -188 475 -188 480 -188 c 0
 600 -188 596 -83 598 -48 c 1
 598 813 l 1
 549 813 458 807 363 785 c 1
 334 971 l 1
 428 999 518 1013 598 1013 c 2
 852 1013 l 1
 852 -78 l 2
EndSplineSet
Validated: 1
EndChar

StartChar: uni030B
Encoding: 779 779 320
Width: 1060
VWidth: -43
Flags: HW
HStem: 1150 545
LayerCount: 2
Fore
SplineSet
98 1293 m 1
 215 1388 328 1554 398 1695 c 1
 598 1568 l 1
 533 1424 363 1244 245 1150 c 1
 98 1293 l 1
481 1286 m 1
 598 1381 711 1547 781 1688 c 1
 982 1561 l 1
 917 1417 746 1237 628 1143 c 1
 481 1286 l 1
EndSplineSet
Validated: 1
EndChar

StartChar: uni030C
Encoding: 780 780 321
Width: 1060
VWidth: -10
Flags: HW
HStem: 1206 447
LayerCount: 2
Fore
SplineSet
532 1206 m 1
 166 1503 l 1
 310 1641 l 1
 532 1452 l 1
 772 1653 l 1
 910 1497 l 1
 532 1206 l 1
EndSplineSet
Validated: 1
EndChar

StartChar: uni030F
Encoding: 783 783 322
Width: 1060
VWidth: -43
Flags: HW
HStem: 1170 552
LayerCount: 2
Fore
SplineSet
971 1320 m 1
 824 1178 l 1
 706 1272 535 1452 470 1596 c 1
 671 1722 l 1
 741 1581 854 1415 971 1320 c 1
588 1313 m 1
 440 1170 l 1
 322 1264 152 1444 87 1588 c 1
 288 1715 l 1
 358 1574 471 1408 588 1313 c 1
EndSplineSet
Validated: 1
EndChar

StartChar: uni0191
Encoding: 401 401 326
Width: 1060
VWidth: 0
Flags: HW
HStem: 700 235<420 768.162> 1215 228<420 971.737>
VStem: 146 274<-19.3474 698 933 1214>
LayerCount: 2
Fore
SplineSet
425 85 m 1
 419 -118 348 -330 -1 -330 c 1
 -1 -43 l 1
 108 -43 138 -8 146 93 c 1
 146 1443 l 1
 865 1443 l 2
 972 1443 1019 1425 1055 1406 c 1
 973 1185 l 1
 946 1200 923 1214 820 1215 c 1
 746 1215 l 2
 637 1215 612 1215 420 1214 c 1
 420 933 l 1
 546 933 506 935 634 935 c 0
 728 935 799 916 841 896 c 1
 770 676 l 1
 731 695 678 700 631 700 c 0
 587 700 563 700 542 700 c 0
 510 700 488 700 420 698 c 1
 420 588 424 257 425 85 c 1
EndSplineSet
Validated: 1
EndChar

StartChar: florin
Encoding: 402 402 327
Width: 1060
VWidth: -2
Flags: HW
HStem: -340 244<96 230.131> 807 205<146 288 546 861.016> 1217 201<570.772 784.381>
VStem: 288 256<-40.1864 807 1012 1188.92>
LayerCount: 2
Fore
SplineSet
545 126 m 1
 541 -120 414 -340 94 -340 c 1
 96 -96 l 1
 238 -96 284 -30 288 138 c 1
 288 807 l 1
 146 807 l 1
 146 1012 l 1
 288 1012 l 1
 288 1028 288 1045 288 1064 c 0
 288 1194 354 1418 670 1418 c 0
 866 1418 946 1368 1024 1213 c 1
 812 1116 l 1
 786 1198 749 1217 688 1217 c 0
 556 1217 544 1143 544 1083 c 0
 544 1056 546 1012 546 1012 c 1
 614 1012 657 1012 730 1012 c 0
 835 1012 876 1000 906 991 c 1
 862 794 l 1
 841 801 820 807 764 807 c 2
 544 807 l 1
 545 126 l 1
EndSplineSet
Validated: 1
EndChar

StartChar: alpha
Encoding: 945 945 328
Width: 1060
VWidth: 4
Flags: HW
HStem: -7 206<371.987 493.349> 815 203<364.921 491.563>
VStem: 53 253<271.384 748.807>
LayerCount: 2
Fore
SplineSet
850 493 m 1
 874 416 881 360 913 263 c 0
 932 205 964 179 1030 153 c 1
 928 -32 l 1
 800 0 744 87 726 147 c 0
 719 170 712 193 705 215 c 1
 640 67 567 -7 436 -7 c 0
 148 -7 53 259 53 527 c 0
 53 894 242 1018 417 1018 c 0
 582 1018 668 923 716 767 c 1
 747 866 764 944 800 1037 c 1
 1020 967 l 1
 955 841 902 661 850 493 c 1
306 524 m 0
 306 205 425 199 436 199 c 2
 444 199 l 2
 497 199 537 326 577 495 c 1
 531 711 500 815 427 815 c 0
 378 815 306 730 306 524 c 0
EndSplineSet
Validated: 1
EndChar

StartChar: beta
Encoding: 946 946 329
Width: 1060
VWidth: 0
Flags: HW
HStem: 0 199<482.635 720.883> 634 207<406 553.499> 1122 206<365.454 549.604>
VStem: 94 252<339.205 1105.34> 104 234<-283.026 112> 582 246<871.698 1090.33> 756 246<232.594 529.85>
LayerCount: 2
Back
SplineSet
67 1003 m 4xf4
 67 1159 183 1328 390 1328 c 4
 626 1328 798 1243 798 1009 c 5xf4
 798 886 753 815 670 779 c 5
 814 754 972 661 972 381 c 4
 972 76 844 -2 624 -2 c 4
 437 -2 373 95 373 298 c 4
 373 306 374 314 374 322 c 5
 578 320 l 5
 578 257 583 199 646 199 c 4
 700 199 728 247 728 395 c 4xfa
 728 504 664 634 376 634 c 5
 376 840 l 5
 541 840 554 905 554 1003 c 4
 554 1088 472 1122 413 1122 c 5
 346 1122 316 1073 316 1007 c 4
 316 851 321 637 321 450 c 4
 321 410 322 370 322 331 c 4
 322 251 319 176 299 117 c 4
 272 35 169 -9 113 -37 c 5
 21 211 l 5
 41 221 59 235 67 261 c 4
 75 287 76 323 76 398 c 4
 76 413 76 429 76 448 c 4
 76 635 67 829 67 1003 c 4xf4
EndSplineSet
Fore
SplineSet
338 112 m 1xea
 338 83 338 59 338 39 c 0
 338 -85 334 -203 326 -300 c 1
 90 -283 l 1
 100 -183 104 -74 104 37 c 0xea
 104 224 94 829 94 1003 c 0
 94 1159 206 1328 404 1328 c 0
 608 1328 828 1274 828 1010 c 0xf4
 828 832 736 802 702 779 c 1
 870 749 1002 636 1002 382 c 0
 1002 50 858 0 614 0 c 0
 612 0 608 0 606 0 c 0
 478 0 428 39 338 112 c 1xea
616 199 m 0
 738 199 756 291 756 387 c 0xf2
 756 570 608 634 406 634 c 1
 406 841 l 1
 546 841 582 883 582 1003 c 0
 582 1058 538 1122 442 1122 c 0
 382 1122 346 1083 346 993 c 0xf4
 346 893 350 640 350 398 c 1
 448 223 552 199 616 199 c 0
EndSplineSet
Validated: 1
EndChar

StartChar: gamma
Encoding: 947 947 330
Width: 1060
VWidth: 14
Flags: HW
HStem: 820 221<30 144.972>
VStem: 469 258<-376 144.128>
LayerCount: 2
Fore
SplineSet
469 -376 m 1
 469 -269 466 -10 448 68 c 0
 391 315 262 583 168 740 c 0
 133 799 118 804 106 811 c 0
 91 820 70 820 45 820 c 0
 40 820 35 819 30 819 c 1
 30 1041 l 1
 63 1041 102 1040 130 1036 c 0
 193 1026 268 1010 328 917 c 0
 425 765 518 552 588 351 c 1
 662 568 796 1061 796 1061 c 1
 1024 986 l 1
 1024 986 816 387 720 15 c 1
 726 -67 727 -175 727 -291 c 0
 727 -320 727 -350 727 -379 c 1
 469 -376 l 1
EndSplineSet
Validated: 1
EndChar

StartChar: delta
Encoding: 948 948 331
Width: 1060
VWidth: 6
Flags: HW
HStem: 1 197<415.49 623.716> 1182 197<328.234 725.362>
VStem: 82 251<284.544 655.108 1074.49 1174.88> 695 249<270.88 620.937>
LayerCount: 2
Back
SplineSet
625 247 m 1
 672 299 685 403 685 530 c 0
 685 536 685 540 685 546 c 0
 683 703 648 830 520 830 c 0
 369 830 324 690 324 482 c 0
 324 316 387 197 508 197 c 1
 563 198 589 211 625 247 c 1
507 -6 m 1
 197 -6 72 184 72 464 c 0
 72 835 213 1032 505 1032 c 0
 702 1032 812 963 882 831 c 0
 923 752 941 639 941 543 c 0
 941 258 845 -6 509 -6 c 2
 507 -6 l 1
EndSplineSet
Fore
SplineSet
515 748 m 1
 350 716 333 556 333 469 c 0
 333 366 367 198 526 198 c 0
 695 198 695 429 695 506 c 0
 695 565 641 679 515 748 c 1
944 504 m 0
 944 244 848 1 526 1 c 2
 524 1 l 1
 252 2 82 184 82 464 c 0
 82 655 159 824 275 854 c 1
 230 876 214 894 187 915 c 0
 141 952 81 1027 81 1103 c 0
 81 1341 272 1379 482 1379 c 0
 606 1379 745 1351 866 1322 c 1
 824 1111 l 1
 691 1148 570 1182 474 1182 c 0
 387 1182 325 1176 325 1129 c 0
 325 1101 368 1079 400 1063 c 0
 665 934 944 838 944 504 c 0
EndSplineSet
Validated: 1
EndChar

StartChar: epsilon
Encoding: 949 949 332
Width: 1060
VWidth: 0
Flags: HW
HStem: -4 197<407.222 830.29> 469 196<450.995 717> 825 199<438.969 848.822>
VStem: 103 266<234.292 417.901> 161 268<693.809 806.615>
LayerCount: 2
Fore
SplineSet
1037 138 m 5xf0
 966 85 796 -4 573 -4 c 4
 391 -4 298 14 223 73 c 4
 146 134 103 236 103 301 c 4xf0
 103 431 161 548 313 584 c 5
 203 608 161 691 161 789 c 4
 161 973 377 1024 582 1024 c 6
 595 1024 l 6
 828 1024 900 972 918 960 c 5
 850 784 l 5
 826 799 729 825 584 825 c 4
 469 825 429 787 429 761 c 4xe8
 429 666 577 665 687 665 c 6
 694 665 l 5
 699 665 l 5
 717 665 l 5
 717 468 l 5
 691 468 665 469 639 469 c 4
 438 469 369 418 369 306 c 4
 369 257 417 193 598 193 c 4
 766 193 873 249 924 295 c 5
 1037 138 l 5xf0
EndSplineSet
Validated: 1
EndChar

StartChar: zeta
Encoding: 950 950 333
Width: 1060
VWidth: 0
Flags: HW
HStem: -347 198<659.393 768.327> 0 215<454.008 779.398> 1155 197<222.111 642.196>
VStem: 138 258<282.446 666.233> 788 222<-118.439 -8.49052>
LayerCount: 2
Fore
SplineSet
204 1414 m 1
 244 1372 280 1352 360 1352 c 0
 526 1352 836 1358 968 1376 c 1
 1050 1176 l 1
 910 978 396 846 396 504 c 0
 396 321 448 215 540 215 c 0
 544 215 712 216 716 216 c 0
 922 216 1010 91 1010 -66 c 0
 1010 -297 752 -337 662 -347 c 1
 626 -149 l 1
 710 -136 788 -115 788 -77 c 0
 788 -3 736 0 648 0 c 0
 642 0 636 0 628 0 c 0
 624 0 494 0 490 0 c 0
 288 0 138 177 138 504 c 0
 138 861 402 991 646 1164 c 1
 516 1157 508 1155 380 1155 c 0
 266 1155 148 1175 70 1274 c 1
 204 1414 l 1
EndSplineSet
Validated: 1
EndChar

StartChar: eta
Encoding: 951 951 334
Width: 1060
VWidth: 6
Flags: HW
HStem: 819 207<460.428 690.422>
VStem: 110 252<0 737.647> 701 252<-309.685 811.126>
LayerCount: 2
Fore
SplineSet
953 296 m 1
 954 -61 l 2
 954 -127 968 -264 986 -312 c 1
 748 -374 l 1
 730 -295 701 -230 701 -68 c 2
 701 210 l 1
 700 717 l 2
 700 791 675 819 608 819 c 0
 545 819 446 781 361 707 c 1
 362 0 l 1
 110 0 l 1
 110 706 l 2
 110 884 102 910 78 1004 c 1
 310 1052 l 1
 320 1028 341 976 348 927 c 1
 404 977 534 1026 644 1026 c 0
 808 1026 953 978 953 814 c 2
 953 296 l 1
EndSplineSet
Validated: 1
EndChar

StartChar: theta
Encoding: 952 952 335
Width: 1060
VWidth: 0
Flags: HW
HStem: -16 203<398.535 626.815> 564 225<307.162 738> 1147 203<418.211 628.958>
VStem: 30 262<318.901 552.548 773 960.271> 741 261<341.03 562 788 985.544>
LayerCount: 2
Fore
SplineSet
738 788 m 1
 730 864 716 942 692 1002 c 0
 649 1108 597 1147 532 1147 c 0
 462 1147 421 1122 378 1051 c 0
 342 992 313 906 299 773 c 1
 474 784 593 789 677 789 c 0
 700 789 720 789 738 788 c 1
353 284 m 0
 390 224 440 187 520 187 c 0
 605 187 659 249 692 326 c 1
 714 371 733 472 741 562 c 1
 715 563 686 564 656 564 c 0
 554 564 429 558 292 550 c 1
 297 457 318 342 353 284 c 0
532 1350 m 1
 693 1350 997 1277 1002 647 c 1
 1002 636 l 2
 1002 469 958 312 910 217 c 0
 835 70 685 -16 520 -16 c 0
 398 -16 249 25 168 127 c 0
 78 239 30 395 30 579 c 0
 30 931 106 1090 176 1187 c 0
 242 1279 376 1347 532 1350 c 1
EndSplineSet
Validated: 1
EndChar

StartChar: iota
Encoding: 953 953 336
Width: 1060
VWidth: 0
Flags: HW
HStem: -18 202<637.008 794.813> 813 200<134.449 364>
VStem: 364 256<197.57 813>
LayerCount: 2
Fore
SplineSet
364 1013 m 2
 619 1013 l 1
 619 740 620 296 620 296 c 2
 620 232 654 184 712 184 c 0
 757 184 842 252 860 336 c 1
 1040 238 l 1
 1010 98 906 -18 678 -18 c 0
 593 -18 501 -4 457 20 c 0
 372 67 364 147 364 206 c 2
 364 813 l 1
 315 813 225 807 130 785 c 1
 101 971 l 1
 195 999 284 1013 364 1013 c 2
EndSplineSet
Validated: 1
EndChar

StartChar: kappa
Encoding: 954 954 337
Width: 1060
VWidth: 0
Flags: HW
HStem: -16 21G<771 831.46> 1002 20G<90 348>
VStem: 90 258<0 325.312 676 1022>
LayerCount: 2
Fore
SplineSet
594 588 m 1
 714 469 979 248 1030 110 c 1
 794 -16 l 1
 748 95 564 251 434 380 c 1
 434 380 378 318 348 246 c 1
 348 0 l 1
 90 0 l 1
 90 1022 l 1
 348 1022 l 1
 348 676 l 1
 451 821 824 1038 876 1058 c 1
 1018 856 l 1
 812 738 654 662 594 588 c 1
EndSplineSet
Validated: 1
EndChar

StartChar: lambda
Encoding: 955 955 338
Width: 1060
VWidth: 14
Flags: HW
HStem: -10 21G<173.542 288> -10 21G<173.542 288> 0 244<767 973.142> 1178 211<248.638 343.773>
LayerCount: 2
Fore
SplineSet
215 -10 m 1x90
 16 86 l 1
 88 220 313 616 410 964 c 1
 372 1070 338 1178 305 1178 c 0
 253 1178 243 1140 243 1102 c 1
 32 1104 l 1
 32 1317 157 1389 316 1389 c 0
 465 1389 554 1287 595 1191 c 0
 703 938 784 599 835 415 c 0
 853 350 883 244 917 244 c 0
 943 244 962 256 962 256 c 1
 1044 60 l 1
 970 10 952 0 850 0 c 0x30
 684 0 621 252 601 332 c 0
 581 413 550 523 515 650 c 1
 415 376 361 257 215 -10 c 1x90
EndSplineSet
Validated: 1
EndChar

StartChar: nu
Encoding: 957 957 340
Width: 1060
VWidth: 6
Flags: HW
HStem: -8 21G<352 518.5>
VStem: 755 256<437.64 922.319>
LayerCount: 2
Fore
SplineSet
219 1054 m 1
 389 771 480 508 548 251 c 1
 719 372 755 488 755 704 c 0
 755 846 709 924 689 972 c 1
 926 1054 l 1
 983 954 1011 840 1011 726 c 0
 1011 190 685 -8 352 -8 c 1
 352 250 133 741 7 924 c 1
 219 1054 l 1
EndSplineSet
Validated: 1
EndChar

StartChar: xi
Encoding: 958 958 341
Width: 1060
VWidth: 0
Flags: HW
HStem: -347 198<665.393 773.531> 0 215<401.407 787.252> 661 197<654.113 804> 1155 197<234.124 448.274>
VStem: 100 258<262.383 463.204> 282 266<889.587 1016.66> 792 222<-117.126 -10.4223>
LayerCount: 2
Fore
SplineSet
200 1428 m 1xf6
 240 1386 286 1352 368 1352 c 0
 532 1352 724 1358 856 1376 c 1
 942 1177 l 1
 860 1103 548 1046 548 964 c 0xf6
 548 871 654 858 804 858 c 1
 804 661 l 1
 540 595 358 504 358 339 c 0
 358 303 396 215 546 215 c 0
 548 215 718 216 720 216 c 0
 886 216 1014 134 1014 -66 c 0
 1014 -280 790 -335 668 -347 c 1
 632 -149 l 1
 716 -136 792 -117 792 -77 c 0
 792 -21 766 0 678 0 c 0
 670 0 664 0 658 0 c 0
 654 0 498 0 494 0 c 0
 294 0 100 58 100 325 c 0xfa
 100 577 318 716 434 752 c 1
 392 763 282 799 282 967 c 0
 282 1057 358 1125 450 1161 c 1
 450 1161 392 1155 362 1155 c 0
 246 1155 148 1182 72 1264 c 1
 200 1428 l 1xf6
EndSplineSet
Validated: 1
EndChar

StartChar: pi
Encoding: 960 960 343
Width: 1060
VWidth: 6
Flags: HW
HStem: -13 21G<262.176 418> 0 237<786.5 968.766> 822 198<433 574.819 826 880.501>
VStem: 177 256<24.1796 814> 596 255<238.723 819.861>
LayerCount: 2
Fore
SplineSet
814 1020 m 0xb8
 855 1020 870 1038 894 1088 c 1
 1044 1014 l 1
 1012 940 989 822 857 822 c 2
 826 822 l 1
 844 777 851 719 851 587 c 2
 851 316 l 2
 851 265 869 237 891 237 c 0
 916 237 933 240 951 259 c 1
 1050 85 l 1
 1020 43 979 0 852 0 c 0x78
 721 0 596 59 596 267 c 2
 596 583 l 2
 596 755 577 776 554 822 c 1
 433 821 l 1
 433 215 l 2
 433 142 425 44 411 -13 c 1
 158 21 l 1
 176 89 177 146 177 219 c 2
 177 814 l 1
 131 805 108 797 75 770 c 1
 22 956 l 1
 72 988 170 1019 270 1019 c 2
 270 1019 602 1020 814 1020 c 0xb8
EndSplineSet
Validated: 1
EndChar

StartChar: rho
Encoding: 961 961 344
Width: 1060
VWidth: -2
Flags: HW
HStem: -6 198<440.333 636.533> 818 214<415.607 630.894>
VStem: 102 238<-295.297 92.3425 320.093 725.29> 703 276<266.408 739.55>
LayerCount: 2
Fore
SplineSet
703 517 m 0
 703 522 703 527 703 532 c 0
 702 684 659 818 524 818 c 0
 426 818 340 734 340 533 c 0
 340 324 439 192 538 192 c 0
 674 192 703 351 703 517 c 0
102 562 m 2
 102 854 281 1032 543 1032 c 0
 740 1032 850 963 920 831 c 0
 961 752 979 639 979 543 c 0
 979 258 902 -6 580 -6 c 2
 578 -6 l 2
 441 -6 393 17 327 96 c 1
 351 18 352 -62 352 -99 c 0
 352 -230 390 -316 415 -377 c 1
 160 -438 l 1
 132 -376 100 -209 100 -70 c 2
 102 562 l 2
EndSplineSet
Validated: 1
EndChar

StartChar: sigma1
Encoding: 962 962 345
Width: 1060
VWidth: 4
Flags: HW
HStem: -347 198<659.393 768.109> 10 212<464.689 771.339> 807 211<479.703 747.653>
VStem: 127 256<315.001 702.322> 787 222<-117.126 -11.6772>
LayerCount: 2
Fore
SplineSet
383 528 m 4
 383 312 475 226 552 222 c 4
 555 222 723 213 726 213 c 4
 892 204 1009 134 1009 -66 c 4
 1009 -280 785 -335 662 -347 c 5
 626 -149 l 5
 710 -136 787 -117 787 -77 c 4
 787 -21 760 -5 672 0 c 4
 665 0 659 1 652 1 c 4
 648 1 493 10 489 10 c 4
 425 13 349 34 297 73 c 5
 167 174 127 328 127 527 c 4
 127 867 305 1018 620 1018 c 4
 715 1018 812 999 875 957 c 4
 935 917 981 858 1003 806 c 5
 783 704 l 5
 773 742 742 807 602 807 c 4
 455 807 383 671 383 528 c 4
EndSplineSet
Validated: 1
EndChar

StartChar: sigma
Encoding: 963 963 346
Width: 1060
VWidth: 6
Flags: HW
HStem: -6 203<410.251 620.825> 830 202<418.161 627.946>
VStem: 82 252<282.644 736.526> 695 256<277.821 783.611>
LayerCount: 2
Fore
SplineSet
900 814 m 1
 935 736 951 632 951 543 c 0
 951 258 855 -6 519 -6 c 2
 517 -6 l 2
 207 -6 82 184 82 464 c 0
 82 832 220 1029 507 1032 c 0
 509 1032 512 1032 515 1032 c 0
 642 1032 985 1021 1036 1012 c 1
 1028 804 l 1
 998 809 952 812 900 814 c 1
635 247 m 1
 682 299 695 403 695 530 c 0
 695 536 695 540 695 546 c 0
 693 674 676 740 628 828 c 1
 628 828 553 830 530 830 c 0
 379 830 334 690 334 482 c 0
 334 316 397 197 518 197 c 1
 573 198 599 211 635 247 c 1
EndSplineSet
Validated: 1
EndChar

StartChar: tau
Encoding: 964 964 347
Width: 1060
VWidth: 0
Flags: HW
HStem: -3 220<653.345 788.575> 825 195<141.32 379 640 996>
VStem: 369 258<232.596 825>
LayerCount: 2
Fore
SplineSet
570 1020 m 1
 692 1020 l 2
 740 1020 789 1020 831 1020 c 2
 978 1020 l 1
 996 1020 l 1
 996 823 l 1
 692 825 l 1
 640 825 l 1
 631 621 631 540 627 440 c 1
 627 400 l 2
 627 238 674 217 715 217 c 0
 772 217 788 243 816 319 c 1
 1014 233 l 1
 994 177 914 -3 717 -3 c 0
 454 -3 369 109 369 397 c 2
 369 440 l 1
 373 544 373 633 379 826 c 1
 359 825 276 824 276 824 c 2
 206 823 189 811 139 779 c 1
 30 933 l 1
 80 977 175 1019 271 1019 c 2
 570 1020 l 1
EndSplineSet
Validated: 1
EndChar

StartChar: upsilon
Encoding: 965 965 348
Width: 1060
VWidth: 6
Flags: HW
HStem: -4 209<396.299 596.841> 1012 20G<151.31 340.5>
VStem: 92 258<256.143 999.91> 712 266<354.524 881.208>
LayerCount: 2
Fore
SplineSet
92 364 m 0
 92 424 92 487 92 547 c 0
 92 751 91 939 70 1003 c 1
 332 1032 l 1
 349 960 350 778 350 573 c 0
 350 517 350 512 350 455 c 0
 350 335 379 205 477 205 c 0
 535 205 595 228 650 309 c 0
 708 395 712 431 712 669 c 0
 712 761 668 880 642 963 c 1
 894 1049 l 1
 956 953 978 756 978 690 c 0
 978 686 978 682 978 678 c 0
 978 666 978 653 978 641 c 0
 978 450 951 303 778 123 c 0
 715 57 595 -4 432 -4 c 0
 239 -4 92 165 92 364 c 0
EndSplineSet
Validated: 1
EndChar

StartChar: phi
Encoding: 966 966 349
Width: 1060
VWidth: 0
Flags: HW
HStem: 835 205<637.639 767.347>
VStem: 36 226<310.836 846.281> 388 240<-396 -3.43256 199 825.448> 790 228<309.666 821.851>
LayerCount: 2
Fore
SplineSet
630 -11 m 1
 632 -215 633 -377 634 -398 c 1
 390 -396 l 1
 388 -375 388 -211 388 -8 c 1
 296 9 217 58 156 133 c 0
 66 243 36 389 36 569 c 0
 36 797 91 979 184 1060 c 1
 372 940 l 1
 291 856 262 765 262 573 c 0
 262 428 310 229 388 199 c 1
 388 640 l 2
 388 955 541 1040 685 1040 c 0
 824 1040 1018 1010 1018 632 c 2
 1018 621 l 2
 1018 457 992 272 944 179 c 0
 880 56 762 9 630 -11 c 1
628 196 m 1
 762 229 788 405 790 624 c 1
 790 643 l 2
 790 812 757 835 687 835 c 2
 686 835 l 2
 648 835 626 823 626 644 c 0
 626 502 627 369 628 196 c 1
EndSplineSet
Validated: 1
EndChar

StartChar: chi
Encoding: 967 967 350
Width: 1060
VWidth: 14
Flags: HW
HStem: -398 228<837.55 948.411> 822 219<30 184.583>
LayerCount: 2
Fore
SplineSet
394 372 m 1
 394 372 280 653 206 754 c 0
 163 812 108 822 30 822 c 1
 30 1041 l 1
 55 1041 77 1041 98 1041 c 0
 201 1041 264 1033 344 934 c 0
 448 805 516 576 516 576 c 1
 609 777 748 1057 748 1057 c 1
 942 959 l 1
 942 959 795 650 634 317 c 1
 695 145 830 -170 884 -170 c 0
 896 -170 900 -166 906 -150 c 1
 1050 -250 l 1
 1044 -288 994 -398 892 -398 c 0
 687 -398 566 -38 510 78 c 1
 282 -401 l 1
 66 -287 l 1
 394 372 l 1
EndSplineSet
Validated: 1
EndChar

StartChar: psi
Encoding: 968 968 351
Width: 1060
VWidth: 6
Flags: HW
HStem: -4 202<313.627 387 627 678.094> 1012 8G<82.0741 256.5 393 630>
VStem: 48 220<240.923 1001.91> 388 239<-392.108 -4 212 1020> 795 234<358.807 953.188>
LayerCount: 2
Back
SplineSet
618.5 196 m 5
 752.5 229 778.455 405.156 780.5 624 c 5
 780.5 643 l 6
 780.5 812 746.5 835 677 835 c 6
 676 835 l 6
 638.5 835 616.5 823 616.5 644 c 4
 616.5 502 617.5 369 618.5 196 c 5
619.5 -11 m 5
 621.5 -215 623.5 -377 624.5 -398 c 5
 380.5 -396 l 5
 378.5 -375 378.5 -211 378.5 -8 c 5
 286.5 9 207.5 58 146.5 133 c 4
 56.5 243 26.5 389 26.5 569 c 4
 26.5 797 80.5 978.8 173.5 1059.8 c 5
 362.5 939.8 l 5
 281.5 855.8 252.5 765 252.5 573 c 4
 252.5 427.789 300.5 229 378.5 199 c 5
 378.5 640 l 6
 378.5 955 531 1040 675 1040 c 4
 814 1040 1008.5 1010 1008.5 632 c 6
 1008.5 621 l 6
 1008.5 457 982.5 272 934.5 179 c 4
 870.5 56 751.5 9 619.5 -11 c 5
EndSplineSet
Fore
SplineSet
48 366 m 0
 48 426 48 489 48 549 c 0
 48 753 45 941 24 1005 c 1
 248 1032 l 1
 265 960 268 778 268 573 c 0
 268 517 268 503 268 446 c 0
 268 284 312 198 388 198 c 1
 389 482 393 693 393 927 c 2
 393 1020 l 1
 630 1020 l 1
 630 875 l 2
 630 639 628 475 627 212 c 1
 762 251 795 480 795 738 c 0
 795 830 769 915 737 985 c 1
 969 1046 l 1
 1005 962 1029 815 1029 749 c 0
 1029 745 1029 741 1029 737 c 0
 1029 725 1029 712 1029 700 c 0
 1029 509 1024 277 851 97 c 0
 805 49 752 29 627 8 c 1
 627 -124 l 2
 627 -239 626 -295 621 -396 c 1
 383 -395 l 1
 387 -333 388 -290 388 -235 c 0
 388 -188 387 -132 387 -46 c 0
 387 -32 387 -18 387 -4 c 1
 385 -4 384 -4 382 -4 c 0
 162 -4 48 167 48 366 c 0
EndSplineSet
Validated: 1
EndChar

StartChar: omega
Encoding: 969 969 352
Width: 1060
VWidth: 6
Flags: HW
HStem: -12 212<303.429 392.304 636.706 745.947>
VStem: 33 232<228.931 801.907> 401 228<200.121 684> 783 240<234.879 817.221>
LayerCount: 2
Fore
SplineSet
399 684 m 1
 631 703 l 1
 629 618 630 524 629 431 c 1
 630 423 630 414 630 405 c 0
 632 224 637 200 666 200 c 0
 743 200 783 270 783 420 c 0
 783 633 766 815 681 947 c 1
 913 1039 l 1
 1021 858 1023 582 1023 441 c 0
 1023 218 956 -12 711 -12 c 0
 597 -12 547 20 522 104 c 1
 493 32 461 -10 327 -10 c 0
 101 -10 33 220 33 444 c 0
 33 612 47 866 157 1049 c 1
 379 949 l 1
 298 822 265 675 265 468 c 0
 265 299 303 196 357 196 c 0
 399 196 401 287 401 395 c 0
 401 404 401 414 401 424 c 0
 400 530 401 584 399 684 c 1
EndSplineSet
Validated: 1
EndChar

StartChar: Gamma
Encoding: 915 915 357
Width: 1060
VWidth: 0
Flags: HW
HStem: 1219 229<423 989.868>
VStem: 156 267<0 1219>
LayerCount: 2
Fore
SplineSet
156 1448 m 1
 874 1448 l 2
 953 1448 1018 1427 1067 1410 c 1
 992 1196 l 1
 946 1212 934 1216 872 1219 c 1
 423 1219 l 1
 423 0 l 1
 156 0 l 1
 156 1448 l 1
EndSplineSet
Validated: 1
EndChar

StartChar: Theta
Encoding: 920 920 361
Width: 1060
VWidth: 0
Flags: HW
HStem: -17 221<413.748 649.667> 615 203<378.5 699.5> 1250 221<433.947 650.773>
VStem: 24.5 273<360.807 1033.6> 378.5 321<615 818> 775.5 270<385.869 1052.82>
LayerCount: 2
Fore
SplineSet
366 818 m 1
 687 818 l 1
 687 615 l 1
 366 615 l 1
 366 818 l 1
EndSplineSet
Refer: 38 79 N 1 0 0 1 0 0 2
Validated: 1
EndChar

StartChar: Delta
Encoding: 916 916 371
Width: 1060
VWidth: 0
Flags: HW
HStem: 0 217<324 733>
LayerCount: 2
Fore
SplineSet
733 217 m 1
 702 383 543 923 542 1088 c 1
 536 907 366 374 324 217 c 1
 733 217 l 1
156 0 m 1
 -9 41 l 1
 430 1444 l 1
 665 1444 l 1
 1063 46 l 1
 919 0 l 1
 156 0 l 1
EndSplineSet
Validated: 1
EndChar

StartChar: Lambda
Encoding: 923 923 372
Width: 1060
VWidth: 0
Flags: HW
LayerCount: 2
Fore
SplineSet
398 530 m 1
 247 -29 l 1
 -9 41 l 1
 430 1444 l 1
 665 1444 l 1
 1063 46 l 1
 791 -23 l 1
 659 549 l 1
 632 705 543 920 542 1088 c 1
 536 905 438 682 398 530 c 1
EndSplineSet
Validated: 1
EndChar

StartChar: Xi
Encoding: 926 926 373
Width: 1060
VWidth: 0
Flags: HW
HStem: -3 222<98 934.948> 704 221<328 724> 1219 223<98 924>
VStem: 328 396<704 925>
LayerCount: 2
Fore
SplineSet
328 925 m 1
 724 925 l 1
 724 704 l 1
 328 704 l 1
 328 925 l 1
98 1438 m 1
 157 1442 230 1442 312 1442 c 0
 345 1442 379 1442 415 1442 c 2
 531 1442 l 2
 687 1442 830 1439 908 1439 c 2
 924 1439 l 1
 924 1219 l 1
 94 1219 l 1
 98 1438 l 1
98 219 m 1
 804 221 l 2
 863 221 935 251 935 251 c 1
 1011 34 l 1
 961 20 917 -3 814 -3 c 2
 98 -3 l 1
 98 219 l 1
EndSplineSet
Validated: 1
EndChar

StartChar: Pi
Encoding: 928 928 374
Width: 1060
VWidth: 0
Flags: HW
HStem: -4 21G<702 974> 1199 214<406 682 949 1057>
VStem: 137 268<0 1185> 682 267<16.0058 1199>
LayerCount: 2
Fore
SplineSet
405 0 m 1
 137 0 l 1
 137 1185 l 1
 107 1181 78 1175 46 1168 c 1
 1 1380 l 1
 98 1403 222 1413 348 1413 c 2
 1057 1413 l 1
 1057 1199 l 1
 949 1199 l 1
 949 412 l 2
 949 274 959 138 974 10 c 1
 712 -4 l 1
 692 128 682 278 682 419 c 2
 682 1199 l 1
 532 1199 l 2
 486 1199 446 1199 406 1198 c 1
 405 0 l 1
EndSplineSet
Validated: 1
EndChar

StartChar: Sigma
Encoding: 931 931 375
Width: 1060
VWidth: 0
Flags: HW
HStem: 0 219<401 934.948> 1219 223<394 924>
LayerCount: 2
Fore
SplineSet
512 717 m 1
 14 1236 l 1
 137 1441 l 1
 161 1443 180 1443 200 1443 c 0
 230 1443 263 1442 312 1442 c 0
 345 1442 379 1442 415 1442 c 2
 531 1442 l 2
 687 1442 830 1439 908 1439 c 2
 924 1439 l 1
 924 1219 l 1
 394 1219 l 1
 803 791 l 1
 796 617 l 1
 401 219 l 1
 535 220 670 220 804 221 c 0
 863 221 935 251 935 251 c 1
 1011 34 l 1
 961 20 917 -3 814 -3 c 2
 137 0 l 1
 14 199 l 1
 512 717 l 1
EndSplineSet
Validated: 1
EndChar

StartChar: Phi
Encoding: 934 934 376
Width: 1060
VWidth: 0
Flags: HW
VStem: 12 229<495.825 904.079> 364 287<1 219.127 420 1004 1233.82 1434> 802 230<517.5 915.74>
LayerCount: 2
Fore
SplineSet
364 420 m 1
 364 1004 l 1
 359 1000 354 996 349 991 c 0
 286 933 241 840 241 669 c 0
 241 601 267 500 318 453 c 0
 331 440 347 429 364 420 c 1
651 412 m 1
 687 430 716 455 737 483 c 1
 773 524 801 634 802 703 c 1
 802 715 l 2
 802 790 785 890 737 957 c 0
 711 994 681 1019 649 1035 c 1
 650 864 651 715 651 460 c 2
 651 412 l 1
365 214 m 1
 284 231 208 261 157 308 c 0
 63 394 12 514 12 656 c 0
 12 927 91 1050 165 1125 c 0
 208 1169 278 1206 364 1228 c 1
 364 1333 l 1
 364 1434 l 1
 648 1434 l 1
 648 1276 l 2
 648 1264 648 1253 648 1242 c 1
 818 1214 1028 1103 1032 709 c 1
 1032 700 l 2
 1032 571 986 450 936 377 c 0
 877 292 773 233 651 209 c 1
 650 135 649 81 645 0 c 1
 360 1 l 1
 364 69 365 115 365 175 c 0
 365 187 365 200 365 214 c 1
EndSplineSet
Validated: 1
EndChar

StartChar: Psi
Encoding: 936 936 377
Width: 1060
VWidth: 6
Flags: HW
HStem: 440 216<347.47 430 683 762.775>
VStem: 46 247<703.831 1408.67> 430 251<0 444.479 656 1427> 809 257<700.825 1415.02>
LayerCount: 2
Fore
SplineSet
46 839 m 0
 46 904 46 965 46 1021 c 0
 46 1210 44 1342 22 1412 c 1
 273 1441 l 1
 291 1363 293 1241 293 1050 c 0
 293 998 293 985 293 923 c 0
 293 759 308 678 433 656 c 1
 435 896 438 1111 438 1325 c 2
 438 1427 l 1
 686 1428 l 1
 686 1270 l 2
 686 1073 685 887 683 656 c 1
 800 656 809 772 809 1121 c 1
 808 1221 804 1330 795 1415 c 1
 1052 1433 l 1
 1062 1344 1066 1234 1066 1162 c 0
 1066 1148 1066 1136 1066 1125 c 0
 1066 742 1058 481 681 443 c 1
 679 290 677 138 674 0 c 1
 425 0 l 1
 429 68 430 239 430 299 c 0
 430 344 430 392 430 440 c 1
 162 465 46 638 46 839 c 0
EndSplineSet
Validated: 1
EndChar

StartChar: Omega
Encoding: 937 937 378
Width: 1060
VWidth: 0
Flags: HW
HStem: 1 216<29 202 826 1031.95> 1225 217<413.836 668.477>
VStem: 10 267<459.277 1036.7> 785 262<487.168 1088.35>
LayerCount: 2
Fore
SplineSet
405 1 m 1
 29 1 l 1
 27 217 l 1
 202 217 l 1
 103 345 10 483 10 676 c 0
 10 1052 85 1157 159 1261 c 0
 228 1359 358 1442 539 1442 c 0
 787 1442 1047 1344 1047 744 c 2
 1047 732 l 2
 1047 461 920 325 826 217 c 1
 909 218 l 2
 968 218 1032 246 1032 246 c 1
 1078 33 l 1
 1029 19 993 0 917 0 c 0
 915 0 913 0 911 0 c 2
 629 0 l 1
 582 211 l 1
 637 272 785 444 785 734 c 2
 785 753 l 2
 785 765 785 775 785 787 c 0
 785 888 783 984 747 1076 c 0
 703 1189 609 1225 542 1225 c 0
 470 1225 407 1195 363 1120 c 0
 311 1032 277 943 277 683 c 0
 277 474 401 248 462 215 c 1
 405 1 l 1
EndSplineSet
Validated: 1
EndChar

StartChar: tonos
Encoding: 900 900 379
Width: 1060
VWidth: -43
Flags: HW
HStem: 1222 454
VStem: 484 236<1526.27 1625.28>
LayerCount: 2
Fore
SplineSet
326 1334 m 1
 421 1451 445 1523 484 1676 c 1
 720 1622 l 1
 687 1468 604 1338 509 1222 c 1
 326 1334 l 1
EndSplineSet
Validated: 1
EndChar

StartChar: uni03D0
Encoding: 976 976 400
Width: 1060
VWidth: 0
Flags: HW
HStem: 0 202<456.173 705.286> 632 206<333.249 528.984> 1120 208<370.766 538.352>
VStem: 79 252<355.459 626.446 838 1084.3> 566 244<877.686 1088.98> 738 248<233.049 529.109>
LayerCount: 2
Back
SplineSet
588 199 m 4xf8
 710 199 728 291 728 387 c 4xf4
 728 570 580 634 378 634 c 5
 378 841 l 5
 517 841 554 883 554 1003 c 4
 554 1058 509 1122 414 1122 c 5
 354 1122 318 1083 318 993 c 4
 318 893 321 640 322 398 c 5
 419 223 524.334 199 588 199 c 4xf8
309 112 m 5
 309 83 309 59 309 39 c 4
 309 -85 306 -203 298 -300 c 5
 62 -283 l 5
 72 -183 75 -74 75 37 c 4
 75 224 66 829 66 1003 c 4
 66 1159 177 1328 376 1328 c 4
 579 1328 799 1274 799 1010 c 4xf8
 799 832 708 802 673 779 c 5
 841 749.5 973 636.5 973 382.5 c 4
 973 50 829 0 585 0 c 4
 583 0 580 0 578 0 c 4
 449 0 399 39 309 112 c 5
EndSplineSet
Fore
SplineSet
79 736 m 0xf4
 79 1156 200 1328 424 1328 c 0
 607 1328 810 1258 810 1011 c 0xf8
 810 909 776 816 680 779 c 1
 852 752 986 630 986 381 c 0
 986 106 885 0 553 0 c 0
 135 0 79 332 79 736 c 0xf4
328 838 m 1
 487 838 566 854 566 1005 c 0
 566 1084 498 1120 424 1120 c 0
 366 1120 328 1008 328 838 c 1
331 619 m 1
 331 315 450 202 568 202 c 0
 716 202 738 261 738 395 c 0xf4
 738 557 595 632 459 632 c 0
 426 632 379 629 331 619 c 1
EndSplineSet
Validated: 1
EndChar

StartChar: theta1
Encoding: 977 977 401
Width: 1060
VWidth: 0
Flags: HW
HStem: -16 203<398.535 626.815> 564 228<340.88 739.032> 1140 210<399.72 673.79>
VStem: 34 257<325.901 510.789> 61 241<825.254 1049.87> 741 261<341.03 562 786 985.544>
LayerCount: 2
Fore
SplineSet
746 786 m 1xec
 729 993 737 1140 537 1140 c 0
 414 1140 302 1049 302 927 c 0
 302 813 386 792 498 792 c 0
 678 792 695 791 746 786 c 1xec
61 922 m 0
 61 1165 243 1350 532 1350 c 0
 693 1350 997 1277 1002 647 c 1
 1002 636 l 2
 1002 469 958 312 910 217 c 0
 835 70 685 -16 520 -16 c 0
 398 -16 249 25 168 127 c 0
 98 214 50 375 34 508 c 1
 291 558 l 1xf4
 299 474 322 334 353 284 c 0
 390 224 440 187 520 187 c 0
 605 187 659 249 692 326 c 1
 714 371 733 472 741 562 c 1
 715 563 686 564 656 564 c 0
 340 564 61 598 61 922 c 0
EndSplineSet
Validated: 1
EndChar

StartChar: Upsilon1
Encoding: 978 978 402
Width: 1060
VWidth: 4
Flags: HW
VStem: 388 261<0 821.734> 853 191<1070 1141.14>
LayerCount: 2
Fore
SplineSet
512 1020 m 1
 575 1165 677 1376 843 1376 c 0
 1021 1376 1044 1258 1044 1076 c 0
 1044 1074 1044 1072 1044 1070 c 1
 853 1038 l 1
 851 1080 848 1135 847 1148 c 1
 829 1135 649 907 649 646 c 2
 649 0 l 1
 388 0 l 1
 388 637 l 2
 388 818 226 1113 27 1162 c 1
 96 1405 l 1
 294 1363 458 1162 512 1020 c 1
EndSplineSet
Validated: 1
EndChar

StartChar: phi1
Encoding: 981 981 405
Width: 1060
VWidth: 6
Flags: HW
VStem: 12 236<312.625 704.687> 370 271<-310.108 11.6729 228 794 1015.68 1376> 769 249<298.471 735.022>
LayerCount: 2
Fore
SplineSet
373 794 m 1
 280 740 248 627 248 482 c 0
 248 366 292 274 378 228 c 1
 377 405 375 606 373 794 c 1
379 5 m 1
 120 49 12 223 12 464 c 0
 12 779 129 968 371 1018 c 1
 370 1120 370 1211 370 1283 c 2
 370 1376 l 1
 641 1376 l 1
 641 1231 l 2
 641 1171 641 1100 642 1023 c 1
 792 1001 885 936 949 831 c 0
 996 752 1018 639 1018 543 c 0
 1018 294 933 61 653 6 c 1
 653 -42 l 2
 653 -157 652 -213 647 -314 c 1
 375 -313 l 1
 379 -251 380 -208 380 -153 c 0
 380 -112 379 -64 379 5 c 1
683 247 m 1
 751 299 769 403 769 530 c 0
 769 536 769 540 769 546 c 0
 767 664 738 765 645 808 c 1
 648 615 651 406 652 228 c 1
 662 234 672 240 683 247 c 1
EndSplineSet
Validated: 1
EndChar

StartChar: omega1
Encoding: 982 982 406
Width: 1060
VWidth: 6
Flags: HW
HStem: -12 212<303.429 392.304 636.706 745.947> 821 201<37 108 336.799 713.041 945 1027>
VStem: 33 232<228.931 716.915> 401 228<200.121 684> 783 240<234.879 707.312>
LayerCount: 2
Fore
SplineSet
35 1018 m 1
 91 1022 174 1022 252 1022 c 0
 283 1022 316 1022 350 1022 c 2
 460 1022 l 2
 609 1022 937 1018 1011 1018 c 2
 1027 1018 l 1
 1027 821 l 1
 945 821 l 1
 998 683 1023 541 1023 441 c 0
 1023 218 956 -12 711 -12 c 0
 597 -12 547 20 522 104 c 1
 493 32 461 -10 327 -10 c 0
 101 -10 33 220 33 444 c 0
 33 560 57 691 108 821 c 1
 37 821 l 1
 35 1018 l 1
399 684 m 1
 631 703 l 1
 629 618 630 524 629 431 c 1
 630 423 630 414 630 405 c 0
 632 224 637 200 666 200 c 0
 743 200 783 270 783 420 c 0
 783 577 747 709 694 821 c 1
 358 821 l 1
 306 725 265 616 265 468 c 0
 265 299 303 196 357 196 c 0
 399 196 401 287 401 395 c 0
 401 404 401 414 401 424 c 0
 400 530 401 584 399 684 c 1
EndSplineSet
Validated: 1
EndChar

StartChar: uni03D7
Encoding: 983 983 407
Width: 1060
VWidth: 0
Flags: HW
HStem: -365 187<642 823.471> 0 199<695.125 853.089> 824 196<212.081 408>
VStem: 315 241<612.446 820.851> 504 240<199.05 412.82> 856 175<-149.303 36>
LayerCount: 2
Fore
SplineSet
21 838 m 1xf4
 21 838 98 1020 324 1020 c 0
 492 1020 556 924 556 778 c 0xf4
 556 712 540 655 518 609 c 1
 518 609 581 675 644 726 c 2
 661 740 l 1
 695 880 760 1021 896 1021 c 0
 1004 1021 1030 945 1030 879 c 0
 1030 769 883 668 781 588 c 1
 752 511 744 436 744 346 c 2
 744 336 l 2
 744 268 745 199 783 199 c 0
 815 199 854 237 886 287 c 1
 1030 191 l 1
 1030 169 l 2
 1030 124 1031 81 1031 41 c 0
 1031 -216 1006 -365 640 -365 c 1
 642 -178 l 1
 845 -178 856 -156 856 26 c 0
 856 29 856 33 856 36 c 1
 829 16 794 0 737 0 c 0
 641 0 504 13 504 193 c 0xec
 504 291 526 369 548 415 c 1
 501 381 493 377 430 326 c 1
 416 313 l 1
 370 171 270 1 133 1 c 2
 132 1 l 2
 68 1 22 48 22 138 c 0
 22 294 130 352 232 432 c 1
 261 509 315 636 315 726 c 0
 315 819 296 824 269 824 c 0
 242 824 200 769 159 704 c 1
 21 838 l 1xf4
EndSplineSet
Validated: 1
EndChar

StartChar: uni03CF
Encoding: 975 975 408
Width: 1060
VWidth: 0
Flags: HW
HStem: -397 193<656 800.629> -5 21G<79 350> 1435 20G<79 350>
VStem: 79 271<-5 563.372 949 1455> 842 242<-163.553 58.8496>
LayerCount: 2
Fore
SplineSet
79 -5 m 1
 79 1455 l 1
 350 1455 l 1
 350 949 l 1
 458 1107 798 1460 837 1500 c 1
 1043 1307 l 1
 852 1160 671 933 608 852 c 1
 734 722 1030 252 1084 102 c 1
 1080 -143 1047 -397 656 -397 c 1
 656 -204 l 1
 826 -204 842 -136 842 -35 c 1
 794 86 577 485 440 626 c 1
 440 626 382 558 350 480 c 1
 350 -5 l 1
 260 -5 169 -5 79 -5 c 1
EndSplineSet
Validated: 1
EndChar

StartChar: uni03D8
Encoding: 984 984 409
Width: 1060
VWidth: 0
Flags: HW
HStem: -344 548<401.678 637.625> 1250 221<421.447 638.273>
VStem: 12 273<360.807 1033.6> 396 258<-344 8.62445> 763 270<385.869 1052.82>
LayerCount: 2
Fore
SplineSet
351 310 m 0
 390 245 443 204 527 204 c 0
 617 204 672 271 707 355 c 1
 738 419 762 590 763 698 c 1
 763 716 l 2
 763 833 748 987 707 1092 c 0
 662 1208 607 1250 539 1250 c 0
 465 1250 422 1223 377 1146 c 0
 324 1056 285 910 285 645 c 0
 285 539 308 383 351 310 c 0
539 1471 m 1
 708 1471 1028 1392 1033 705 c 1
 1033 693 l 2
 1033 511 986 341 936 237 c 1
 877 118 774 34 654 0 c 1
 654 -344 l 1
 396 -344 l 1
 396 -3 l 1
 304 18 214 63 157 138 c 0
 63 260 12 430 12 631 c 0
 12 1015 91 1188 165 1294 c 0
 234 1394 375 1468 539 1471 c 1
EndSplineSet
Validated: 1
EndChar

StartChar: uni03D9
Encoding: 985 985 410
Width: 1060
VWidth: 6
Flags: HW
HStem: -315 512<410.251 625.107> 830 202<413 633.518>
VStem: 82 252<282.424 737.435> 380 246<-315 14.0402> 695 256<275.162 760.797>
LayerCount: 2
Fore
SplineSet
380 9 m 1
 170 59 82 230 82 464 c 0
 82 835 223 1032 515 1032 c 0
 712 1032 822 963 892 831 c 0
 933 752 951 639 951 543 c 0
 951 291 876 55 626 4 c 1
 626 -315 l 1
 380 -315 l 1
 380 9 l 1
635 247 m 1
 682 299 695 403 695 530 c 0
 695 536 695 540 695 546 c 0
 693 703 658 830 530 830 c 0
 379 830 334 690 334 482 c 0
 334 316 397 197 518 197 c 1
 573 198 599 211 635 247 c 1
EndSplineSet
Validated: 1
EndChar

StartChar: uni03DB
Encoding: 987 987 411
Width: 1060
VWidth: 4
Flags: HW
HStem: -380 198<558 693.428> 807 214<436.534 1001>
VStem: 81 256<313.223 702.322> 718 232<-151.58 -49.8056>
LayerCount: 2
Fore
SplineSet
446 -3 m 0
 406 4 312 29 251 73 c 0
 117 169 81 328 81 527 c 0
 81 867 259 1018 574 1018 c 0
 718 1018 807 1021 902 1021 c 0
 934 1021 966 1021 1001 1020 c 1
 1003 802 l 1
 978 806 860 807 742 807 c 0
 674 807 607 807 556 807 c 0
 409 807 337 671 337 528 c 0
 337 254 470 212 529 197 c 0
 789 130 950 76 950 -95 c 0
 950 -224 854 -378 558 -380 c 1
 534 -182 l 1
 648 -168 718 -152 718 -99 c 0
 718 -27 534 -18 446 -3 c 0
EndSplineSet
Validated: 1
EndChar

StartChar: uni03DA
Encoding: 986 986 412
Width: 1060
VWidth: 4
Flags: HW
HStem: -414 216<553 695.302> 1210 232<589.308 1025> 1230 222<477.408 1021.38>
VStem: 50 275<375.518 1010.91> 722 243<-164.857 -55.3392>
LayerCount: 2
Fore
SplineSet
508 204 m 0xb8
 763 150 965 115 965 -104 c 0
 965 -245 864 -412 553 -414 c 1
 528 -198 l 1
 648 -183 722 -166 722 -108 c 0
 722 -30 524 -21 436 -3 c 1
 163 63 50 349 50 693 c 0
 50 975 134 1149 189 1234 c 0
 265 1352 408 1452 592 1452 c 0xb8
 724 1452 811 1442 968 1442 c 0
 986 1442 1005 1442 1025 1442 c 1
 1028 1210 l 1xd8
 888 1225 675 1230 585 1230 c 0
 464 1230 325 1082 325 685 c 0
 325 406 406 226 508 204 c 0xb8
EndSplineSet
Validated: 1
EndChar

StartChar: uni03DD
Encoding: 989 989 414
Width: 1060
VWidth: -2
Flags: HW
HStem: -347 242<60 246.852> 807 205<574 889.016> 1217 201<598.772 932.759>
VStem: 316 256<-34.3906 807 1012 1188.92>
LayerCount: 2
Fore
SplineSet
574 150 m 2
 574 -103 520 -347 144 -347 c 0
 114 -347 82 -346 48 -342 c 1
 60 -99 l 1
 88 -103 114 -105 138 -105 c 0
 262 -105 316 -8 316 150 c 2
 316 1064 l 2
 316 1194 382 1418 698 1418 c 0
 894 1418 920 1403 1009 1357 c 1
 918 1163 l 1
 845 1208 806 1217 716 1217 c 0
 584 1217 572 1143 572 1083 c 0
 572 1056 574 1012 574 1012 c 1
 642 1012 685 1012 758 1012 c 0
 863 1012 904 1000 934 991 c 1
 890 794 l 1
 869 801 848 807 792 807 c 2
 572 807 l 1
 574 150 l 2
EndSplineSet
Validated: 1
EndChar

StartChar: uni0190
Encoding: 400 400 415
Width: 1060
VWidth: 0
Flags: HW
HStem: 0 204<378.417 766.495> 687 223<442.984 659> 1208 206<414.282 812.91>
VStem: 38 268<273.881 603.467> 94 266<979.665 1153.69>
LayerCount: 2
Fore
SplineSet
1040 172 m 1xf0
 965 114 817 0 546 0 c 0
 355 0 256 38 171 116 c 0
 74 206 38 315 38 425 c 0xf0
 38 619 126 757 286 796 c 1
 168 835 94 956 94 1074 c 0
 94 1287 279 1414 583 1414 c 2
 596 1414 l 2
 841 1414 952 1345 1030 1300 c 1
 914 1114 l 1
 838 1160 737 1208 585 1208 c 0
 459 1208 360 1156 360 1074 c 0xe8
 360 952 518 910 635 910 c 2
 640 910 l 1
 659 910 l 1
 659 686 l 1
 632 686 604 687 577 687 c 0
 375 687 306 599 306 423 c 0
 306 300 357 204 547 204 c 0
 748 204 858 296 912 346 c 1
 1040 172 l 1xf0
EndSplineSet
Validated: 1
EndChar

StartChar: uni0228
Encoding: 552 552 471
Width: 1060
VWidth: 0
Flags: HW
HStem: -443 172<397.653 610.295> -3 222<367 432 654 934.948> 704 221<369 724> 1219 223<369 924>
VStem: 98 271<219 704 925 1219> 613 224<-263.703 -169.173>
LayerCount: 2
Fore
SplineSet
98 1438 m 1
 157 1442 230 1442 312 1442 c 0
 345 1442 379 1442 415 1442 c 2
 531 1442 l 2
 687 1442 830 1439 908 1439 c 2
 924 1439 l 1
 924 1219 l 1
 369 1219 l 1
 369 925 l 1
 724 925 l 1
 724 704 l 1
 369 704 l 1
 369 670 l 2
 369 444 367 305 367 219 c 1
 804 221 l 2
 863 221 935 251 935 251 c 1
 1011 34 l 1
 961 20 917 -3 814 -3 c 2
 654 -3 l 1
 653 -24 653 -62 653 -64 c 1
 750 -69 837 -126 837 -240 c 0
 837 -370 723 -443 565 -443 c 0
 499 -443 407 -425 351 -389 c 1
 411 -241 l 1
 444 -259 488 -271 539 -271 c 0
 575 -271 610 -259 613 -221 c 1
 613 -219 l 2
 613 -190 589 -164 541 -164 c 0
 493 -164 460 -166 432 -176 c 1
 432 -3 l 1
 98 -3 l 1
 98 1438 l 1
EndSplineSet
Validated: 1
EndChar

StartChar: uni0229
Encoding: 553 553 472
Width: 1060
VWidth: 0
Flags: HW
HStem: -450 172<373.653 586.295> -171 367<418.014 585.703> 434 196<414.825 686> 818 203<417.494 631.802>
VStem: 88 258<274.463 403.211 606 738.031> 589 224<-270.703 -176.173> 686 261<630 763.58>
LayerCount: 2
Fore
SplineSet
346 606 m 1xfa
 459 626 553 630 686 630 c 1
 681 761 609 818 521 818 c 0
 419 818 352 722 346 606 c 1xfa
519 1021 m 0
 838 1021 947 813 947 477 c 0xfa
 947 457 946 434 946 434 c 1
 661 430 448 416 346 396 c 1
 362 285 426 196 518 196 c 0
 624 196 659 205 720 294 c 1
 920 166 l 1
 865 80 787 17 631 -3 c 1
 630 -22 629 -68 629 -71 c 1
 726 -76 813 -133 813 -247 c 0
 813 -377 699 -450 541 -450 c 0
 475 -450 383 -432 327 -396 c 1
 387 -248 l 1
 420 -266 464 -278 515 -278 c 0
 551 -278 586 -266 589 -228 c 1
 589 -226 l 2xfc
 589 -197 565 -171 517 -171 c 0
 469 -171 436 -173 408 -183 c 1
 408 0 l 1
 192 46 88 243 88 516 c 0
 88 802 236 1021 519 1021 c 0
EndSplineSet
Validated: 1
EndChar

StartChar: uni0311
Encoding: 785 785 481
Width: 1060
VWidth: -12
Flags: HW
HStem: 1508 183<398.837 650.214>
LayerCount: 2
Fore
SplineSet
520 1508 m 0
 445 1508 367 1475 340 1358 c 1
 121 1388 l 1
 169 1613 301 1691 526 1691 c 0
 766 1691 895 1574 919 1397 c 1
 700 1367 l 1
 694 1445 628 1508 520 1508 c 0
EndSplineSet
Validated: 1
EndChar

StartChar: uni0313
Encoding: 787 787 483
Width: 1060
VWidth: 26
Flags: HW
HStem: 1099 498
VStem: 438 220<1376 1597> 495 163<1250.63 1376>
LayerCount: 2
Fore
SplineSet
438 1597 m 1xc0
 658 1597 l 1
 658 1382 l 2xc0
 658 1231 591 1155 462 1099 c 1
 409 1226 l 1
 469 1254 495 1277 495 1376 c 1xa0
 438 1376 l 1
 438 1597 l 1xc0
EndSplineSet
Validated: 1
EndChar

StartChar: uni0314
Encoding: 788 788 484
Width: 1060
VWidth: 26
Flags: HW
HStem: 1099 498
VStem: 421 220<1376 1597> 421 163<1250.63 1376>
LayerCount: 2
Fore
SplineSet
641 1597 m 1xc0
 641 1376 l 1xc0
 584 1376 l 1xa0
 584 1277 610 1254 670 1226 c 1
 617 1099 l 1
 488 1155 421 1231 421 1382 c 2
 421 1597 l 1
 641 1597 l 1xc0
EndSplineSet
Validated: 1
EndChar

StartChar: uni0312
Encoding: 786 786 495
Width: 1060
VWidth: -43
Flags: HW
HStem: 1236 419
VStem: 396 190<1503.25 1624.49>
LayerCount: 2
Fore
SplineSet
287 1283 m 1
 325 1395 351 1504 396 1655 c 1
 586 1622 l 1
 568 1480 541 1339 520 1236 c 1
 287 1283 l 1
EndSplineSet
Validated: 1
EndChar

StartChar: ogonek
Encoding: 731 731 499
Width: 1060
VWidth: 12
Flags: HW
HStem: -383 136<541.729 757.66>
VStem: 334 200<-234.682 -77.2191>
LayerCount: 2
Fore
SplineSet
418 65 m 1
 688 59 l 1
 630 -36 534 -89 534 -173 c 2
 534 -175 l 2
 534 -218 580 -247 624 -247 c 0
 682 -247 730 -233 763 -215 c 1
 814 -307 l 1
 758 -343 673 -383 582 -383 c 0
 498 -383 334 -337 334 -190 c 0
 334 -61 381 4 418 65 c 1
EndSplineSet
Validated: 1
EndChar

StartChar: uni01EA
Encoding: 490 490 502
Width: 1060
VWidth: 0
Flags: HW
HStem: -421 136<551.202 766.766> 1250 221<421.447 638.273>
VStem: 12 273<360.807 1033.6> 343 200<-272.682 -113.518> 763 270<385.869 1052.82>
LayerCount: 2
Fore
SplineSet
351 310 m 0
 390 245 443 204 527 204 c 0
 617 204 672 271 707 355 c 1
 738 419 762 590 763 698 c 1
 763 716 l 2
 763 833 748 987 707 1092 c 0
 662 1208 607 1250 539 1250 c 0
 465 1250 422 1223 377 1146 c 0
 324 1056 285 910 285 645 c 0
 285 539 308 383 351 310 c 0
539 1471 m 1
 708 1471 1028 1392 1033 705 c 1
 1033 693 l 2
 1033 511 986 341 936 237 c 1
 883 130 796 53 692 13 c 1
 634 -77 543 -130 543 -211 c 2
 543 -213 l 2
 543 -256 589 -285 633 -285 c 0
 691 -285 739 -271 772 -253 c 1
 823 -345 l 1
 767 -381 683 -421 592 -421 c 0
 508 -421 343 -375 343 -228 c 0
 343 -121 376 -58 408 -5 c 1
 312 15 217 60 157 138 c 0
 63 260 12 430 12 631 c 0
 12 1015 91 1188 165 1294 c 0
 234 1394 375 1468 539 1471 c 1
EndSplineSet
Validated: 1
EndChar

StartChar: uni01EB
Encoding: 491 491 503
Width: 1060
VWidth: 0
Flags: HW
HStem: -427 136<487.729 703.66> 830 202<413 633.518>
VStem: 82 252<284.943 737.435> 280 200<-278.682 -120.712> 695 256<275.426 760.797>
LayerCount: 2
Fore
SplineSet
360 14 m 1xd8
 164 70 82 237 82 464 c 0xe8
 82 835 223 1032 515 1032 c 0
 712 1032 822 963 892 831 c 0
 933 752 951 639 951 543 c 0
 951 291 876 56 627 4 c 1
 569 -84 480 -136 480 -217 c 2
 480 -219 l 2
 480 -262 526 -291 570 -291 c 0
 628 -291 676 -277 709 -259 c 1
 760 -351 l 1
 704 -387 619 -427 528 -427 c 0
 444 -427 280 -381 280 -234 c 0
 280 -110 324 -45 360 14 c 1xd8
635 247 m 1
 682 299 695 403 695 530 c 0
 695 536 695 540 695 546 c 0
 693 703 658 830 530 830 c 0
 379 830 334 690 334 482 c 0
 334 316 397 197 518 197 c 1
 573 198 599 211 635 247 c 1
EndSplineSet
Validated: 1
EndChar

StartChar: uni0326
Encoding: 806 806 506
Width: 1060
VWidth: 26
Flags: HW
HStem: -489 493
VStem: 390 270<-217 4> 446 214<-330.504 -217>
LayerCount: 2
Fore
SplineSet
390 4 m 1xc0
 660 4 l 1
 660 -211 l 2xc0
 660 -362 623 -430 503 -489 c 1
 369 -364 l 1
 422 -322 446 -283 446 -217 c 1xa0
 390 -217 l 1
 390 4 l 1xc0
EndSplineSet
Validated: 1
EndChar

StartChar: Hbar
Encoding: 294 294 508
Width: 1060
VWidth: 0
Flags: HW
HStem: 653 234<328.771 700> 1161 215<-30 54 324 699 968 1057>
VStem: 54 269<0 630.414 855 1161 1376 1439> 700 268<0 653 887 1161 1376 1436>
LayerCount: 2
Fore
SplineSet
699 1161 m 1
 323 1161 l 1
 323 855 l 1
 420 878 482 887 608 887 c 2
 700 887 l 1
 700 1009 699 1093 699 1161 c 1
54 1376 m 1
 54 1439 l 1
 324 1441 l 1
 324 1376 l 1
 699 1376 l 1
 699 1395 699 1415 699 1436 c 1
 968 1436 l 1
 968 1376 l 1
 1057 1376 l 1
 1057 1161 l 1
 968 1161 l 1
 968 0 l 1
 700 0 l 1
 700 653 l 1
 666 653 l 2
 513 653 447 649 323 621 c 1
 323 239 325 202 325 0 c 1
 54 0 l 1
 54 1161 l 1
 -30 1161 l 1
 -30 1376 l 1
 54 1376 l 1
EndSplineSet
Validated: 1
EndChar

StartChar: hbar
Encoding: 295 295 509
Width: 1060
VWidth: -2
Flags: HW
HStem: 812 200<412.848 626.689> 1096 216<-6 91 343 654>
VStem: 97 246<0 741.95 931.803 1096 1312 1400.69> 685 244<23.8544 749.663>
LayerCount: 2
Fore
SplineSet
929 566 m 2
 929 218 l 2
 929 136 936 61 957 22 c 1
 728 -32 l 1
 705 0 685 66 685 176 c 2
 684 491 l 2
 684 800 602 812 510 812 c 0
 438 812 376 737 343 682 c 1
 343 0 l 1
 97 0 l 1
 98 1096 l 1
 -6 1096 l 1
 -6 1312 l 1
 91 1312 l 1
 88 1344 85 1374 82 1402 c 1
 330 1411 l 1
 334 1381 337 1348 339 1312 c 1
 654 1312 l 1
 654 1096 l 1
 343 1096 l 1
 341 1036 334 989 320 929 c 1
 357 957 430 1012 544 1012 c 0
 794 1012 929 888 929 566 c 2
EndSplineSet
Validated: 1
EndChar

StartChar: Lslash
Encoding: 321 321 511
Width: 1060
VWidth: 0
Flags: HW
HStem: -3 229<507 989.868>
VStem: 240 267<226 594 1019 1444>
LayerCount: 2
Fore
SplineSet
507 1019 m 1
 677 1121 l 1
 794 925 l 1
 507 753 l 1
 507 226 l 1
 872 226 l 1
 934 229 946 233 992 249 c 1
 1067 34 l 1
 1018 17 953 -3 874 -3 c 2
 240 -3 l 1
 240 594 l 1
 101 511 l 1
 -15 707 l 1
 240 859 l 1
 240 1444 l 1
 507 1444 l 1
 507 1019 l 1
EndSplineSet
Validated: 1
EndChar

StartChar: lslash
Encoding: 322 322 512
Width: 1060
VWidth: -2
Flags: HW
HStem: -18 200<617.352 873.717> 1230 200<123.45 354>
VStem: 354 255<191.813 587 1004 1230>
LayerCount: 2
Fore
SplineSet
354 1430 m 2
 608 1430 l 1
 608 1338 609 1177 609 1004 c 1
 804 1121 l 1
 921 925 l 1
 609 739 l 1
 609 489 610 274 610 274 c 2
 610 210 626 182 718 182 c 0
 811 182 871 215 931 273 c 1
 1028 83 l 1
 942 12 791 -18 667 -18 c 0
 582 -18 491 -4 447 20 c 0
 362 67 354 147 354 206 c 2
 354 587 l 1
 228 511 l 1
 111 707 l 1
 354 852 l 1
 354 1230 l 1
 305 1230 214 1224 119 1202 c 1
 90 1388 l 1
 184 1416 274 1430 354 1430 c 2
EndSplineSet
Validated: 1
EndChar

StartChar: tbar
Encoding: 359 359 513
Width: 1060
VWidth: 0
Flags: HW
HStem: -6 202<482.235 770.078> 424 192<-4 188 444 761> 812 204<449 877>
VStem: 188 252<236.379 424 616 812 1020 1254>
LayerCount: 2
Fore
SplineSet
444 616 m 1
 761 616 l 1
 761 424 l 1
 440 424 l 1
 440 396 l 2
 440 262 479 214 563 200 c 0
 581 198 615 196 628 196 c 0
 693 196 723 210 748 224 c 0
 800 252 811 320 818 340 c 1
 1026 240 l 1
 1016 212 962 100 850 36 c 0
 792 2 715 -6 630 -6 c 0
 446 -6 298 16 227 164 c 0
 192 236 188 312 188 398 c 2
 188 424 l 1
 -4 424 l 1
 -4 616 l 1
 192 616 l 1
 193 673 195 738 197 812 c 1
 183 812 l 2
 155 812 127 808 101 800 c 1
 84 1004 l 1
 108 1012 153 1016 186 1016 c 2
 201 1016 l 1
 201 1086 202 1190 202 1260 c 1
 453 1254 l 1
 453 1188 452 1088 451 1020 c 1
 560 1020 872 1016 880 1016 c 1
 877 812 l 1
 740 812 582 814 449 814 c 1
 446 738 445 673 444 616 c 1
EndSplineSet
Validated: 1
EndChar

StartChar: Tbar
Encoding: 358 358 514
Width: 1060
VWidth: 0
Flags: HW
HStem: -10 21G<364 637> -10 21G<364 637> 424 192<116 364 637 881> 1219 226<32 364 637 945.961>
VStem: 364 273<-10 424 616 1219>
LayerCount: 2
Fore
SplineSet
637 616 m 1xb8
 881 616 l 1
 881 424 l 1
 637 424 l 1
 637 -10 l 1
 364 -10 l 1
 364 424 l 1
 116 424 l 1
 116 616 l 1
 364 616 l 1
 364 1219 l 1
 156 1219 112 1218 32 1218 c 1
 32 1443 l 1
 160 1443 637 1445 834 1445 c 0
 911 1445 985 1435 1010 1427 c 1
 946 1206 l 1
 946 1206 892 1219 829 1219 c 2
 637 1219 l 1
 637 616 l 1xb8
EndSplineSet
Validated: 1
EndChar

StartChar: quoteleft
Encoding: 8216 8216 525
Width: 1060
VWidth: -25
Flags: HW
VStem: 283 325<845 1109.92>
LayerCount: 2
Fore
SplineSet
608 826 m 1
 283 845 l 1
 285 1199 485 1444 646 1557 c 1
 789 1393 l 1
 693 1268 614 1074 608 826 c 1
EndSplineSet
Validated: 1
EndChar

StartChar: quoteright
Encoding: 8217 8217 526
Width: 1060
VWidth: -25
Flags: HW
HStem: 1449 20G<548 720.5>
VStem: 559 323<1245.05 1430.78>
LayerCount: 2
Fore
SplineSet
559 1469 m 1
 882 1429 l 1
 857 1076 641 844 473 742 c 1
 341 915 l 1
 445 1033 537 1222 559 1469 c 1
EndSplineSet
Validated: 1
EndChar

StartChar: quotesinglbase
Encoding: 8218 8218 527
Width: 1060
VWidth: -25
Flags: HW
VStem: 426 322<106.053 291.781>
LayerCount: 2
Fore
SplineSet
426 330 m 1
 748 290 l 1
 723 -63 508 -295 340 -397 c 1
 208 -224 l 1
 312 -106 404 83 426 330 c 1
EndSplineSet
Validated: 1
EndChar

StartChar: quotereversed
Encoding: 8219 8219 528
Width: 1060
VWidth: -25
Flags: HW
HStem: 1449 20G<502.5 675>
VStem: 341 323<1245.05 1430.78>
LayerCount: 2
Fore
SplineSet
664 1469 m 1
 686 1222 778 1033 882 915 c 1
 750 742 l 1
 582 844 366 1076 341 1429 c 1
 664 1469 l 1
EndSplineSet
Validated: 1
EndChar

StartChar: quotedblleft
Encoding: 8220 8220 529
Width: 1060
VWidth: -25
Flags: HW
LayerCount: 2
Fore
SplineSet
393 992 m 0
 383 958 378 926 373 893 c 1
 73 957 l 1
 78 998 85 1033 97 1074 c 0
 171 1332 260 1495 381 1598 c 1
 580 1441 l 1
 522 1392 451 1195 393 992 c 0
838 976 m 0
 828 942 823 910 818 877 c 1
 518 941 l 1
 523 982 529 1017 541 1058 c 0
 615 1316 705 1479 826 1582 c 1
 1024 1425 l 1
 966 1376 896 1179 838 976 c 0
EndSplineSet
Validated: 1
EndChar

StartChar: quotedblright
Encoding: 8221 8221 530
Width: 1060
VWidth: -25
Flags: HW
LayerCount: 2
Fore
SplineSet
710 1379 m 0
 720 1413 725 1444 730 1477 c 1
 1030 1413 l 1
 1025 1372 1019 1337 1007 1296 c 0
 933 1038 843 875 722 772 c 1
 524 930 l 1
 582 979 652 1176 710 1379 c 0
266 1395 m 0
 276 1429 280 1460 285 1493 c 1
 585 1429 l 1
 580 1388 574 1353 562 1312 c 0
 488 1054 398 891 277 788 c 1
 79 946 l 1
 137 995 208 1192 266 1395 c 0
EndSplineSet
Validated: 1
EndChar

StartChar: quotedblbase
Encoding: 8222 8222 531
Width: 1060
VWidth: -25
Flags: HW
LayerCount: 2
Fore
SplineSet
660 232 m 0
 670 266 674 297 679 330 c 1
 979 266 l 1
 974 225 968 190 956 149 c 0
 882 -109 792 -272 671 -375 c 1
 473 -217 l 1
 531 -168 602 29 660 232 c 0
215 247 m 0
 225 281 230 313 235 346 c 1
 535 282 l 1
 530 241 524 206 512 165 c 0
 438 -93 348 -256 227 -359 c 1
 28 -202 l 1
 86 -153 157 44 215 247 c 0
EndSplineSet
Validated: 1
EndChar

StartChar: uni201F
Encoding: 8223 8223 532
Width: 1060
VWidth: -25
Flags: HW
LayerCount: 2
Fore
SplineSet
393 1379 m 0
 451 1176 521 979 579 930 c 1
 381 772 l 1
 260 875 170 1038 96 1296 c 0
 84 1337 78 1372 73 1413 c 1
 373 1477 l 1
 378 1444 383 1413 393 1379 c 0
837 1395 m 0
 895 1192 966 995 1024 946 c 1
 826 788 l 1
 705 891 615 1054 541 1312 c 0
 529 1353 523 1388 518 1429 c 1
 818 1493 l 1
 823 1460 827 1429 837 1395 c 0
EndSplineSet
Validated: 1
EndChar

StartChar: uni2016
Encoding: 8214 8214 533
Width: 1060
VWidth: 66
Flags: HW
VStem: 168 273<-194.108 1492> 649 273<-194.108 1492>
LayerCount: 2
Fore
SplineSet
167 152 m 0
 167 517 158 1111 158 1399 c 2
 158 1492 l 1
 429 1492 l 1
 429 1347 l 2
 429 1070 441 558 441 224 c 2
 441 74 l 2
 441 -41 440 -97 435 -198 c 1
 163 -197 l 1
 167 -135 168 -92 168 -37 c 0
 168 10 167 66 167 152 c 0
648 152 m 0
 648 517 639 1111 639 1399 c 2
 639 1492 l 1
 910 1492 l 1
 910 1347 l 2
 910 1070 922 558 922 224 c 2
 922 74 l 2
 922 -41 921 -97 916 -198 c 1
 644 -197 l 1
 648 -135 649 -92 649 -37 c 0
 649 10 648 66 648 152 c 0
EndSplineSet
Validated: 1
EndChar

StartChar: underscoredbl
Encoding: 8215 8215 534
Width: 1060
VWidth: 41
Flags: HW
HStem: -530 174<56 1002> -258 174<56 1002>
LayerCount: 2
Fore
SplineSet
56 -356 m 1
 1002 -356 l 1
 1002 -530 l 1
 52 -530 l 1
 56 -356 l 1
56 -84 m 1
 1002 -84 l 1
 1002 -258 l 1
 52 -258 l 1
 56 -84 l 1
EndSplineSet
Validated: 1
EndChar

StartChar: daggerdbl
Encoding: 8225 8225 535
Width: 1060
VWidth: 66
Flags: HW
HStem: 170 224<90 366 641 934> 946 222<87.0955 359 633 929>
VStem: 358 271<-194.108 173 402 946 1170 1492>
LayerCount: 2
Fore
SplineSet
361 946 m 1
 282 948 192 954 81 961 c 1
 81 991 80 1041 80 1088 c 0
 80 1123 81 1157 82 1179 c 1
 191 1172 281 1169 359 1168 c 1
 358 1256 358 1335 358 1399 c 2
 358 1492 l 1
 629 1492 l 1
 629 1347 l 2
 629 1295 629 1236 630 1170 c 1
 723 1173 810 1177 929 1177 c 1
 931 957 l 1
 814 957 727 953 633 949 c 1
 636 769 639 573 640 399 c 1
 738 397 829 394 934 394 c 1
 934 170 l 1
 830 170 738 171 641 173 c 1
 641 74 l 2
 641 -41 640 -97 635 -198 c 1
 363 -197 l 1
 367 -135 368 -92 368 -37 c 0
 368 10 367 66 367 152 c 0
 367 160 367 167 367 175 c 1
 339 175 311 176 282 176 c 0
 222 176 158 174 90 170 c 1
 88 394 l 1
 192 400 281 401 366 402 c 1
 365 576 363 768 361 946 c 1
EndSplineSet
Validated: 1
EndChar

StartChar: dagger
Encoding: 8224 8224 536
Width: 1060
VWidth: 66
Flags: HW
HStem: 946 222<87.0955 359 633 929>
VStem: 368 273<-194.108 946 1170 1492>
LayerCount: 2
Fore
SplineSet
361 946 m 1
 282 948 192 954 81 961 c 1
 81 991 80 1041 80 1088 c 0
 80 1123 81 1157 82 1179 c 1
 191 1172 281 1169 359 1168 c 1
 358 1256 358 1335 358 1399 c 2
 358 1492 l 1
 629 1492 l 1
 629 1347 l 2
 629 1295 629 1236 630 1170 c 1
 723 1173 810 1177 929 1177 c 1
 931 957 l 1
 814 957 727 953 633 949 c 1
 636 704 641 430 641 224 c 2
 641 74 l 2
 641 -41 640 -97 635 -198 c 1
 363 -197 l 1
 367 -135 368 -92 368 -37 c 0
 368 10 367 66 367 152 c 0
 367 372 364 676 361 946 c 1
EndSplineSet
Validated: 1
EndChar

StartChar: bullet
Encoding: 8226 8226 537
Width: 1060
VWidth: 0
Flags: HW
HStem: 138 732<335.603 684.397>
VStem: 144 732<329.603 678.397>
LayerCount: 2
Fore
SplineSet
144 504 m 0
 144 706 308 870 510 870 c 0
 712 870 876 706 876 504 c 0
 876 302 712 138 510 138 c 0
 308 138 144 302 144 504 c 0
EndSplineSet
Validated: 1
EndChar

StartChar: uni2023
Encoding: 8227 8227 538
Width: 1060
VWidth: 0
Flags: HW
LayerCount: 2
Fore
SplineSet
190 964 m 1
 854 581 l 1
 854 437 l 1
 194 104 l 1
 162 192 l 1
 162 888 l 1
 190 964 l 1
EndSplineSet
Validated: 1
EndChar

StartChar: arrowleft
Encoding: 8592 8592 540
Width: 1060
VWidth: 6
Flags: HW
HStem: 386 244<375 1056>
LayerCount: 2
Fore
SplineSet
1062 389 m 1
 1017 387 967 386 917 386 c 0
 817 386 716 389 648 389 c 0
 607 389 568 389 529 389 c 0
 484 389 419 390 352 390 c 1
 428 305 489 213 520 95 c 1
 302 8 l 1
 264 157 164 309 6 450 c 1
 6 565 l 1
 150 695 287 856 310 996 c 1
 538 925 l 1
 513 806 449 714 375 634 c 1
 474 633 576 633 650 633 c 0
 693 633 784 630 884 630 c 0
 941 630 1001 631 1056 634 c 1
 1056 512 l 1
 1062 389 l 1
EndSplineSet
Validated: 1
EndChar

StartChar: arrowup
Encoding: 8593 8593 541
Width: 1060
VWidth: 66
Flags: HW
VStem: 358 274<-134 1020>
LayerCount: 2
Fore
SplineSet
554 1396 m 1
 684 1252 845 1115 985 1092 c 1
 914 864 l 1
 798 888 707 948 629 1020 c 1
 630 791 632 570 632 288 c 2
 632 138 l 2
 632 23 631 -33 626 -134 c 1
 354 -134 l 1
 358 -72 359 -29 359 26 c 0
 359 73 358 130 358 216 c 2
 358 1031 l 1
 279 963 192 910 84 882 c 1
 -3 1100 l 1
 146 1138 298 1238 439 1396 c 1
 554 1396 l 1
EndSplineSet
Validated: 1
EndChar

StartChar: arrowright
Encoding: 8594 8594 542
Width: 1060
VWidth: 6
Flags: HW
HStem: 384 244<18 699>
LayerCount: 2
Fore
SplineSet
12 628 m 1
 57 630 107 631 157 631 c 0
 257 631 358 628 426 628 c 0
 467 628 506 628 545 628 c 0
 590 628 655 628 722 628 c 1
 646 713 585 804 554 922 c 1
 772 1009 l 1
 810 860 910 708 1068 567 c 1
 1068 452 l 1
 924 322 787 161 764 21 c 1
 536 92 l 1
 561 211 625 304 699 384 c 1
 666 384 633 384 600 384 c 0
 535 384 473 384 424 384 c 0
 381 384 290 387 190 387 c 0
 133 387 73 386 18 383 c 1
 18 505 l 1
 12 628 l 1
EndSplineSet
Validated: 1
EndChar

StartChar: arrowdown
Encoding: 8595 8595 543
Width: 1060
VWidth: 66
Flags: HW
VStem: 358 274<283 1433.11>
LayerCount: 2
Fore
SplineSet
554 -92 m 1
 439 -92 l 1
 298 66 146 166 -3 204 c 1
 84 422 l 1
 192 394 279 340 358 272 c 1
 358 1088 l 2
 358 1174 359 1229 359 1276 c 0
 359 1331 358 1374 354 1436 c 1
 626 1438 l 1
 631 1337 632 1281 632 1166 c 2
 632 1016 l 2
 632 734 630 512 629 283 c 1
 707 355 798 416 914 440 c 1
 985 212 l 1
 845 189 684 52 554 -92 c 1
EndSplineSet
Validated: 1
EndChar

StartChar: arrowboth
Encoding: 8596 8596 544
Width: 1060
VWidth: 6
Flags: HW
HStem: 386 244<339 719>
LayerCount: 2
Fore
SplineSet
1090 455 m 1
 946 325 809 164 786 24 c 1
 558 95 l 1
 583 213 645 306 719 385 c 1
 679 386 642 386 612 386 c 0
 571 386 532 386 493 386 c 0
 448 386 383 387 316 387 c 1
 392 302 453 210 484 92 c 1
 266 5 l 1
 228 154 128 306 -30 447 c 1
 -30 562 l 1
 114 692 251 853 274 993 c 1
 502 922 l 1
 477 803 413 711 339 631 c 1
 438 630 540 630 614 630 c 0
 642 630 689 629 746 628 c 1
 669 713 607 806 576 925 c 1
 794 1012 l 1
 832 863 932 711 1090 570 c 1
 1090 455 l 1
EndSplineSet
Validated: 1
EndChar

StartChar: arrowupdn
Encoding: 8597 8597 545
Width: 1060
VWidth: 66
Flags: HW
VStem: 358 274<288 1020>
LayerCount: 2
Fore
SplineSet
554 1396 m 1
 684 1252 845 1115 985 1092 c 1
 914 864 l 1
 798 888 707 948 629 1020 c 1
 630 791 632 570 632 288 c 2
 632 269 l 1
 712 338 800 393 909 422 c 1
 996 204 l 1
 847 166 695 66 554 -92 c 1
 439 -92 l 1
 309 52 148 189 8 212 c 1
 79 440 l 1
 192 416 281 358 358 288 c 1
 358 1031 l 1
 279 963 192 910 84 882 c 1
 -3 1100 l 1
 146 1138 298 1238 439 1396 c 1
 554 1396 l 1
EndSplineSet
Validated: 1
EndChar

StartChar: uni21C4
Encoding: 8644 8644 546
Width: 1060
VWidth: 6
Flags: HW
HStem: 197 244<348 1029> 1024 244<38 718>
LayerCount: 2
Fore
SplineSet
32 1268 m 1
 77 1270 127 1271 177 1271 c 0
 277 1271 378 1268 446 1268 c 0
 487 1268 526 1268 565 1268 c 0
 610 1268 675 1268 742 1268 c 1
 666 1353 605 1445 574 1563 c 1
 792 1650 l 1
 830 1501 930 1349 1088 1208 c 1
 1088 1093 l 1
 944 963 807 802 784 662 c 1
 556 733 l 1
 581 852 644 944 718 1024 c 1
 685 1024 651 1024 619 1024 c 0
 554 1024 493 1024 444 1024 c 0
 401 1024 310 1027 210 1027 c 0
 153 1027 93 1026 38 1023 c 1
 38 1145 l 1
 32 1268 l 1
1035 200 m 1
 990 198 940 197 890 197 c 0
 790 197 689 200 621 200 c 0
 580 200 541 200 502 200 c 0
 457 200 391 201 324 201 c 1
 400 116 462 24 493 -94 c 1
 275 -181 l 1
 237 -32 137 120 -21 261 c 1
 -21 376 l 1
 123 506 260 667 283 807 c 1
 511 736 l 1
 486 617 422 525 348 445 c 1
 447 444 549 444 623 444 c 0
 666 444 757 441 857 441 c 0
 914 441 974 442 1029 445 c 1
 1029 323 l 1
 1035 200 l 1
EndSplineSet
Validated: 1
EndChar

StartChar: uni21C6
Encoding: 8646 8646 547
Width: 1060
VWidth: 6
Flags: HW
HStem: 200 245<44 724> 1024 244<354 1035>
LayerCount: 2
Fore
SplineSet
1041 1268 m 1
 1035 1145 l 1
 1035 1023 l 1
 980 1026 920 1027 863 1027 c 0
 763 1027 672 1024 629 1024 c 0
 580 1024 518 1024 453 1024 c 0
 420 1024 387 1024 354 1024 c 1
 428 944 492 852 517 733 c 1
 289 662 l 1
 266 802 129 963 -15 1093 c 1
 -15 1208 l 1
 143 1349 243 1501 281 1650 c 1
 499 1563 l 1
 468 1445 406 1353 330 1268 c 1
 397 1268 463 1268 508 1268 c 0
 547 1268 586 1268 627 1268 c 0
 695 1268 796 1271 896 1271 c 0
 946 1271 996 1270 1041 1268 c 1
38 200 m 1
 44 323 l 1
 44 445 l 1
 99 442 159 441 216 441 c 0
 316 441 407 444 450 444 c 0
 524 444 625 444 724 445 c 1
 650 525 587 617 562 736 c 1
 790 807 l 1
 813 667 950 506 1094 376 c 1
 1094 261 l 1
 936 120 836 -32 798 -181 c 1
 580 -94 l 1
 611 24 672 116 748 201 c 1
 681 201 616 200 571 200 c 0
 532 200 493 200 452 200 c 0
 384 200 283 197 183 197 c 0
 133 197 83 198 38 200 c 1
EndSplineSet
Validated: 1
EndChar

StartChar: uni21C9
Encoding: 8649 8649 548
Width: 1060
VWidth: 6
Flags: HW
HStem: 203 244<8 689> 1024 245<12 693>
LayerCount: 2
Fore
SplineSet
2 444 m 1
 47 446 97 447 147 447 c 0
 247 447 348 444 416 444 c 0
 457 444 496 444 535 444 c 0
 580 444 645 443 712 443 c 1
 636 528 575 620 544 738 c 1
 569 857 619 944 693 1024 c 1
 594 1025 492 1025 418 1025 c 0
 375 1025 284 1028 184 1028 c 0
 127 1028 67 1027 12 1024 c 1
 12 1146 l 1
 6 1269 l 1
 51 1271 101 1272 151 1272 c 0
 251 1272 352 1269 420 1269 c 0
 461 1269 500 1269 539 1269 c 0
 584 1269 649 1268 716 1268 c 1
 640 1353 579 1445 548 1563 c 1
 766 1650 l 1
 804 1501 904 1349 1062 1208 c 1
 1062 1093 l 1
 948 990 838 867 786 751 c 1
 835 626 926 501 1058 383 c 1
 1058 268 l 1
 914 138 777 -23 754 -163 c 1
 526 -92 l 1
 551 27 615 119 689 199 c 1
 590 200 488 200 414 200 c 0
 371 200 280 203 180 203 c 0
 123 203 63 202 8 199 c 1
 8 321 l 1
 2 444 l 1
EndSplineSet
Validated: 1
EndChar

StartChar: uni21C5
Encoding: 8645 8645 549
Width: 1060
VWidth: 66
Flags: HW
VStem: 186 239<-134 1020> 682 239<178 1329.11>
LayerCount: 2
Fore
SplineSet
382 1396 m 1
 512 1252 578 1126 659 922 c 1
 498 821 l 1
 466 897 422 1020 422 1020 c 1
 423 791 425 570 425 288 c 2
 425 138 l 2
 425 23 424 -33 419 -134 c 1
 182 -134 l 1
 186 -72 187 -29 187 26 c 0
 187 73 186 130 186 216 c 2
 186 1031 l 1
 154 985 138 941 74 845 c 1
 -74 969 l 1
 -10 1073 126 1238 267 1396 c 1
 382 1396 l 1
878 -197 m 1
 734 -197 l 1
 639 -74 533 130 449 274 c 1
 590 371 l 1
 654 275 650 213 682 167 c 1
 682 983 l 2
 682 1069 683 1125 683 1172 c 0
 683 1227 682 1270 678 1332 c 1
 915 1333 l 1
 920 1232 921 1176 921 1061 c 2
 921 911 l 2
 921 629 919 407 918 178 c 1
 918 178 970 269 1002 345 c 1
 1170 241 l 1
 1098 145 1008 -53 878 -197 c 1
EndSplineSet
Validated: 1
EndChar

StartChar: uni21C8
Encoding: 8648 8648 550
Width: 1060
VWidth: 66
Flags: HW
VStem: 186 239<-134 1020> 682 239<-133.108 1018>
LayerCount: 2
Fore
SplineSet
878 1393 m 1
 1008 1249 1098 1051 1170 955 c 1
 1002 851 l 1
 970 927 918 1018 918 1018 c 1
 919 789 921 567 921 285 c 2
 921 135 l 2
 921 20 920 -36 915 -137 c 1
 678 -136 l 1
 682 -74 683 -31 683 24 c 0
 683 71 682 127 682 213 c 2
 682 1029 l 1
 629 985 615 891 600 821 c 1
 498 821 l 1
 470 894 444 1002 422 1020 c 1
 423 791 425 570 425 288 c 2
 425 138 l 2
 425 23 424 -33 419 -134 c 1
 182 -134 l 1
 186 -72 187 -29 187 26 c 0
 187 73 186 130 186 216 c 2
 186 1031 l 1
 154 985 138 941 74 845 c 1
 -74 969 l 1
 -10 1073 95 1238 236 1396 c 1
 382 1396 l 1
 451 1319 519 1227 561 1122 c 1
 594 1212 649 1308 749 1393 c 1
 878 1393 l 1
EndSplineSet
Validated: 1
EndChar

StartChar: uni21CA
Encoding: 8650 8650 551
Width: 1060
VWidth: 66
Flags: HW
VStem: 186 239<176 1327.11> 682 239<178 1329.11>
LayerCount: 2
Fore
SplineSet
878 -197 m 1
 763 -197 l 1
 657 -106 598 -3 564 92 c 1
 525 -20 456 -117 382 -199 c 1
 267 -199 l 1
 126 -41 -10 123 -74 227 c 1
 74 351 l 1
 138 255 154 211 186 165 c 1
 186 981 l 2
 186 1067 187 1123 187 1170 c 0
 187 1225 186 1268 182 1330 c 1
 419 1331 l 1
 424 1230 425 1174 425 1059 c 2
 425 909 l 2
 425 627 423 405 422 176 c 1
 422 176 466 299 498 375 c 1
 590 371 l 1
 654 275 650 213 682 167 c 1
 682 983 l 2
 682 1069 683 1125 683 1172 c 0
 683 1227 682 1270 678 1332 c 1
 915 1333 l 1
 920 1232 921 1176 921 1061 c 2
 921 911 l 2
 921 629 919 407 918 178 c 1
 918 178 970 269 1002 345 c 1
 1170 241 l 1
 1098 145 1008 -53 878 -197 c 1
EndSplineSet
Validated: 1
EndChar

StartChar: uni21C7
Encoding: 8647 8647 552
Width: 1060
VWidth: 6
Flags: HW
HStem: 200 244<348 1029> 1028 244<344 1025>
LayerCount: 2
Fore
SplineSet
1035 444 m 1
 1029 321 l 1
 1029 199 l 1
 974 202 914 203 857 203 c 0
 757 203 666 200 623 200 c 0
 549 200 447 200 348 199 c 1
 422 119 486 27 511 -92 c 1
 283 -163 l 1
 260 -23 123 138 -21 268 c 1
 -21 383 l 1
 111 501 202 626 251 751 c 1
 199 867 89 990 -25 1093 c 1
 -25 1208 l 1
 133 1349 233 1501 271 1650 c 1
 489 1563 l 1
 458 1445 397 1353 321 1268 c 1
 388 1268 453 1269 498 1269 c 0
 537 1269 576 1269 617 1269 c 0
 685 1269 786 1272 886 1272 c 0
 936 1272 986 1271 1031 1269 c 1
 1025 1146 l 1
 1025 1024 l 1
 970 1027 910 1028 853 1028 c 0
 753 1028 662 1025 619 1025 c 0
 545 1025 443 1025 344 1024 c 1
 418 944 468 857 493 738 c 1
 462 620 401 528 325 443 c 1
 392 443 457 444 502 444 c 0
 541 444 580 444 621 444 c 0
 689 444 790 447 890 447 c 0
 940 447 990 446 1035 444 c 1
EndSplineSet
Validated: 1
EndChar

StartChar: guilsinglleft
Encoding: 8249 8249 553
Width: 1060
VWidth: 6
Flags: HW
VStem: 227 532
LayerCount: 2
Fore
SplineSet
227 576 m 1
 371 706 508 867 531 1007 c 1
 759 936 l 1
 719 747 583 624 458 515 c 1
 586 397 696 278 741 106 c 1
 523 19 l 1
 485 168 385 320 227 461 c 1
 227 576 l 1
EndSplineSet
Validated: 1
EndChar

StartChar: guilsinglright
Encoding: 8250 8250 554
Width: 1060
VWidth: 6
Flags: HW
VStem: 294 532
LayerCount: 2
Fore
SplineSet
826 454 m 1
 682 324 545 163 522 23 c 1
 294 94 l 1
 334 283 470 406 595 515 c 1
 467 633 357 752 312 924 c 1
 530 1011 l 1
 568 862 668 710 826 569 c 1
 826 454 l 1
EndSplineSet
Validated: 1
EndChar

StartChar: uni203D
Encoding: 8253 8253 556
Width: 1060
VWidth: 0
Flags: HW
HStem: 0 270<360 710>
VStem: 43 259<862.261 1081.25> 360 350<0 270> 393 272<431 618.883> 412 240<431.688 599.625 854 1115.55> 783 251<915.241 1082.86>
LayerCount: 2
Fore
SplineSet
661 1133 m 1xcc
 655 1051 652 970 652 889 c 0
 652 877 652 866 652 854 c 1
 721 895 783 934 783 994 c 0
 783 1056 729 1107 661 1133 c 1xcc
383 1326 m 1
 381 1343 379 1359 377 1376 c 1
 692 1376 l 1
 689 1361 686 1347 684 1332 c 1
 880 1294 1034 1175 1034 991 c 0
 1034 821 864 743 775 685 c 0
 713 644 665 567 665 479 c 2
 665 430 l 1
 393 431 l 1
 393 475 l 2xd4
 393 504 396 532 403 559 c 1
 409 651 412 742 412 834 c 0
 412 929 409 1025 402 1120 c 1
 347 1094 303 1053 302 995 c 0
 302 956 327 918 348 892 c 1
 130 743 l 1
 84 807 43 876 43 967 c 0
 43 1166 204 1283 383 1326 c 1
360 270 m 1xe4
 710 270 l 1
 710 0 l 1
 360 0 l 1
 360 270 l 1xe4
EndSplineSet
Validated: 1
EndChar

StartChar: uni2047
Encoding: 8263 8263 557
Width: 1060
VWidth: 0
Flags: HW
HStem: 0 270<102 454 546 898> 1153 192<208.138 368.211 655.627 816.88>
VStem: 102 352<0 270> 137 272<431 666.875> 391 251<881.117 1110.22> 546 352<0 270> 585 272<431 666.875> 839 251<881.117 1134.88>
LayerCount: 2
Fore
SplineSet
-25 1221 m 1xc8
 62 1309 186 1345 289 1345 c 0
 387 1345 462 1326 517 1290 c 1
 588 1328 667 1345 737 1345 c 0
 994 1345 1090 1217 1090 991 c 0xc9
 1090 821 1005 755 918 685 c 0
 860 638 857 567 857 479 c 2
 857 430 l 1
 585 431 l 1
 585 475 l 2xc2
 585 621 634 734 703 795 c 0
 785 868 839 907 839 994 c 0
 839 1086 814 1153 747 1153 c 0
 710 1153 672 1128 635 1089 c 1
 640 1059 642 1026 642 991 c 0xc9
 642 821 557 755 470 685 c 0
 412 638 409 567 409 479 c 2
 409 430 l 1
 137 431 l 1
 137 475 l 2xd0
 137 621 186 734 255 795 c 0
 337 868 391 907 391 994 c 0
 391 1086 366 1153 299 1153 c 0
 235 1153 166 1077 110 985 c 1
 -25 1221 l 1xc8
102 270 m 1xe0
 454 270 l 1
 454 0 l 1
 102 0 l 1
 102 270 l 1xe0
546 270 m 1xc4
 898 270 l 1
 898 0 l 1
 546 0 l 1
 546 270 l 1xc4
EndSplineSet
Validated: 1
EndChar

StartChar: uni2048
Encoding: 8264 8264 558
Width: 1060
VWidth: 0
Flags: HW
HStem: 0 270<102 454 679 1029> 1153 192<208.138 368.88>
VStem: 102 352<0 270> 137 272<431 666.875> 391 251<881.117 1134.88> 679 350<0 270> 696 315<558.848 1376> 712 283<464 1280.94>
LayerCount: 2
Fore
SplineSet
-25 1221 m 1xc8
 62 1309 186 1345 289 1345 c 0
 546 1345 642 1217 642 991 c 0xc8
 642 821 557 755 470 685 c 0
 412 638 409 567 409 479 c 2
 409 430 l 1
 137 431 l 1
 137 475 l 2xd0
 137 621 186 734 255 795 c 0
 337 868 391 907 391 994 c 0
 391 1086 366 1153 299 1153 c 0
 235 1153 166 1077 110 985 c 1
 -25 1221 l 1xc8
102 270 m 1xe0
 454 270 l 1
 454 0 l 1
 102 0 l 1
 102 270 l 1xe0
679 270 m 1xc4
 1029 270 l 1
 1029 0 l 1
 679 0 l 1
 679 270 l 1xc4
1011 1376 m 1xc2
 995 464 l 1
 712 462 l 1xc1
 696 1376 l 1
 1011 1376 l 1xc2
EndSplineSet
Validated: 1
EndChar

StartChar: uni2049
Encoding: 8265 8265 559
Width: 1060
VWidth: 0
Flags: HW
HStem: 0 270<65 415 534 886> 1153 192<640.138 800.88>
VStem: 65 350<0 270> 82 315<558.848 1376> 98 283<464 1280.94> 534 352<0 270> 569 272<431 666.875> 823 251<881.117 1134.88>
LayerCount: 2
Fore
SplineSet
407 1221 m 1xc1
 494 1309 618 1345 721 1345 c 0
 978 1345 1074 1217 1074 991 c 0xc1
 1074 821 989 755 902 685 c 0
 844 638 841 567 841 479 c 2
 841 430 l 1
 569 431 l 1
 569 475 l 2xc2
 569 621 618 734 687 795 c 0
 769 868 823 907 823 994 c 0
 823 1086 798 1153 731 1153 c 0
 667 1153 598 1077 542 985 c 1
 407 1221 l 1xc1
534 270 m 1xc4
 886 270 l 1
 886 0 l 1
 534 0 l 1
 534 270 l 1xc4
65 270 m 1xe0
 415 270 l 1
 415 0 l 1
 65 0 l 1
 65 270 l 1xe0
397 1376 m 1xd0
 381 464 l 1
 98 462 l 1xc8
 82 1376 l 1
 397 1376 l 1xd0
EndSplineSet
Validated: 1
EndChar

StartChar: uniE0A0
Encoding: 57504 57504 562
Width: 1060
Flags: HW
LayerCount: 2
Fore
SplineSet
416 -364 m 1
 140 -364 l 1
 140 0 l 2
 140 119 166 217 219 292 c 1
 255 345 311 396 388 446 c 2
 540 545 l 2
 600 584 643 630 668 684 c 128
 694 736 707 806 707 893 c 2
 707 1222 l 1
 498 1222 l 1
 790 1564 l 1
 1082 1222 l 1
 873 1222 l 1
 873 837 l 2
 873 709 855 611 820 542 c 128
 784 474 730 417 659 370 c 1
 584 320 l 2
 522 279 479 238 456 196 c 0
 429 149 416 83 416 0 c 2
 416 -364 l 1
416 703 m 1
 140 525 l 1
 140 1596 l 1
 416 1596 l 1
 416 703 l 1
EndSplineSet
Validated: 1
EndChar

StartChar: uniE0A1
Encoding: 57505 57505 563
Width: 1060
Flags: HW
LayerCount: 2
Fore
SplineSet
690 880 m 1
 690 748 l 1
 184 748 l 1
 184 1648 l 1
 339 1648 l 1
 339 880 l 1
 690 880 l 1
696 667 m 1
 855 667 l 1
 855 -233 l 1
 688 -233 l 1
 443 352 l 1
 462 -38 l 1
 462 -233 l 1
 305 -233 l 1
 305 667 l 1
 470 667 l 1
 717 80 l 1
 696 509 l 1
 696 667 l 1
EndSplineSet
Validated: 1
EndChar

StartChar: uniE0A2
Encoding: 57506 57506 564
Width: 1060
Flags: HW
LayerCount: 2
Fore
SplineSet
255 0 m 2
 161 0 114 47 114 141 c 2
 114 830 l 2
 114 931 154 981 235 981 c 1
 235 1287 l 2
 235 1378 263 1454 319 1515 c 0
 373 1573 440 1602 520 1602 c 256
 600 1602 667 1573 721 1515 c 0
 777 1454 805 1378 805 1287 c 2
 805 981 l 1
 886 981 926 931 926 830 c 2
 926 141 l 2
 926 47 879 0 785 0 c 2
 255 0 l 2
520 1472 m 256
 475 1472 440 1455 412 1422 c 128
 386 1389 372 1344 372 1287 c 2
 372 981 l 1
 668 981 l 1
 668 1287 l 2
 668 1344 654 1389 628 1422 c 128
 600 1455 565 1472 520 1472 c 256
576 236 m 1
 576 559 l 1
 621 582 644 619 644 670 c 0
 644 704 632 733 608 758 c 128
 583 782 554 794 520 794 c 256
 486 794 457 782 432 758 c 128
 408 733 396 704 396 670 c 0
 396 619 419 582 464 559 c 1
 464 236 l 1
 576 236 l 1
EndSplineSet
Validated: 1
EndChar

StartChar: uniE0B0
Encoding: 57520 57520 565
Width: 1060
VWidth: 1918
Flags: HW
LayerCount: 2
Fore
SplineSet
-10 1820 m 1
 1050 658 l 1
 -10 -505 l 1
 -10 1820 l 1
EndSplineSet
Validated: 1
EndChar

StartChar: uniE0B1
Encoding: 57521 57521 566
Width: 1060
VWidth: 1918
Flags: HW
LayerCount: 2
Fore
SplineSet
-67 1682 m 1
 29 1777 l 1
 1050 658 l 1
 29 -461 l 1
 -67 -366 l 1
 865 658 l 1
 -67 1682 l 1
EndSplineSet
Validated: 1
EndChar

StartChar: uniE0B2
Encoding: 57522 57522 567
Width: 1060
VWidth: 1918
Flags: HW
LayerCount: 2
Fore
SplineSet
1110 -505 m 1
 30 658 l 5
 1110 1820 l 1
 1110 -505 l 1
EndSplineSet
Validated: 1
EndChar

StartChar: uniE0B3
Encoding: 57523 57523 568
Width: 1060
VWidth: 1918
Flags: HW
LayerCount: 2
Fore
SplineSet
215 658 m 5
 1147 -366 l 5
 1051 -461 l 5
 30 658 l 5
 1051 1777 l 5
 1147 1682 l 5
 215 658 l 5
EndSplineSet
Validated: 1
EndChar

StartChar: block
Encoding: 9608 9608 569
Width: 1060
VWidth: 1918
Flags: HW
LayerCount: 2
Fore
SplineSet
-10 1820 m 1
 1110 1820 l 1
 1110 -505 l 1
 -10 -505 l 1
 -10 1820 l 1
EndSplineSet
Validated: 1
EndChar
